STARTFONT 2.1
COMMENT
COMMENT Converted from OpenType font "Patriot-Regular.otf" by "otf2bdf 3.0".
COMMENT
FONT -FreeType-Patriot-Medium-R-Normal--39-280-100-100-P-185-ISO10646-1
SIZE 28 100 100
FONTBOUNDINGBOX 62 51 -14 -10
STARTPROPERTIES 19
FOUNDRY "FreeType"
FAMILY_NAME "Patriot"
WEIGHT_NAME "Medium"
SLANT "R"
SETWIDTH_NAME "Normal"
ADD_STYLE_NAME ""
PIXEL_SIZE 39
POINT_SIZE 280
RESOLUTION_X 100
RESOLUTION_Y 100
SPACING "P"
AVERAGE_WIDTH 185
CHARSET_REGISTRY "ISO10646"
CHARSET_ENCODING "1"
FONT_ASCENT 39
FONT_DESCENT 7
COPYRIGHT "Copyright © 2020 by Behalf Studio. All rights reserved."
_OTF_FONTFILE "Patriot-Regular.otf"
_OTF_PSNAME "Patriot-Regular"
ENDPROPERTIES
CHARS 426
STARTCHAR 0020
ENCODING 32
SWIDTH 360 0
DWIDTH 14 0
BBX 0 0 0 0
BITMAP
ENDCHAR
STARTCHAR 0021
ENCODING 33
SWIDTH 231 0
DWIDTH 9 0
BBX 6 27 2 0
BITMAP
78
78
78
78
78
78
78
78
78
78
78
78
78
78
78
78
78
00
00
00
00
00
78
FC
FC
FC
78
ENDCHAR
STARTCHAR 0022
ENCODING 34
SWIDTH 282 0
DWIDTH 11 0
BBX 8 8 2 19
BITMAP
E7
E7
E7
E7
E7
E7
E7
E7
ENDCHAR
STARTCHAR 0023
ENCODING 35
SWIDTH 617 0
DWIDTH 24 0
BBX 21 27 2 0
BITMAP
0381C0
0381C0
0381C0
0381C0
0381C0
038380
070380
070380
7FFFF8
7FFFF8
7FFFF8
070380
070700
0E0700
0E0700
0E0700
0E0700
FFFFF0
FFFFF0
0E0E00
1E0E00
1C0E00
1C0E00
1C0E00
1C0E00
1C0E00
1C1C00
ENDCHAR
STARTCHAR 0024
ENCODING 36
SWIDTH 540 0
DWIDTH 21 0
BBX 17 34 2 -3
BITMAP
01C000
01C000
01C000
03E000
0FF800
1FFC00
3FFE00
3CDF00
78CF00
78C700
78C600
78C000
3CC000
3EC000
1FC000
0FE000
03F000
01FC00
00FE00
00FF00
00CF00
00C780
00C780
10C780
F0C780
F0C780
78CF80
7CDF00
3FFF00
1FFE00
0FF800
01C000
01C000
01C000
ENDCHAR
STARTCHAR 0025
ENCODING 37
SWIDTH 874 0
DWIDTH 34 0
BBX 30 29 2 -1
BITMAP
07800000
1FE003C0
3FF00380
78780700
F0380F00
E0380E00
E03C1C00
E03C3800
F0383800
70787000
7FF0E000
3FE1E000
0FC1C000
00038000
00078000
00070300
000E1FE0
001C3FF0
001C7C78
00387838
0070701C
00F0701C
00E0701C
01C0701C
03C0703C
03807C78
07003FF0
0E000FE0
00000100
ENDCHAR
STARTCHAR 0026
ENCODING 38
SWIDTH 642 0
DWIDTH 25 0
BBX 22 28 2 0
BITMAP
01E000
07F800
1FFE00
3FFF00
3C0F80
780700
780200
780000
780000
780000
3C0000
3E0000
1FFFFC
0FFFFC
3FFFFC
3F00E0
7800E0
F800E0
F001E0
F001E0
F001E0
F001E0
F803C0
7807C0
7E0F80
3FFF00
1FFE00
07FC00
ENDCHAR
STARTCHAR 0027
ENCODING 39
SWIDTH 154 0
DWIDTH 6 0
BBX 3 8 2 19
BITMAP
E0
E0
E0
E0
E0
E0
E0
E0
ENDCHAR
STARTCHAR 0028
ENCODING 40
SWIDTH 308 0
DWIDTH 12 0
BBX 9 36 2 -5
BITMAP
0200
0780
0700
0E00
0E00
1C00
1C00
3800
3800
7000
7000
7000
7000
E000
E000
E000
E000
E000
E000
E000
E000
E000
E000
6000
7000
7000
7000
3800
3800
3C00
1C00
1E00
0E00
0F00
0780
0300
ENDCHAR
STARTCHAR 0029
ENCODING 41
SWIDTH 308 0
DWIDTH 12 0
BBX 9 36 2 -5
BITMAP
6000
E000
7000
7800
3800
1C00
1C00
0E00
0E00
0E00
0700
0700
0700
0700
0300
0380
0380
0380
0380
0380
0380
0300
0300
0700
0700
0700
0E00
0E00
0E00
1C00
1C00
3800
3800
7000
F000
6000
ENDCHAR
STARTCHAR 002A
ENCODING 42
SWIDTH 437 0
DWIDTH 17 0
BBX 14 13 2 14
BITMAP
0300
0700
0780
0700
F738
FB7C
FFF8
3F60
0F80
1DE0
3DE0
3CF0
3860
ENDCHAR
STARTCHAR 002B
ENCODING 43
SWIDTH 540 0
DWIDTH 21 0
BBX 18 18 2 4
BITMAP
01C000
01C000
01C000
01C000
01C000
01C000
01C000
01C000
FFFFC0
FFFFC0
FFFFC0
01C000
01C000
01C000
01C000
01C000
01C000
01C000
ENDCHAR
STARTCHAR 002C
ENCODING 44
SWIDTH 257 0
DWIDTH 10 0
BBX 6 8 2 -5
BITMAP
1C
3C
38
30
70
60
E0
C0
ENDCHAR
STARTCHAR 002D
ENCODING 45
SWIDTH 437 0
DWIDTH 17 0
BBX 13 2 2 8
BITMAP
FFF8
FFF8
ENDCHAR
STARTCHAR 002E
ENCODING 46
SWIDTH 231 0
DWIDTH 9 0
BBX 6 5 2 0
BITMAP
78
FC
FC
FC
78
ENDCHAR
STARTCHAR 002F
ENCODING 47
SWIDTH 385 0
DWIDTH 15 0
BBX 11 29 2 -1
BITMAP
00E0
00E0
00E0
01C0
01C0
01C0
0380
0380
0380
0380
0700
0700
0700
0E00
0E00
0E00
0E00
1C00
1C00
1C00
3800
3800
3800
3800
7000
7000
7000
E000
E000
ENDCHAR
STARTCHAR 0030
ENCODING 48
SWIDTH 694 0
DWIDTH 27 0
BBX 25 29 1 -1
BITMAP
003F0000
01FFC000
07FFF000
0FFFF800
1F807C00
1E003E00
3C001F00
3C000F00
78000700
78000780
70000780
F0000380
F0000380
F0000380
F0000380
F0000380
F0000380
F0000380
70000780
78000780
78000F00
3C000F00
3C001E00
1F003E00
0F80FC00
07FFF800
03FFF000
00FFC000
000C0000
ENDCHAR
STARTCHAR 0031
ENCODING 49
SWIDTH 282 0
DWIDTH 11 0
BBX 7 27 2 0
BITMAP
0E
0E
FE
FE
FE
0E
0E
0E
0E
0E
0E
0E
0E
0E
0E
0E
0E
0E
0E
0E
0E
0E
0E
0E
0E
0E
0E
ENDCHAR
STARTCHAR 0032
ENCODING 50
SWIDTH 540 0
DWIDTH 21 0
BBX 19 28 1 0
BITMAP
01F000
07FE00
1FFF00
3FFF80
3E0780
7803C0
7803C0
7001C0
F001C0
0001C0
0003C0
0003C0
000780
000780
000F00
001F00
003E00
007C00
00F800
01F000
03E000
07C000
0F8000
1F0000
3E0000
3FFFE0
7FFFE0
FFFFE0
ENDCHAR
STARTCHAR 0033
ENCODING 51
SWIDTH 514 0
DWIDTH 20 0
BBX 18 28 1 -1
BITMAP
7FFF80
7FFF80
7FFF00
001E00
003C00
00F800
01E000
03C000
07E000
0FFC00
1FFE00
3FFF00
180F80
000780
0003C0
0003C0
0001C0
0001C0
0001C0
0003C0
0003C0
0003C0
700780
F81F80
7FFF00
3FFE00
0FF800
008000
ENDCHAR
STARTCHAR 0034
ENCODING 52
SWIDTH 514 0
DWIDTH 20 0
BBX 20 27 0 0
BITMAP
001F80
00FF80
01FF80
07F380
0FC380
0F0380
1E0380
3E0380
3C0380
380380
780380
780380
700380
700380
700380
700380
FFFFF0
FFFFF0
FFFFF0
000380
000380
000380
000380
000380
000380
000380
000380
ENDCHAR
STARTCHAR 0035
ENCODING 53
SWIDTH 540 0
DWIDTH 21 0
BBX 18 28 2 -1
BITMAP
7FFF00
7FFF00
7FFF00
700000
700000
700000
700000
F00000
F1E000
FFFC00
FFFE00
FFFF00
F80F00
700780
000780
0003C0
0003C0
0003C0
0003C0
0003C0
000380
200780
700F80
F81F00
7FFE00
3FFC00
1FF800
008000
ENDCHAR
STARTCHAR 0036
ENCODING 54
SWIDTH 591 0
DWIDTH 23 0
BBX 20 28 2 -1
BITMAP
007800
00F800
00F000
01E000
03C000
03C000
078000
0F7000
1FFE00
1FFF80
3F9FC0
7C03E0
7801E0
F000F0
F000F0
E00070
E00070
E00070
E00070
F00070
F000F0
F800F0
7801E0
3E07C0
3FFFC0
0FFF00
07FE00
006000
ENDCHAR
STARTCHAR 0037
ENCODING 55
SWIDTH 437 0
DWIDTH 17 0
BBX 17 27 1 0
BITMAP
FFFF80
FFFF80
FFFF00
000F00
000E00
001E00
001E00
001C00
003C00
003800
7FFE00
7FFE00
7FFE00
7FFE00
00E000
01E000
01E000
03C000
03C000
038000
078000
078000
0F0000
0F0000
0E0000
1E0000
1E0000
ENDCHAR
STARTCHAR 0038
ENCODING 56
SWIDTH 565 0
DWIDTH 22 0
BBX 20 29 1 -1
BITMAP
00F000
03FC00
07FE00
0F9F00
0E0700
1E0780
1E0780
1E0780
0E0700
0F9F00
07FE00
0FFF00
1FFF80
3E07C0
7801E0
7801E0
F000F0
F000F0
F000F0
F000F0
F000F0
F000F0
7801E0
7C03E0
3E07C0
1FFF80
0FFF00
07FE00
00E000
ENDCHAR
STARTCHAR 0039
ENCODING 57
SWIDTH 565 0
DWIDTH 22 0
BBX 21 28 1 0
BITMAP
00F800
07FF00
0FFF80
1FFFC0
3E03E0
7C00F0
7800F0
700078
F00078
F00078
F00038
F00078
F00078
700078
7800F0
3C01F0
3E03E0
1FFFE0
0FFFC0
03FF80
000F00
000F00
001E00
003C00
007C00
007800
00F000
01F000
ENDCHAR
STARTCHAR 003A
ENCODING 58
SWIDTH 231 0
DWIDTH 9 0
BBX 6 19 2 0
BITMAP
30
78
FC
FC
F8
70
00
00
00
00
00
00
00
00
78
FC
FC
FC
78
ENDCHAR
STARTCHAR 003B
ENCODING 59
SWIDTH 282 0
DWIDTH 11 0
BBX 7 24 2 -5
BITMAP
18
3E
7E
7E
3E
1C
00
00
00
00
00
00
00
00
00
00
1C
3C
38
30
70
60
E0
C0
ENDCHAR
STARTCHAR 003C
ENCODING 60
SWIDTH 540 0
DWIDTH 21 0
BBX 18 16 2 4
BITMAP
0000C0
0007C0
003FC0
00FE00
07F000
3FC000
FE0000
F00000
F80000
FF0000
1FE000
03F800
00FF00
001FC0
0003C0
0000C0
ENDCHAR
STARTCHAR 003D
ENCODING 61
SWIDTH 540 0
DWIDTH 21 0
BBX 18 11 2 7
BITMAP
FFFFC0
FFFFC0
FFFFC0
000000
000000
000000
000000
000000
FFFFC0
FFFFC0
FFFFC0
ENDCHAR
STARTCHAR 003E
ENCODING 62
SWIDTH 540 0
DWIDTH 21 0
BBX 18 16 2 4
BITMAP
C00000
F80000
FE0000
3FC000
07F800
00FF00
001FC0
0007C0
0007C0
003F80
01FE00
0FF000
3F8000
FE0000
F00000
800000
ENDCHAR
STARTCHAR 003F
ENCODING 63
SWIDTH 411 0
DWIDTH 16 0
BBX 13 28 2 0
BITMAP
0600
1FC0
3FE0
7FF0
F070
E078
2078
0070
00F0
00E0
01E0
03C0
0380
0780
0700
0F00
0E00
0E00
0E00
0000
0000
0000
0000
0F00
1F00
1F80
1F80
0F00
ENDCHAR
STARTCHAR 0040
ENCODING 64
SWIDTH 797 0
DWIDTH 31 0
BBX 27 29 2 -1
BITMAP
000F8000
00FFF800
03FFFC00
07C00F00
0F000780
1C000380
380001C0
380600C0
703FF0E0
707FF0E0
6078F0E0
E0F0E0E0
E0E060E0
E0E060E0
E0E060E0
E0E0E0C0
E0E0E1C0
E0F1E380
607FFF80
707F7F00
700C1800
38000000
1C000000
1E000300
0F000780
07C01F00
01FFFC00
007FF000
00030000
ENDCHAR
STARTCHAR 0041
ENCODING 65
SWIDTH 540 0
DWIDTH 21 0
BBX 19 28 2 0
BITMAP
03C000
0FF800
3FFC00
3FFE00
7C1E00
780F00
F00F00
F00F00
F00700
F00700
F00700
F00700
F00700
F00700
F00700
F00700
F00700
F00700
F00700
F00700
F00700
F00700
F00700
F00700
F00700
FFFFE0
FFFFE0
FFFFE0
ENDCHAR
STARTCHAR 0042
ENCODING 66
SWIDTH 591 0
DWIDTH 23 0
BBX 21 27 1 0
BITMAP
1FFF00
1FFFC0
1FFFE0
1E03F0
1E00F0
1E0078
1E0078
1E0078
1E0078
1E00F0
1E01F0
FFFFE0
FFFFE0
FFFFE0
FFFFF0
1E00F8
1E0078
1E0078
1E0038
1E0038
1E0038
1E0078
1E00F8
1E07F0
1FFFE0
1FFFC0
1FFF00
ENDCHAR
STARTCHAR 0043
ENCODING 67
SWIDTH 668 0
DWIDTH 26 0
BBX 25 29 1 -1
BITMAP
000FC000
00FFF800
01FFFC00
07FFFF00
0FC01F80
1F800F80
1E000300
3C000000
7C000000
78000000
78000000
70000000
F0000000
F0000000
F0000000
F0000000
F0000000
70000000
78000000
78000000
3C000000
3E000200
1F000700
1F800F80
0FE03F00
03FFFE00
01FFFC00
007FF000
00020000
ENDCHAR
STARTCHAR 0044
ENCODING 68
SWIDTH 642 0
DWIDTH 25 0
BBX 22 27 2 0
BITMAP
FFF800
FFFE00
FFFF80
F03FC0
F007E0
F001F0
F000F0
F00078
F00078
F0003C
F0003C
F0003C
F0003C
F0003C
F0003C
F0003C
F0003C
F00038
F00078
F00078
F000F0
F001F0
F007E0
F0FFC0
FFFF80
FFFE00
FFF000
ENDCHAR
STARTCHAR 0045
ENCODING 69
SWIDTH 488 0
DWIDTH 19 0
BBX 18 27 1 0
BITMAP
1FFC00
1FFC00
1FFC00
1C0000
1C0000
1C0000
1C0000
1C0000
1C0000
1C0000
1C0000
1C0000
FFFE00
FFFE00
FFFE00
1C0000
1C0000
1C0000
1C0000
1C0000
1C0000
1C0000
1C0000
1C0000
1FFFC0
1FFFC0
1FFFC0
ENDCHAR
STARTCHAR 0046
ENCODING 70
SWIDTH 437 0
DWIDTH 17 0
BBX 17 27 1 0
BITMAP
1FFF80
1FFF80
1FFF80
1E0000
1E0000
1E0000
1E0000
1E0000
1E0000
1E0000
1E0000
1E0000
FFFF00
FFFF00
FFFF00
FFFF00
1E0000
1E0000
1E0000
1E0000
1E0000
1E0000
1E0000
1E0000
1E0000
1E0000
1E0000
ENDCHAR
STARTCHAR 0047
ENCODING 71
SWIDTH 822 0
DWIDTH 32 0
BBX 31 29 1 -1
BITMAP
000FC000
00FFF800
01FFFE00
07FFFF00
0FC01F80
1F800780
1E000300
3C000000
7C000000
78000000
78000000
70000000
F0000000
F003FFFE
F003FFFE
F003FFFE
F0000078
70000070
780000F0
780000F0
3C0001F0
3E0001E0
1F0003C0
0F800FC0
0FE03F80
03FFFF00
01FFFC00
007FF000
00030000
ENDCHAR
STARTCHAR 0048
ENCODING 72
SWIDTH 540 0
DWIDTH 21 0
BBX 19 27 1 0
BITMAP
1C01E0
1C01E0
1C01E0
1C01E0
1C01E0
1C01E0
1C01E0
1C01E0
1C01E0
1C01E0
1C01E0
FFFFE0
FFFFE0
FFFFE0
1C01E0
1C01E0
1C01E0
1C01E0
1C01E0
1C01E0
1C01E0
1C01E0
1C01E0
1C01E0
1C01E0
1C01E0
1C01E0
ENDCHAR
STARTCHAR 0049
ENCODING 73
SWIDTH 180 0
DWIDTH 7 0
BBX 9 30 -1 1
BITMAP
0800
0C00
0C00
FF80
3F00
1E00
3E00
2200
0100
0000
0000
0000
0000
1E00
1E00
1E00
1E00
1E00
1E00
1E00
1E00
1E00
1E00
1E00
1E00
1E00
1E00
1E00
1E00
1E00
ENDCHAR
STARTCHAR 004A
ENCODING 74
SWIDTH 462 0
DWIDTH 18 0
BBX 16 28 0 -1
BITMAP
007F
007F
007F
000F
000F
000F
000F
000F
000F
000F
000F
000F
000F
000F
000F
000F
000F
000F
000F
000F
000F
300F
F81E
7C3E
3FFC
3FFC
0FF0
0180
ENDCHAR
STARTCHAR 004B
ENCODING 75
SWIDTH 514 0
DWIDTH 20 0
BBX 18 27 1 0
BITMAP
1C0780
1C0780
1C0780
1C0780
1C0780
1C0700
1C0700
1C0700
1C0F00
1C0F00
1C1E00
FFFE00
FFFC00
FFFF00
FFFF00
1C0F80
1C0780
1C03C0
1C03C0
1C03C0
1C03C0
1C03C0
1C03C0
1C03C0
1C03C0
1C03C0
1C03C0
ENDCHAR
STARTCHAR 004C
ENCODING 76
SWIDTH 437 0
DWIDTH 17 0
BBX 14 27 2 0
BITMAP
F000
F000
F000
F000
F000
F000
F000
F000
F000
F000
F000
F000
F000
F000
F000
F000
F000
F000
F000
F000
F000
F000
F000
F000
FFFC
FFFC
FFFC
ENDCHAR
STARTCHAR 004D
ENCODING 77
SWIDTH 848 0
DWIDTH 33 0
BBX 31 28 1 0
BITMAP
40000000
7003801E
F803C01E
FC03E01E
3E03F01E
3F83FC1E
3FC3FE1E
3FE3DF1E
3DFBCFDE
3CFFC7FE
3C3FC1FE
3C1FC0FE
3C0FC07E
3C07C03E
3C03C01E
3C03C01E
3C03C01E
3C03C01E
3C03C01E
3C03C01E
3C03C01E
3C03C01E
3C03C01E
3C03C01E
3C03C01E
3C03C01E
3C03C01E
3C03C01E
ENDCHAR
STARTCHAR 004E
ENCODING 78
SWIDTH 514 0
DWIDTH 20 0
BBX 17 28 1 0
BITMAP
400000
700380
F80380
FC0380
7F0380
7F8380
7FC380
7BE380
79FB80
78FF80
787F80
781F80
780F80
780780
780380
780380
780380
780380
780380
780380
780380
780380
780380
780380
780380
780380
780380
780380
ENDCHAR
STARTCHAR 004F
ENCODING 79
SWIDTH 797 0
DWIDTH 31 0
BBX 29 29 1 -1
BITMAP
000FC000
00FFF800
01FFFE00
07FFFF00
0FC01F80
1F8007C0
1E0003E0
3C0001F0
7C0000F0
78000078
78000078
70000078
F0000038
F0000038
F0000038
F0000038
F0000038
70000078
78000078
78000078
3C0000F0
3E0001F0
1F0003E0
0F8007C0
0FE01F80
03FFFF00
01FFFE00
007FF800
00030000
ENDCHAR
STARTCHAR 0050
ENCODING 80
SWIDTH 540 0
DWIDTH 21 0
BBX 20 27 1 0
BITMAP
3FFE00
3FFF80
3FFFC0
3C07E0
3C01E0
3C00F0
3C00F0
3C00F0
3C00F0
3C00F0
3C00F0
3C01E0
3C03E0
FFFFC0
FFFF80
FFFE00
FFE000
3C0000
3C0000
3C0000
3C0000
3C0000
3C0000
3C0000
3C0000
3C0000
3C0000
ENDCHAR
STARTCHAR 0051
ENCODING 81
SWIDTH 797 0
DWIDTH 31 0
BBX 29 29 1 -1
BITMAP
000FC000
00FFF800
01FFFE00
07FFFF00
0FC01F80
1F8007C0
1E0003E0
3C0001F0
7C0000F0
78000078
78000078
70000078
F0000038
F0000038
F0000038
F0000038
F0000038
70000078
78000078
78000878
3C001CF0
3E003FF0
1F001FE0
0F800FC0
0FE01FC0
03FFFFE0
01FFFFF0
007FF8E0
00030040
ENDCHAR
STARTCHAR 0052
ENCODING 82
SWIDTH 565 0
DWIDTH 22 0
BBX 21 27 1 0
BITMAP
1FFE00
1FFF80
1FFFE0
1C07E0
1C01F0
1C00F0
1C0070
1C0078
1C0070
1C0070
1C00F0
1C01F0
1C07E0
FFFFC0
FFFF80
FFFF80
1C0F80
1C03C0
1C01E0
1C01E0
1C01E0
1C00E0
1C00E0
1C00E0
1C00E0
1C00E0
1C00E0
ENDCHAR
STARTCHAR 0053
ENCODING 83
SWIDTH 488 0
DWIDTH 19 0
BBX 17 29 1 -1
BITMAP
03E000
0FF800
1FFC00
3FFE00
3C1F00
780F00
780700
780600
780000
3C0000
3E0000
1F8000
0FE000
03F000
01FC00
007E00
003F00
000F00
000780
000780
100780
F00780
F00780
780780
7C1F00
3FFF00
1FFE00
0FF800
00C000
ENDCHAR
STARTCHAR 0054
ENCODING 84
SWIDTH 488 0
DWIDTH 19 0
BBX 18 27 1 0
BITMAP
FFFFC0
FFFFC0
FFFFC0
01E000
01E000
01E000
01E000
01E000
01E000
01E000
01E000
01E000
01E000
01E000
01E000
01E000
01E000
01E000
01E000
01E000
01E000
01E000
01E000
01E000
01E000
01E000
01E000
ENDCHAR
STARTCHAR 0055
ENCODING 85
SWIDTH 488 0
DWIDTH 19 0
BBX 16 28 2 -1
BITMAP
E00F
E00F
E00F
E00F
E00F
E00F
E00F
E00F
E00F
E00F
E00F
E00F
E00F
E00F
E00F
E00F
E00F
E00F
E00F
E00F
F00F
F00F
F01E
7C3E
7FFC
3FF8
0FF0
0180
ENDCHAR
STARTCHAR 0056
ENCODING 86
SWIDTH 462 0
DWIDTH 18 0
BBX 16 27 0 0
BITMAP
F007
F007
F007
F007
F007
F007
F007
F007
F007
F007
F007
F007
F007
F00F
700F
700F
700F
780F
780F
781E
3C1E
3C1E
1E3C
1E78
0F78
07F0
03E0
ENDCHAR
STARTCHAR 0057
ENCODING 87
SWIDTH 771 0
DWIDTH 30 0
BBX 29 27 0 0
BITMAP
F0070078
F0070078
F0070078
F0070078
F0070078
F0070078
F0070078
F0070078
F0070078
F0070078
F0070078
F0070070
F0070070
F00F0070
700F0070
700F8070
700F80F0
780F80F0
780F80F0
781F80E0
3C1FC1E0
3C1FC1E0
1E3DE3C0
1E79F3C0
0F78F780
07F07F00
03E03E00
ENDCHAR
STARTCHAR 0058
ENCODING 88
SWIDTH 514 0
DWIDTH 20 0
BBX 16 27 2 0
BITMAP
F007
F007
F007
F007
F007
F007
F00F
F00F
781F
7C3E
3FFC
1FF8
3FFC
7F7E
781E
F00F
F00F
F00F
F007
F007
F007
F007
F007
F007
F007
F007
F007
ENDCHAR
STARTCHAR 0059
ENCODING 89
SWIDTH 488 0
DWIDTH 19 0
BBX 17 27 1 0
BITMAP
F00780
F00780
F00780
F00780
F00780
F00780
F00780
F00780
F00780
F00780
F00780
F00780
700780
700780
780780
780F00
3C1F00
3FFE00
1FFC00
0FF800
01E000
01E000
01E000
01E000
01E000
01E000
01E000
ENDCHAR
STARTCHAR 005A
ENCODING 90
SWIDTH 488 0
DWIDTH 19 0
BBX 18 27 1 0
BITMAP
FFFFC0
FFFFC0
FFFF80
000780
000F00
001E00
001E00
003C00
003C00
007800
00F800
00F000
01E000
01E000
03C000
07C000
078000
0F0000
0F0000
1E0000
3E0000
3C0000
780000
780000
FFFF80
FFFF80
FFFF80
ENDCHAR
STARTCHAR 005B
ENCODING 91
SWIDTH 231 0
DWIDTH 9 0
BBX 5 37 2 -5
BITMAP
F8
F8
F8
E0
E0
E0
E0
E0
E0
E0
E0
E0
E0
E0
E0
E0
E0
E0
E0
E0
E0
E0
E0
E0
E0
E0
E0
E0
E0
E0
E0
E0
E0
E0
E0
F8
F8
ENDCHAR
STARTCHAR 005C
ENCODING 92
SWIDTH 385 0
DWIDTH 15 0
BBX 11 29 2 -1
BITMAP
E000
F000
7000
7000
7000
3800
3800
3800
3C00
1C00
1C00
1C00
0E00
0E00
0E00
0F00
0700
0700
0700
0380
0380
0380
03C0
01C0
01C0
01C0
00E0
00E0
00E0
ENDCHAR
STARTCHAR 005D
ENCODING 93
SWIDTH 231 0
DWIDTH 9 0
BBX 5 37 2 -5
BITMAP
F8
F8
F8
18
18
18
18
18
18
18
18
18
18
18
18
18
18
18
18
18
18
18
18
18
18
18
18
18
18
18
18
18
18
18
18
F8
F8
ENDCHAR
STARTCHAR 005E
ENCODING 94
SWIDTH 462 0
DWIDTH 18 0
BBX 13 9 3 14
BITMAP
0F80
1F80
1DC0
39C0
38E0
70F0
7070
E038
E038
ENDCHAR
STARTCHAR 005F
ENCODING 95
SWIDTH 514 0
DWIDTH 20 0
BBX 17 2 2 -4
BITMAP
FFFF80
FFFF80
ENDCHAR
STARTCHAR 0060
ENCODING 96
SWIDTH 154 0
DWIDTH 6 0
BBX 6 6 0 29
BITMAP
E0
70
30
38
18
0C
ENDCHAR
STARTCHAR 0061
ENCODING 97
SWIDTH 540 0
DWIDTH 21 0
BBX 19 28 2 0
BITMAP
03C000
0FF800
3FFC00
3FFE00
7C1E00
780F00
F00F00
F00F00
F00700
F00700
F00700
F00700
F00700
F00700
F00700
F00700
F00700
F00700
F00700
F00700
F00700
F00700
F00700
F00700
F00700
FFFFE0
FFFFE0
FFFFE0
ENDCHAR
STARTCHAR 0062
ENCODING 98
SWIDTH 591 0
DWIDTH 23 0
BBX 21 27 1 0
BITMAP
1FFF00
1FFFC0
1FFFE0
1E03F0
1E00F0
1E0078
1E0078
1E0078
1E0078
1E00F0
1E01F0
FFFFE0
FFFFE0
FFFFE0
FFFFF0
1E00F8
1E0078
1E0078
1E0038
1E0038
1E0038
1E0078
1E00F8
1E07F0
1FFFE0
1FFFC0
1FFF00
ENDCHAR
STARTCHAR 0063
ENCODING 99
SWIDTH 668 0
DWIDTH 26 0
BBX 25 29 1 -1
BITMAP
000FC000
00FFF800
01FFFC00
07FFFF00
0FC01F80
1F800F80
1E000300
3C000000
7C000000
78000000
78000000
70000000
F0000000
F0000000
F0000000
F0000000
F0000000
70000000
78000000
78000000
3C000000
3E000200
1F000700
1F800F80
0FE03F00
03FFFE00
01FFFC00
007FF000
00020000
ENDCHAR
STARTCHAR 0064
ENCODING 100
SWIDTH 642 0
DWIDTH 25 0
BBX 22 27 2 0
BITMAP
FFF800
FFFE00
FFFF80
F03FC0
F007E0
F001F0
F000F0
F00078
F00078
F0003C
F0003C
F0003C
F0003C
F0003C
F0003C
F0003C
F0003C
F00038
F00078
F00078
F000F0
F001F0
F007E0
F0FFC0
FFFF80
FFFE00
FFF000
ENDCHAR
STARTCHAR 0065
ENCODING 101
SWIDTH 488 0
DWIDTH 19 0
BBX 18 27 1 0
BITMAP
1FFC00
1FFC00
1FFC00
1C0000
1C0000
1C0000
1C0000
1C0000
1C0000
1C0000
1C0000
1C0000
FFFE00
FFFE00
FFFE00
1C0000
1C0000
1C0000
1C0000
1C0000
1C0000
1C0000
1C0000
1C0000
1FFFC0
1FFFC0
1FFFC0
ENDCHAR
STARTCHAR 0066
ENCODING 102
SWIDTH 437 0
DWIDTH 17 0
BBX 17 27 1 0
BITMAP
1FFF80
1FFF80
1FFF80
1E0000
1E0000
1E0000
1E0000
1E0000
1E0000
1E0000
1E0000
1E0000
FFFF00
FFFF00
FFFF00
FFFF00
1E0000
1E0000
1E0000
1E0000
1E0000
1E0000
1E0000
1E0000
1E0000
1E0000
1E0000
ENDCHAR
STARTCHAR 0067
ENCODING 103
SWIDTH 822 0
DWIDTH 32 0
BBX 31 29 1 -1
BITMAP
000FC000
00FFF800
01FFFE00
07FFFF00
0FC01F80
1F800780
1E000300
3C000000
7C000000
78000000
78000000
70000000
F0000000
F003FFFE
F003FFFE
F003FFFE
F0000078
70000070
780000F0
780000F0
3C0001F0
3E0001E0
1F0003C0
0F800FC0
0FE03F80
03FFFF00
01FFFC00
007FF000
00030000
ENDCHAR
STARTCHAR 0068
ENCODING 104
SWIDTH 540 0
DWIDTH 21 0
BBX 19 27 1 0
BITMAP
1C01E0
1C01E0
1C01E0
1C01E0
1C01E0
1C01E0
1C01E0
1C01E0
1C01E0
1C01E0
1C01E0
FFFFE0
FFFFE0
FFFFE0
1C01E0
1C01E0
1C01E0
1C01E0
1C01E0
1C01E0
1C01E0
1C01E0
1C01E0
1C01E0
1C01E0
1C01E0
1C01E0
ENDCHAR
STARTCHAR 0069
ENCODING 105
SWIDTH 180 0
DWIDTH 7 0
BBX 9 30 -1 1
BITMAP
0800
0C00
0C00
FF80
3F00
1E00
3E00
2200
0100
0000
0000
0000
0000
1E00
1E00
1E00
1E00
1E00
1E00
1E00
1E00
1E00
1E00
1E00
1E00
1E00
1E00
1E00
1E00
1E00
ENDCHAR
STARTCHAR 006A
ENCODING 106
SWIDTH 462 0
DWIDTH 18 0
BBX 16 28 0 -1
BITMAP
007F
007F
007F
000F
000F
000F
000F
000F
000F
000F
000F
000F
000F
000F
000F
000F
000F
000F
000F
000F
000F
300F
F81E
7C3E
3FFC
3FFC
0FF0
0180
ENDCHAR
STARTCHAR 006B
ENCODING 107
SWIDTH 514 0
DWIDTH 20 0
BBX 18 27 1 0
BITMAP
1C0780
1C0780
1C0780
1C0780
1C0780
1C0700
1C0700
1C0700
1C0F00
1C0F00
1C1E00
FFFE00
FFFC00
FFFF00
FFFF00
1C0F80
1C0780
1C03C0
1C03C0
1C03C0
1C03C0
1C03C0
1C03C0
1C03C0
1C03C0
1C03C0
1C03C0
ENDCHAR
STARTCHAR 006C
ENCODING 108
SWIDTH 437 0
DWIDTH 17 0
BBX 14 27 2 0
BITMAP
F000
F000
F000
F000
F000
F000
F000
F000
F000
F000
F000
F000
F000
F000
F000
F000
F000
F000
F000
F000
F000
F000
F000
F000
FFFC
FFFC
FFFC
ENDCHAR
STARTCHAR 006D
ENCODING 109
SWIDTH 848 0
DWIDTH 33 0
BBX 31 28 1 0
BITMAP
40000000
7003801E
F803C01E
FC03E01E
3E03F01E
3F83FC1E
3FC3FE1E
3FE3DF1E
3DFBCFDE
3CFFC7FE
3C3FC1FE
3C1FC0FE
3C0FC07E
3C07C03E
3C03C01E
3C03C01E
3C03C01E
3C03C01E
3C03C01E
3C03C01E
3C03C01E
3C03C01E
3C03C01E
3C03C01E
3C03C01E
3C03C01E
3C03C01E
3C03C01E
ENDCHAR
STARTCHAR 006E
ENCODING 110
SWIDTH 514 0
DWIDTH 20 0
BBX 17 28 1 0
BITMAP
400000
700380
F80380
FC0380
7F0380
7F8380
7FC380
7BE380
79FB80
78FF80
787F80
781F80
780F80
780780
780380
780380
780380
780380
780380
780380
780380
780380
780380
780380
780380
780380
780380
780380
ENDCHAR
STARTCHAR 006F
ENCODING 111
SWIDTH 797 0
DWIDTH 31 0
BBX 29 29 1 -1
BITMAP
000FC000
00FFF800
01FFFE00
07FFFF00
0FC01F80
1F8007C0
1E0003E0
3C0001F0
7C0000F0
78000078
78000078
70000078
F0000038
F0000038
F0000038
F0000038
F0000038
70000078
78000078
78000078
3C0000F0
3E0001F0
1F0003E0
0F8007C0
0FE01F80
03FFFF00
01FFFE00
007FF800
00030000
ENDCHAR
STARTCHAR 0070
ENCODING 112
SWIDTH 540 0
DWIDTH 21 0
BBX 20 27 1 0
BITMAP
3FFE00
3FFF80
3FFFC0
3C07E0
3C01E0
3C00F0
3C00F0
3C00F0
3C00F0
3C00F0
3C00F0
3C01E0
3C03E0
FFFFC0
FFFF80
FFFE00
FFE000
3C0000
3C0000
3C0000
3C0000
3C0000
3C0000
3C0000
3C0000
3C0000
3C0000
ENDCHAR
STARTCHAR 0071
ENCODING 113
SWIDTH 797 0
DWIDTH 31 0
BBX 29 29 1 -1
BITMAP
000FC000
00FFF800
01FFFE00
07FFFF00
0FC01F80
1F8007C0
1E0003E0
3C0001F0
7C0000F0
78000078
78000078
70000078
F0000038
F0000038
F0000038
F0000038
F0000038
70000078
78000078
78000878
3C001CF0
3E003FF0
1F001FE0
0F800FC0
0FE01FC0
03FFFFE0
01FFFFF0
007FF8E0
00030040
ENDCHAR
STARTCHAR 0072
ENCODING 114
SWIDTH 565 0
DWIDTH 22 0
BBX 21 27 1 0
BITMAP
1FFE00
1FFF80
1FFFE0
1C07E0
1C01F0
1C00F0
1C0070
1C0078
1C0070
1C0070
1C00F0
1C01F0
1C07E0
FFFFC0
FFFF80
FFFF80
1C0F80
1C03C0
1C01E0
1C01E0
1C01E0
1C00E0
1C00E0
1C00E0
1C00E0
1C00E0
1C00E0
ENDCHAR
STARTCHAR 0073
ENCODING 115
SWIDTH 488 0
DWIDTH 19 0
BBX 17 29 1 -1
BITMAP
03E000
0FF800
1FFC00
3FFE00
3C1F00
780F00
780700
780600
780000
3C0000
3E0000
1F8000
0FE000
03F000
01FC00
007E00
003F00
000F00
000780
000780
100780
F00780
F00780
780780
7C1F00
3FFF00
1FFE00
0FF800
00C000
ENDCHAR
STARTCHAR 0074
ENCODING 116
SWIDTH 488 0
DWIDTH 19 0
BBX 18 27 1 0
BITMAP
FFFFC0
FFFFC0
FFFFC0
01E000
01E000
01E000
01E000
01E000
01E000
01E000
01E000
01E000
01E000
01E000
01E000
01E000
01E000
01E000
01E000
01E000
01E000
01E000
01E000
01E000
01E000
01E000
01E000
ENDCHAR
STARTCHAR 0075
ENCODING 117
SWIDTH 488 0
DWIDTH 19 0
BBX 16 28 2 -1
BITMAP
E00F
E00F
E00F
E00F
E00F
E00F
E00F
E00F
E00F
E00F
E00F
E00F
E00F
E00F
E00F
E00F
E00F
E00F
E00F
E00F
F00F
F00F
F01E
7C3E
7FFC
3FF8
0FF0
0180
ENDCHAR
STARTCHAR 0076
ENCODING 118
SWIDTH 462 0
DWIDTH 18 0
BBX 16 27 0 0
BITMAP
F007
F007
F007
F007
F007
F007
F007
F007
F007
F007
F007
F007
F007
F00F
700F
700F
700F
780F
780F
781E
3C1E
3C1E
1E3C
1E78
0F78
07F0
03E0
ENDCHAR
STARTCHAR 0077
ENCODING 119
SWIDTH 771 0
DWIDTH 30 0
BBX 29 27 0 0
BITMAP
F0070078
F0070078
F0070078
F0070078
F0070078
F0070078
F0070078
F0070078
F0070078
F0070078
F0070078
F0070070
F0070070
F00F0070
700F0070
700F8070
700F80F0
780F80F0
780F80F0
781F80E0
3C1FC1E0
3C1FC1E0
1E3DE3C0
1E79F3C0
0F78F780
07F07F00
03E03E00
ENDCHAR
STARTCHAR 0078
ENCODING 120
SWIDTH 514 0
DWIDTH 20 0
BBX 16 27 2 0
BITMAP
F007
F007
F007
F007
F007
F007
F00F
F00F
781F
7C3E
3FFC
1FF8
3FFC
7F7E
781E
F00F
F00F
F00F
F007
F007
F007
F007
F007
F007
F007
F007
F007
ENDCHAR
STARTCHAR 0079
ENCODING 121
SWIDTH 488 0
DWIDTH 19 0
BBX 17 27 1 0
BITMAP
F00780
F00780
F00780
F00780
F00780
F00780
F00780
F00780
F00780
F00780
F00780
F00780
700780
700780
780780
780F00
3C1F00
3FFE00
1FFC00
0FF800
01E000
01E000
01E000
01E000
01E000
01E000
01E000
ENDCHAR
STARTCHAR 007A
ENCODING 122
SWIDTH 488 0
DWIDTH 19 0
BBX 18 27 1 0
BITMAP
FFFFC0
FFFFC0
FFFF80
000780
000F00
001E00
001E00
003C00
003C00
007800
00F800
00F000
01E000
01E000
03C000
07C000
078000
0F0000
0F0000
1E0000
3E0000
3C0000
780000
780000
FFFF80
FFFF80
FFFF80
ENDCHAR
STARTCHAR 007B
ENCODING 123
SWIDTH 334 0
DWIDTH 13 0
BBX 9 38 2 -6
BITMAP
0380
0F80
0F80
1C00
1C00
1C00
1C00
1C00
1C00
1C00
1C00
1C00
1C00
1C00
1C00
1C00
3800
F800
F000
F000
F800
3800
1C00
1C00
1C00
1C00
1C00
1C00
1C00
1C00
1C00
1C00
1C00
1C00
1C00
0F80
0F80
0180
ENDCHAR
STARTCHAR 007C
ENCODING 124
SWIDTH 154 0
DWIDTH 6 0
BBX 2 31 2 -4
BITMAP
C0
C0
C0
C0
C0
C0
C0
C0
C0
C0
C0
C0
C0
C0
C0
C0
C0
C0
C0
C0
C0
C0
C0
C0
C0
C0
C0
C0
C0
C0
C0
ENDCHAR
STARTCHAR 007D
ENCODING 125
SWIDTH 334 0
DWIDTH 13 0
BBX 9 38 2 -6
BITMAP
E000
F800
FC00
1C00
1C00
1C00
1C00
1C00
1C00
1C00
1C00
1C00
1C00
1C00
1C00
0E00
0E00
0F80
0780
0780
0F80
0E00
0E00
1C00
1C00
1C00
1C00
1C00
1C00
1C00
1C00
1C00
1C00
1C00
1C00
FC00
F800
C000
ENDCHAR
STARTCHAR 007E
ENCODING 126
SWIDTH 540 0
DWIDTH 21 0
BBX 17 5 2 10
BITMAP
7C0000
FFE180
FFFF80
83FF80
001E00
ENDCHAR
STARTCHAR 00A1
ENCODING 161
SWIDTH 231 0
DWIDTH 9 0
BBX 6 27 2 -4
BITMAP
78
FC
FC
FC
78
00
00
00
00
00
78
78
78
78
78
78
78
78
78
78
78
78
78
78
78
78
78
ENDCHAR
STARTCHAR 00A2
ENCODING 162
SWIDTH 514 0
DWIDTH 20 0
BBX 16 24 2 2
BITMAP
01C0
01C0
01C0
03F0
0FFC
1FFF
3ECF
78C6
70C0
F0C0
E0C0
E0C0
E0C0
E0C0
E0C0
70C0
70C0
38C6
3EDF
1FFE
07FC
01E0
01C0
01C0
ENDCHAR
STARTCHAR 00A3
ENCODING 163
SWIDTH 540 0
DWIDTH 21 0
BBX 17 28 2 0
BITMAP
003C00
01FF80
07FF80
0FFF80
1F8080
1F0000
1E0000
3C0000
3C0000
3C0000
3C0000
1E0000
1E0000
FFFE00
FFFE00
FFFE00
070000
078000
078000
078000
078000
078000
078000
0F0000
FE0000
FFFF80
FFFF80
FFFF80
ENDCHAR
STARTCHAR 00A4
ENCODING 164
SWIDTH 565 0
DWIDTH 22 0
BBX 18 18 2 3
BITMAP
000080
6001C0
F3FBC0
7FFF80
3F1F00
3C0700
380300
700380
700380
700380
700380
700380
380380
3C0700
3E1F00
7FFF80
F7FBC0
600180
ENDCHAR
STARTCHAR 00A5
ENCODING 165
SWIDTH 617 0
DWIDTH 24 0
BBX 20 27 2 0
BITMAP
F800F0
7800F0
7C01E0
3C01E0
3E03C0
1E03C0
0F0780
0F0780
078F00
078F00
03DE00
03DE00
01FC00
01FC00
1FFFC0
1FFFC0
007000
007000
007000
1FFFC0
1FFFC0
007000
007000
007000
007000
007000
007000
ENDCHAR
STARTCHAR 00A6
ENCODING 166
SWIDTH 154 0
DWIDTH 6 0
BBX 2 31 2 -4
BITMAP
C0
C0
C0
C0
C0
C0
C0
C0
C0
C0
C0
00
00
00
00
00
00
00
00
C0
C0
C0
C0
C0
C0
C0
C0
C0
C0
C0
C0
ENDCHAR
STARTCHAR 00A7
ENCODING 167
SWIDTH 462 0
DWIDTH 18 0
BBX 14 32 2 -4
BITMAP
0300
1FE0
3FF0
3FF8
783C
783C
7818
3800
3E00
1F00
0FC0
0FE0
3FF8
7CF8
703C
F01C
F01C
F01C
783C
7FF8
3FF0
0FC0
07E0
01F0
0078
0078
7038
7038
7878
3FF8
3FF0
0FE0
ENDCHAR
STARTCHAR 00A8
ENCODING 168
SWIDTH 360 0
DWIDTH 14 0
BBX 15 6 0 29
BITMAP
3018
787C
FC7C
FC7E
7C7C
3838
ENDCHAR
STARTCHAR 00A9
ENCODING 169
SWIDTH 822 0
DWIDTH 32 0
BBX 29 29 2 -1
BITMAP
001FC000
00FFF800
03F07E00
07800F00
0E000380
1C0001C0
380000E0
301FC060
703FE070
607DF030
60E02030
E0C00038
C1C00018
C1C00018
C1C00018
C1C00018
C1C00018
E0E00038
60F06030
607FF030
703FE070
300F8060
380000E0
1C0001C0
0E000380
07800F00
01F9FC00
007FF000
00070000
ENDCHAR
STARTCHAR 00AB
ENCODING 171
SWIDTH 540 0
DWIDTH 21 0
BBX 17 17 2 3
BITMAP
03C780
078F00
0F0E00
0E1C00
1C3C00
3C7800
787000
70E000
F0E000
78F000
3C7800
1C3C00
0E1C00
0F0E00
078F00
038780
01C380
ENDCHAR
STARTCHAR 00AC
ENCODING 172
SWIDTH 540 0
DWIDTH 21 0
BBX 18 10 2 4
BITMAP
FFFFC0
FFFFC0
FFFFC0
0001C0
0001C0
0001C0
0001C0
0001C0
0001C0
0001C0
ENDCHAR
STARTCHAR 00AE
ENCODING 174
SWIDTH 488 0
DWIDTH 19 0
BBX 15 15 2 13
BITMAP
07E0
1EF0
301C
678C
47E6
C666
C662
CFC2
C6C2
C662
4666
600C
301C
1E78
07E0
ENDCHAR
STARTCHAR 00AF
ENCODING 175
SWIDTH 257 0
DWIDTH 10 0
BBX 11 3 0 31
BITMAP
FFE0
FFE0
FFE0
ENDCHAR
STARTCHAR 00B0
ENCODING 176
SWIDTH 334 0
DWIDTH 13 0
BBX 9 9 2 19
BITMAP
0800
7F00
6300
C180
C180
C180
E380
7F00
3E00
ENDCHAR
STARTCHAR 00B1
ENCODING 177
SWIDTH 540 0
DWIDTH 21 0
BBX 18 16 2 4
BITMAP
01C000
01C000
01C000
01C000
FFFFC0
FFFFC0
FFFFC0
01C000
01C000
01C000
01C000
000000
000000
FFFFC0
FFFFC0
FFFFC0
ENDCHAR
STARTCHAR 00B4
ENCODING 180
SWIDTH 154 0
DWIDTH 6 0
BBX 6 6 0 29
BITMAP
1C
38
30
70
60
C0
ENDCHAR
STARTCHAR 00B6
ENCODING 182
SWIDTH 462 0
DWIDTH 18 0
BBX 15 31 2 -4
BITMAP
0FCE
1FCE
3FCE
7FCE
7FCE
FFCE
FFCE
FFCE
FFCE
FFCE
7FCE
7FCE
3FCE
0FCE
03CE
00CE
00CE
00CE
00CE
00CE
00CE
00CE
00CE
00CE
00CE
00CE
00CE
00CE
00CE
00CE
00CE
ENDCHAR
STARTCHAR 00B7
ENCODING 183
SWIDTH 231 0
DWIDTH 9 0
BBX 6 6 2 7
BITMAP
78
F8
FC
FC
78
30
ENDCHAR
STARTCHAR 00B8
ENCODING 184
SWIDTH 205 0
DWIDTH 8 0
BBX 8 8 0 -8
BITMAP
0C
0C
0F
03
43
C3
7F
3E
ENDCHAR
STARTCHAR 00BB
ENCODING 187
SWIDTH 540 0
DWIDTH 21 0
BBX 17 17 2 3
BITMAP
70F000
387000
3C3800
1E3C00
0E1E00
070E00
078700
03C780
03C380
038700
070F00
0F1E00
1E1C00
3C3800
387000
70F000
F1E000
ENDCHAR
STARTCHAR 00BF
ENCODING 191
SWIDTH 411 0
DWIDTH 16 0
BBX 12 28 2 -4
BITMAP
0300
0780
0FC0
0FC0
07C0
0780
0000
0000
0000
0780
0780
0780
0700
0700
0F00
0E00
1E00
3C00
3800
7800
F000
F000
F020
F070
F0F0
7FF0
7FE0
1FC0
ENDCHAR
STARTCHAR 00C0
ENCODING 192
SWIDTH 540 0
DWIDTH 21 0
BBX 19 35 2 0
BITMAP
0E0000
070000
030000
038000
018000
00C000
000000
03C000
0FF800
3FFC00
3FFE00
7C1E00
780F00
F00F00
F00F00
F00700
F00700
F00700
F00700
F00700
F00700
F00700
F00700
F00700
F00700
F00700
F00700
F00700
F00700
F00700
F00700
F00700
FFFFE0
FFFFE0
FFFFE0
ENDCHAR
STARTCHAR 00C1
ENCODING 193
SWIDTH 540 0
DWIDTH 21 0
BBX 19 35 2 0
BITMAP
007000
007000
00E000
01C000
018000
038000
000000
03C000
0FF800
3FFC00
3FFE00
7C1E00
780F00
F00F00
F00F00
F00700
F00700
F00700
F00700
F00700
F00700
F00700
F00700
F00700
F00700
F00700
F00700
F00700
F00700
F00700
F00700
F00700
FFFFE0
FFFFE0
FFFFE0
ENDCHAR
STARTCHAR 00C2
ENCODING 194
SWIDTH 540 0
DWIDTH 21 0
BBX 19 35 2 0
BITMAP
03C000
07E000
077000
0E7800
1C3800
000400
000000
03C000
0FF800
3FFC00
3FFE00
7C1E00
780F00
F00F00
F00F00
F00700
F00700
F00700
F00700
F00700
F00700
F00700
F00700
F00700
F00700
F00700
F00700
F00700
F00700
F00700
F00700
F00700
FFFFE0
FFFFE0
FFFFE0
ENDCHAR
STARTCHAR 00C3
ENCODING 195
SWIDTH 540 0
DWIDTH 21 0
BBX 19 34 2 0
BITMAP
1FF000
1FF000
00F000
000000
000000
000000
03C000
0FF800
3FFC00
3FFE00
7C1E00
780F00
F00F00
F00F00
F00700
F00700
F00700
F00700
F00700
F00700
F00700
F00700
F00700
F00700
F00700
F00700
F00700
F00700
F00700
F00700
F00700
FFFFE0
FFFFE0
FFFFE0
ENDCHAR
STARTCHAR 00C4
ENCODING 196
SWIDTH 540 0
DWIDTH 21 0
BBX 19 35 2 0
BITMAP
181C00
3C3E00
7E3E00
7E3F00
3E3E00
1C1C00
000000
03C000
0FF800
3FFC00
3FFE00
7C1E00
780F00
F00F00
F00F00
F00700
F00700
F00700
F00700
F00700
F00700
F00700
F00700
F00700
F00700
F00700
F00700
F00700
F00700
F00700
F00700
F00700
FFFFE0
FFFFE0
FFFFE0
ENDCHAR
STARTCHAR 00C5
ENCODING 197
SWIDTH 540 0
DWIDTH 21 0
BBX 19 37 2 0
BITMAP
03E000
07E000
0C3000
0C3000
0C3000
077000
03E000
000000
000000
03C000
0FF800
3FFC00
3FFE00
7C1E00
780F00
F00F00
F00F00
F00700
F00700
F00700
F00700
F00700
F00700
F00700
F00700
F00700
F00700
F00700
F00700
F00700
F00700
F00700
F00700
F00700
FFFFE0
FFFFE0
FFFFE0
ENDCHAR
STARTCHAR 00C7
ENCODING 199
SWIDTH 668 0
DWIDTH 26 0
BBX 25 36 1 -8
BITMAP
000FC000
00FFF800
01FFFC00
07FFFF00
0FC01F80
1F800F80
1E000300
3C000000
7C000000
78000000
78000000
70000000
F0000000
F0000000
F0000000
F0000000
F0000000
70000000
78000000
78000000
3C000000
3E000200
1F000700
1F800F80
0FE03F00
03FFFE00
01FFFC00
007FF000
00060000
000E0000
000F0000
00018000
00018000
00618000
007F8000
003F0000
ENDCHAR
STARTCHAR 00C8
ENCODING 200
SWIDTH 488 0
DWIDTH 19 0
BBX 18 35 1 0
BITMAP
0E0000
070000
070000
038000
018000
00C000
000000
000000
1FFC00
1FFC00
1FFC00
1C0000
1C0000
1C0000
1C0000
1C0000
1C0000
1C0000
1C0000
1C0000
FFFE00
FFFE00
FFFE00
1C0000
1C0000
1C0000
1C0000
1C0000
1C0000
1C0000
1C0000
1C0000
1FFFC0
1FFFC0
1FFFC0
ENDCHAR
STARTCHAR 00C9
ENCODING 201
SWIDTH 488 0
DWIDTH 19 0
BBX 18 35 1 0
BITMAP
007000
006000
00E000
01C000
018000
030000
000000
000000
1FFC00
1FFC00
1FFC00
1C0000
1C0000
1C0000
1C0000
1C0000
1C0000
1C0000
1C0000
1C0000
FFFE00
FFFE00
FFFE00
1C0000
1C0000
1C0000
1C0000
1C0000
1C0000
1C0000
1C0000
1C0000
1FFFC0
1FFFC0
1FFFC0
ENDCHAR
STARTCHAR 00CA
ENCODING 202
SWIDTH 488 0
DWIDTH 19 0
BBX 18 35 1 0
BITMAP
03C000
07E000
0FF000
0E7800
1C3800
000400
000000
000000
1FFC00
1FFC00
1FFC00
1C0000
1C0000
1C0000
1C0000
1C0000
1C0000
1C0000
1C0000
1C0000
FFFE00
FFFE00
FFFE00
1C0000
1C0000
1C0000
1C0000
1C0000
1C0000
1C0000
1C0000
1C0000
1FFFC0
1FFFC0
1FFFC0
ENDCHAR
STARTCHAR 00CB
ENCODING 203
SWIDTH 488 0
DWIDTH 19 0
BBX 18 35 1 0
BITMAP
181C00
3C3E00
7E3E00
7E3E00
7C3E00
3C1C00
000000
000000
1FFC00
1FFC00
1FFC00
1C0000
1C0000
1C0000
1C0000
1C0000
1C0000
1C0000
1C0000
1C0000
FFFE00
FFFE00
FFFE00
1C0000
1C0000
1C0000
1C0000
1C0000
1C0000
1C0000
1C0000
1C0000
1FFFC0
1FFFC0
1FFFC0
ENDCHAR
STARTCHAR 00CC
ENCODING 204
SWIDTH 180 0
DWIDTH 7 0
BBX 6 24 0 0
BITMAP
E0
70
30
38
18
00
00
3C
3C
3C
3C
3C
3C
3C
3C
3C
3C
3C
3C
3C
3C
3C
3C
3C
ENDCHAR
STARTCHAR 00CD
ENCODING 205
SWIDTH 180 0
DWIDTH 7 0
BBX 6 24 2 0
BITMAP
1C
38
70
60
E0
00
00
F0
F0
F0
F0
F0
F0
F0
F0
F0
F0
F0
F0
F0
F0
F0
F0
F0
ENDCHAR
STARTCHAR 00CE
ENCODING 206
SWIDTH 180 0
DWIDTH 7 0
BBX 11 24 -2 0
BITMAP
1F00
1F80
39C0
70E0
E0E0
0000
0000
0F00
0F00
0F00
0F00
0F00
0F00
0F00
0F00
0F00
0F00
0F00
0F00
0F00
0F00
0F00
0F00
0F00
ENDCHAR
STARTCHAR 00CF
ENCODING 207
SWIDTH 180 0
DWIDTH 7 0
BBX 14 24 -3 0
BITMAP
7878
F87C
FC7C
FC7C
787C
0000
0000
0780
0780
0780
0780
0780
0780
0780
0780
0780
0780
0780
0780
0780
0780
0780
0780
0780
ENDCHAR
STARTCHAR 00D1
ENCODING 209
SWIDTH 514 0
DWIDTH 20 0
BBX 17 34 1 0
BITMAP
0FF800
0FF800
007800
000000
000000
000000
400000
700380
F80380
FC0380
7F0380
7F8380
7FC380
7BE380
79FB80
78FF80
787F80
781F80
780F80
780780
780380
780380
780380
780380
780380
780380
780380
780380
780380
780380
780380
780380
780380
780380
ENDCHAR
STARTCHAR 00D2
ENCODING 210
SWIDTH 797 0
DWIDTH 31 0
BBX 29 36 1 -1
BITMAP
001C0000
001C0000
000E0000
00070000
00030000
00038000
00000000
000FC000
00FFF800
01FFFE00
07FFFF00
0FC01F80
1F8007C0
1E0003E0
3C0001F0
7C0000F0
78000078
78000078
70000078
F0000038
F0000038
F0000038
F0000038
F0000038
70000078
78000078
78000078
3C0000F0
3E0001F0
1F0003E0
0F8007C0
0FE01F80
03FFFF00
01FFFE00
007FF800
00030000
ENDCHAR
STARTCHAR 00D3
ENCODING 211
SWIDTH 797 0
DWIDTH 31 0
BBX 29 36 1 -1
BITMAP
0000E000
0001C000
00018000
00038000
00030000
00060000
00000000
000FC000
00FFF800
01FFFE00
07FFFF00
0FC01F80
1F8007C0
1E0003E0
3C0001F0
7C0000F0
78000078
78000078
70000078
F0000038
F0000038
F0000038
F0000038
F0000038
70000078
78000078
78000078
3C0000F0
3E0001F0
1F0003E0
0F8007C0
0FE01F80
03FFFF00
01FFFE00
007FF800
00030000
ENDCHAR
STARTCHAR 00D4
ENCODING 212
SWIDTH 797 0
DWIDTH 31 0
BBX 29 36 1 -1
BITMAP
00078000
000FC000
001DE000
003CE000
00387000
00400000
00000000
000FC000
00FFF800
01FFFE00
07FFFF00
0FC01F80
1F8007C0
1E0003E0
3C0001F0
7C0000F0
78000078
78000078
70000078
F0000038
F0000038
F0000038
F0000038
F0000038
70000078
78000078
78000078
3C0000F0
3E0001F0
1F0003E0
0F8007C0
0FE01F80
03FFFF00
01FFFE00
007FF800
00030000
ENDCHAR
STARTCHAR 00D5
ENCODING 213
SWIDTH 797 0
DWIDTH 31 0
BBX 29 35 1 -1
BITMAP
003F6000
003FE000
0001C000
00000000
00000000
00000000
000FC000
00FFF800
01FFFE00
07FFFF00
0FC01F80
1F8007C0
1E0003E0
3C0001F0
7C0000F0
78000078
78000078
70000078
F0000038
F0000038
F0000038
F0000038
F0000038
70000078
78000078
78000078
3C0000F0
3E0001F0
1F0003E0
0F8007C0
0FE01F80
03FFFF00
01FFFE00
007FF800
00030000
ENDCHAR
STARTCHAR 00D6
ENCODING 214
SWIDTH 797 0
DWIDTH 31 0
BBX 29 36 1 -1
BITMAP
00303800
00F87C00
00FC7C00
00FC7C00
00F87C00
00703800
00000000
000FC000
00FFF800
01FFFE00
07FFFF00
0FC01F80
1F8007C0
1E0003E0
3C0001F0
7C0000F0
78000078
78000078
70000078
F0000038
F0000038
F0000038
F0000038
F0000038
70000078
78000078
78000078
3C0000F0
3E0001F0
1F0003E0
0F8007C0
0FE01F80
03FFFF00
01FFFE00
007FF800
00030000
ENDCHAR
STARTCHAR 00D7
ENCODING 215
SWIDTH 514 0
DWIDTH 20 0
BBX 16 16 2 5
BITMAP
2002
7007
F80F
7C1E
3E3C
1F78
0FF0
07E0
03E0
07F0
0FF8
1E7C
3C3E
781F
700F
2006
ENDCHAR
STARTCHAR 00D8
ENCODING 216
SWIDTH 771 0
DWIDTH 30 0
BBX 29 30 1 -1
BITMAP
00000040
001F8060
00FFF8E0
03FFFFC0
07FFFFC0
0FC01F80
1F000FC0
3E001FE0
3C003DE0
780038F0
780070F0
F000E078
F001E078
F003C078
F0078078
F00F0078
F00E0078
F01C0078
F0380078
F0780070
78F000F0
79E001F0
3FC001E0
3F8003E0
1F800FC0
0FE03F80
1FFFFF00
3DFFFC00
787FF000
30060000
ENDCHAR
STARTCHAR 00D9
ENCODING 217
SWIDTH 488 0
DWIDTH 19 0
BBX 16 36 2 -1
BITMAP
0E00
0E00
0700
0380
0180
01C0
0000
0000
E00F
E00F
E00F
E00F
E00F
E00F
E00F
E00F
E00F
E00F
E00F
E00F
E00F
E00F
E00F
E00F
E00F
E00F
E00F
E00F
F00F
F00F
F01E
7C3E
7FFC
3FF8
0FF0
0180
ENDCHAR
STARTCHAR 00DA
ENCODING 218
SWIDTH 488 0
DWIDTH 19 0
BBX 16 36 2 -1
BITMAP
0070
00E0
00E0
01C0
0180
0300
0000
0000
E00F
E00F
E00F
E00F
E00F
E00F
E00F
E00F
E00F
E00F
E00F
E00F
E00F
E00F
E00F
E00F
E00F
E00F
E00F
E00F
F00F
F00F
F01E
7C3E
7FFC
3FF8
0FF0
0180
ENDCHAR
STARTCHAR 00DB
ENCODING 219
SWIDTH 488 0
DWIDTH 19 0
BBX 16 36 2 -1
BITMAP
03C0
07E0
0EF0
1E70
1C38
2000
0000
0000
E00F
E00F
E00F
E00F
E00F
E00F
E00F
E00F
E00F
E00F
E00F
E00F
E00F
E00F
E00F
E00F
E00F
E00F
E00F
E00F
F00F
F00F
F01E
7C3E
7FFC
3FF8
0FF0
0180
ENDCHAR
STARTCHAR 00DC
ENCODING 220
SWIDTH 488 0
DWIDTH 19 0
BBX 16 36 2 -1
BITMAP
181C
7C3E
7E3E
7E3E
7C3E
381C
0000
0000
E00F
E00F
E00F
E00F
E00F
E00F
E00F
E00F
E00F
E00F
E00F
E00F
E00F
E00F
E00F
E00F
E00F
E00F
E00F
E00F
F00F
F00F
F01E
7C3E
7FFC
3FF8
0FF0
0180
ENDCHAR
STARTCHAR 00DD
ENCODING 221
SWIDTH 488 0
DWIDTH 19 0
BBX 17 35 1 0
BITMAP
003800
007000
006000
00E000
01C000
018000
000000
000000
F00780
F00780
F00780
F00780
F00780
F00780
F00780
F00780
F00780
F00780
F00780
F00780
700780
700780
780780
780F00
3C1F00
3FFE00
1FFC00
0FF800
01E000
01E000
01E000
01E000
01E000
01E000
01E000
ENDCHAR
STARTCHAR 00E0
ENCODING 224
SWIDTH 540 0
DWIDTH 21 0
BBX 19 35 2 0
BITMAP
0E0000
070000
030000
038000
018000
00C000
000000
03C000
0FF800
3FFC00
3FFE00
7C1E00
780F00
F00F00
F00F00
F00700
F00700
F00700
F00700
F00700
F00700
F00700
F00700
F00700
F00700
F00700
F00700
F00700
F00700
F00700
F00700
F00700
FFFFE0
FFFFE0
FFFFE0
ENDCHAR
STARTCHAR 00E1
ENCODING 225
SWIDTH 540 0
DWIDTH 21 0
BBX 19 35 2 0
BITMAP
007000
007000
00E000
01C000
018000
038000
000000
03C000
0FF800
3FFC00
3FFE00
7C1E00
780F00
F00F00
F00F00
F00700
F00700
F00700
F00700
F00700
F00700
F00700
F00700
F00700
F00700
F00700
F00700
F00700
F00700
F00700
F00700
F00700
FFFFE0
FFFFE0
FFFFE0
ENDCHAR
STARTCHAR 00E2
ENCODING 226
SWIDTH 540 0
DWIDTH 21 0
BBX 19 35 2 0
BITMAP
03C000
07E000
077000
0E7800
1C3800
000400
000000
03C000
0FF800
3FFC00
3FFE00
7C1E00
780F00
F00F00
F00F00
F00700
F00700
F00700
F00700
F00700
F00700
F00700
F00700
F00700
F00700
F00700
F00700
F00700
F00700
F00700
F00700
F00700
FFFFE0
FFFFE0
FFFFE0
ENDCHAR
STARTCHAR 00E3
ENCODING 227
SWIDTH 540 0
DWIDTH 21 0
BBX 19 34 2 0
BITMAP
1FF000
1FF000
00F000
000000
000000
000000
03C000
0FF800
3FFC00
3FFE00
7C1E00
780F00
F00F00
F00F00
F00700
F00700
F00700
F00700
F00700
F00700
F00700
F00700
F00700
F00700
F00700
F00700
F00700
F00700
F00700
F00700
F00700
FFFFE0
FFFFE0
FFFFE0
ENDCHAR
STARTCHAR 00E4
ENCODING 228
SWIDTH 540 0
DWIDTH 21 0
BBX 19 35 2 0
BITMAP
181C00
3C3E00
7E3E00
7E3F00
3E3E00
1C1C00
000000
03C000
0FF800
3FFC00
3FFE00
7C1E00
780F00
F00F00
F00F00
F00700
F00700
F00700
F00700
F00700
F00700
F00700
F00700
F00700
F00700
F00700
F00700
F00700
F00700
F00700
F00700
F00700
FFFFE0
FFFFE0
FFFFE0
ENDCHAR
STARTCHAR 00E5
ENCODING 229
SWIDTH 540 0
DWIDTH 21 0
BBX 19 37 2 0
BITMAP
03E000
07E000
0C3000
0C3000
0C3000
077000
03E000
000000
000000
03C000
0FF800
3FFC00
3FFE00
7C1E00
780F00
F00F00
F00F00
F00700
F00700
F00700
F00700
F00700
F00700
F00700
F00700
F00700
F00700
F00700
F00700
F00700
F00700
F00700
F00700
F00700
FFFFE0
FFFFE0
FFFFE0
ENDCHAR
STARTCHAR 00E7
ENCODING 231
SWIDTH 668 0
DWIDTH 26 0
BBX 25 36 1 -8
BITMAP
000FC000
00FFF800
01FFFC00
07FFFF00
0FC01F80
1F800F80
1E000300
3C000000
7C000000
78000000
78000000
70000000
F0000000
F0000000
F0000000
F0000000
F0000000
70000000
78000000
78000000
3C000000
3E000200
1F000700
1F800F80
0FE03F00
03FFFE00
01FFFC00
007FF000
00060000
000E0000
000F0000
00018000
00018000
00618000
007F8000
003F0000
ENDCHAR
STARTCHAR 00E8
ENCODING 232
SWIDTH 488 0
DWIDTH 19 0
BBX 18 35 1 0
BITMAP
0E0000
070000
070000
038000
018000
00C000
000000
000000
1FFC00
1FFC00
1FFC00
1C0000
1C0000
1C0000
1C0000
1C0000
1C0000
1C0000
1C0000
1C0000
FFFE00
FFFE00
FFFE00
1C0000
1C0000
1C0000
1C0000
1C0000
1C0000
1C0000
1C0000
1C0000
1FFFC0
1FFFC0
1FFFC0
ENDCHAR
STARTCHAR 00E9
ENCODING 233
SWIDTH 488 0
DWIDTH 19 0
BBX 18 35 1 0
BITMAP
007000
006000
00E000
01C000
018000
030000
000000
000000
1FFC00
1FFC00
1FFC00
1C0000
1C0000
1C0000
1C0000
1C0000
1C0000
1C0000
1C0000
1C0000
FFFE00
FFFE00
FFFE00
1C0000
1C0000
1C0000
1C0000
1C0000
1C0000
1C0000
1C0000
1C0000
1FFFC0
1FFFC0
1FFFC0
ENDCHAR
STARTCHAR 00EA
ENCODING 234
SWIDTH 488 0
DWIDTH 19 0
BBX 18 35 1 0
BITMAP
03C000
07E000
0FF000
0E7800
1C3800
000400
000000
000000
1FFC00
1FFC00
1FFC00
1C0000
1C0000
1C0000
1C0000
1C0000
1C0000
1C0000
1C0000
1C0000
FFFE00
FFFE00
FFFE00
1C0000
1C0000
1C0000
1C0000
1C0000
1C0000
1C0000
1C0000
1C0000
1FFFC0
1FFFC0
1FFFC0
ENDCHAR
STARTCHAR 00EB
ENCODING 235
SWIDTH 488 0
DWIDTH 19 0
BBX 18 35 1 0
BITMAP
181C00
3C3E00
7E3E00
7E3E00
7C3E00
3C1C00
000000
000000
1FFC00
1FFC00
1FFC00
1C0000
1C0000
1C0000
1C0000
1C0000
1C0000
1C0000
1C0000
1C0000
FFFE00
FFFE00
FFFE00
1C0000
1C0000
1C0000
1C0000
1C0000
1C0000
1C0000
1C0000
1C0000
1FFFC0
1FFFC0
1FFFC0
ENDCHAR
STARTCHAR 00EC
ENCODING 236
SWIDTH 180 0
DWIDTH 7 0
BBX 6 24 0 0
BITMAP
E0
70
30
38
18
00
00
3C
3C
3C
3C
3C
3C
3C
3C
3C
3C
3C
3C
3C
3C
3C
3C
3C
ENDCHAR
STARTCHAR 00ED
ENCODING 237
SWIDTH 180 0
DWIDTH 7 0
BBX 6 24 2 0
BITMAP
1C
38
70
60
E0
00
00
F0
F0
F0
F0
F0
F0
F0
F0
F0
F0
F0
F0
F0
F0
F0
F0
F0
ENDCHAR
STARTCHAR 00EE
ENCODING 238
SWIDTH 180 0
DWIDTH 7 0
BBX 11 24 -2 0
BITMAP
1F00
1F80
39C0
70E0
E0E0
0000
0000
0F00
0F00
0F00
0F00
0F00
0F00
0F00
0F00
0F00
0F00
0F00
0F00
0F00
0F00
0F00
0F00
0F00
ENDCHAR
STARTCHAR 00EF
ENCODING 239
SWIDTH 180 0
DWIDTH 7 0
BBX 14 24 -3 0
BITMAP
7878
F87C
FC7C
FC7C
787C
0000
0000
0780
0780
0780
0780
0780
0780
0780
0780
0780
0780
0780
0780
0780
0780
0780
0780
0780
ENDCHAR
STARTCHAR 00F1
ENCODING 241
SWIDTH 514 0
DWIDTH 20 0
BBX 17 34 1 0
BITMAP
0FF800
0FF800
007800
000000
000000
000000
400000
700380
F80380
FC0380
7F0380
7F8380
7FC380
7BE380
79FB80
78FF80
787F80
781F80
780F80
780780
780380
780380
780380
780380
780380
780380
780380
780380
780380
780380
780380
780380
780380
780380
ENDCHAR
STARTCHAR 00F2
ENCODING 242
SWIDTH 797 0
DWIDTH 31 0
BBX 29 36 1 -1
BITMAP
001C0000
001C0000
000E0000
00070000
00030000
00038000
00000000
000FC000
00FFF800
01FFFE00
07FFFF00
0FC01F80
1F8007C0
1E0003E0
3C0001F0
7C0000F0
78000078
78000078
70000078
F0000038
F0000038
F0000038
F0000038
F0000038
70000078
78000078
78000078
3C0000F0
3E0001F0
1F0003E0
0F8007C0
0FE01F80
03FFFF00
01FFFE00
007FF800
00030000
ENDCHAR
STARTCHAR 00F3
ENCODING 243
SWIDTH 797 0
DWIDTH 31 0
BBX 29 36 1 -1
BITMAP
0000E000
0001C000
00018000
00038000
00030000
00060000
00000000
000FC000
00FFF800
01FFFE00
07FFFF00
0FC01F80
1F8007C0
1E0003E0
3C0001F0
7C0000F0
78000078
78000078
70000078
F0000038
F0000038
F0000038
F0000038
F0000038
70000078
78000078
78000078
3C0000F0
3E0001F0
1F0003E0
0F8007C0
0FE01F80
03FFFF00
01FFFE00
007FF800
00030000
ENDCHAR
STARTCHAR 00F4
ENCODING 244
SWIDTH 797 0
DWIDTH 31 0
BBX 29 36 1 -1
BITMAP
00078000
000FC000
001DE000
003CE000
00387000
00400000
00000000
000FC000
00FFF800
01FFFE00
07FFFF00
0FC01F80
1F8007C0
1E0003E0
3C0001F0
7C0000F0
78000078
78000078
70000078
F0000038
F0000038
F0000038
F0000038
F0000038
70000078
78000078
78000078
3C0000F0
3E0001F0
1F0003E0
0F8007C0
0FE01F80
03FFFF00
01FFFE00
007FF800
00030000
ENDCHAR
STARTCHAR 00F5
ENCODING 245
SWIDTH 797 0
DWIDTH 31 0
BBX 29 35 1 -1
BITMAP
003F6000
003FE000
0001C000
00000000
00000000
00000000
000FC000
00FFF800
01FFFE00
07FFFF00
0FC01F80
1F8007C0
1E0003E0
3C0001F0
7C0000F0
78000078
78000078
70000078
F0000038
F0000038
F0000038
F0000038
F0000038
70000078
78000078
78000078
3C0000F0
3E0001F0
1F0003E0
0F8007C0
0FE01F80
03FFFF00
01FFFE00
007FF800
00030000
ENDCHAR
STARTCHAR 00F6
ENCODING 246
SWIDTH 797 0
DWIDTH 31 0
BBX 29 36 1 -1
BITMAP
00303800
00F87C00
00FC7C00
00FC7C00
00F87C00
00703800
00000000
000FC000
00FFF800
01FFFE00
07FFFF00
0FC01F80
1F8007C0
1E0003E0
3C0001F0
7C0000F0
78000078
78000078
70000078
F0000038
F0000038
F0000038
F0000038
F0000038
70000078
78000078
78000078
3C0000F0
3E0001F0
1F0003E0
0F8007C0
0FE01F80
03FFFF00
01FFFE00
007FF800
00030000
ENDCHAR
STARTCHAR 00F7
ENCODING 247
SWIDTH 540 0
DWIDTH 21 0
BBX 18 17 2 4
BITMAP
01E000
01E000
03E000
01E000
00C000
000000
000000
FFFFC0
FFFFC0
FFFFC0
000000
000000
00C000
01E000
03E000
03E000
01E000
ENDCHAR
STARTCHAR 00F8
ENCODING 248
SWIDTH 771 0
DWIDTH 30 0
BBX 29 30 1 -1
BITMAP
00000040
001F8060
00FFF8E0
03FFFFC0
07FFFFC0
0FC01F80
1F000FC0
3E001FE0
3C003DE0
780038F0
780070F0
F000E078
F001E078
F003C078
F0078078
F00F0078
F00E0078
F01C0078
F0380078
F0780070
78F000F0
79E001F0
3FC001E0
3F8003E0
1F800FC0
0FE03F80
1FFFFF00
3DFFFC00
787FF000
30060000
ENDCHAR
STARTCHAR 00F9
ENCODING 249
SWIDTH 488 0
DWIDTH 19 0
BBX 16 36 2 -1
BITMAP
0E00
0E00
0700
0380
0180
01C0
0000
0000
E00F
E00F
E00F
E00F
E00F
E00F
E00F
E00F
E00F
E00F
E00F
E00F
E00F
E00F
E00F
E00F
E00F
E00F
E00F
E00F
F00F
F00F
F01E
7C3E
7FFC
3FF8
0FF0
0180
ENDCHAR
STARTCHAR 00FA
ENCODING 250
SWIDTH 488 0
DWIDTH 19 0
BBX 16 36 2 -1
BITMAP
0070
00E0
00E0
01C0
0180
0300
0000
0000
E00F
E00F
E00F
E00F
E00F
E00F
E00F
E00F
E00F
E00F
E00F
E00F
E00F
E00F
E00F
E00F
E00F
E00F
E00F
E00F
F00F
F00F
F01E
7C3E
7FFC
3FF8
0FF0
0180
ENDCHAR
STARTCHAR 00FB
ENCODING 251
SWIDTH 488 0
DWIDTH 19 0
BBX 16 36 2 -1
BITMAP
03C0
07E0
0EF0
1E70
1C38
2000
0000
0000
E00F
E00F
E00F
E00F
E00F
E00F
E00F
E00F
E00F
E00F
E00F
E00F
E00F
E00F
E00F
E00F
E00F
E00F
E00F
E00F
F00F
F00F
F01E
7C3E
7FFC
3FF8
0FF0
0180
ENDCHAR
STARTCHAR 00FC
ENCODING 252
SWIDTH 488 0
DWIDTH 19 0
BBX 16 36 2 -1
BITMAP
181C
7C3E
7E3E
7E3E
7C3E
381C
0000
0000
E00F
E00F
E00F
E00F
E00F
E00F
E00F
E00F
E00F
E00F
E00F
E00F
E00F
E00F
E00F
E00F
E00F
E00F
E00F
E00F
F00F
F00F
F01E
7C3E
7FFC
3FF8
0FF0
0180
ENDCHAR
STARTCHAR 00FD
ENCODING 253
SWIDTH 488 0
DWIDTH 19 0
BBX 17 35 1 0
BITMAP
003800
007000
006000
00E000
01C000
018000
000000
000000
F00780
F00780
F00780
F00780
F00780
F00780
F00780
F00780
F00780
F00780
F00780
F00780
700780
700780
780780
780F00
3C1F00
3FFE00
1FFC00
0FF800
01E000
01E000
01E000
01E000
01E000
01E000
01E000
ENDCHAR
STARTCHAR 00FF
ENCODING 255
SWIDTH 488 0
DWIDTH 19 0
BBX 17 35 1 0
BITMAP
1C0C00
3E1F00
3E3F00
3E3F00
3E1F00
1C0E00
000000
000000
F00780
F00780
F00780
F00780
F00780
F00780
F00780
F00780
F00780
F00780
F00780
F00780
700780
700780
780780
780F00
3C1F00
3FFE00
1FFC00
0FF800
01E000
01E000
01E000
01E000
01E000
01E000
01E000
ENDCHAR
STARTCHAR 0100
ENCODING 256
SWIDTH 540 0
DWIDTH 21 0
BBX 19 34 2 0
BITMAP
1FFC00
1FFC00
1FFC00
000000
000000
000000
03C000
0FF800
3FFC00
3FFE00
7C1E00
780F00
F00F00
F00F00
F00700
F00700
F00700
F00700
F00700
F00700
F00700
F00700
F00700
F00700
F00700
F00700
F00700
F00700
F00700
F00700
F00700
FFFFE0
FFFFE0
FFFFE0
ENDCHAR
STARTCHAR 0101
ENCODING 257
SWIDTH 540 0
DWIDTH 21 0
BBX 19 34 2 0
BITMAP
1FFC00
1FFC00
1FFC00
000000
000000
000000
03C000
0FF800
3FFC00
3FFE00
7C1E00
780F00
F00F00
F00F00
F00700
F00700
F00700
F00700
F00700
F00700
F00700
F00700
F00700
F00700
F00700
F00700
F00700
F00700
F00700
F00700
F00700
FFFFE0
FFFFE0
FFFFE0
ENDCHAR
STARTCHAR 0102
ENCODING 258
SWIDTH 540 0
DWIDTH 21 0
BBX 19 35 2 0
BITMAP
181C00
1C1800
1C3800
0FF000
07E000
000000
000000
03C000
0FF800
3FFC00
3FFE00
7C1E00
780F00
F00F00
F00F00
F00700
F00700
F00700
F00700
F00700
F00700
F00700
F00700
F00700
F00700
F00700
F00700
F00700
F00700
F00700
F00700
F00700
FFFFE0
FFFFE0
FFFFE0
ENDCHAR
STARTCHAR 0103
ENCODING 259
SWIDTH 540 0
DWIDTH 21 0
BBX 19 35 2 0
BITMAP
181C00
1C1800
1C3800
0FF000
07E000
000000
000000
03C000
0FF800
3FFC00
3FFE00
7C1E00
780F00
F00F00
F00F00
F00700
F00700
F00700
F00700
F00700
F00700
F00700
F00700
F00700
F00700
F00700
F00700
F00700
F00700
F00700
F00700
F00700
FFFFE0
FFFFE0
FFFFE0
ENDCHAR
STARTCHAR 0104
ENCODING 260
SWIDTH 540 0
DWIDTH 21 0
BBX 21 35 2 -7
BITMAP
03C000
0FF800
3FFC00
3FFE00
7C1E00
780F00
F00F00
F00F00
F00700
F00700
F00700
F00700
F00700
F00700
F00700
F00700
F00700
F00700
F00700
F00700
F00700
F00700
F00700
F00700
F00700
FFFFE0
FFFFE0
FFFFE0
000180
000300
000600
000600
000610
0007F8
0003E0
ENDCHAR
STARTCHAR 0105
ENCODING 261
SWIDTH 540 0
DWIDTH 21 0
BBX 21 35 2 -7
BITMAP
03C000
0FF800
3FFC00
3FFE00
7C1E00
780F00
F00F00
F00F00
F00700
F00700
F00700
F00700
F00700
F00700
F00700
F00700
F00700
F00700
F00700
F00700
F00700
F00700
F00700
F00700
F00700
FFFFE0
FFFFE0
FFFFE0
000180
000300
000600
000600
000610
0007F8
0003E0
ENDCHAR
STARTCHAR 0106
ENCODING 262
SWIDTH 668 0
DWIDTH 26 0
BBX 25 36 1 -1
BITMAP
0000E000
0001C000
00038000
00030000
00070000
00060000
00000000
000FC000
00FFF800
01FFFC00
07FFFF00
0FC01F80
1F800F80
1E000300
3C000000
7C000000
78000000
78000000
70000000
F0000000
F0000000
F0000000
F0000000
F0000000
70000000
78000000
78000000
3C000000
3E000200
1F000700
1F800F80
0FE03F00
03FFFE00
01FFFC00
007FF000
00020000
ENDCHAR
STARTCHAR 0107
ENCODING 263
SWIDTH 668 0
DWIDTH 26 0
BBX 25 36 1 -1
BITMAP
0000E000
0001C000
00038000
00030000
00070000
00060000
00000000
000FC000
00FFF800
01FFFC00
07FFFF00
0FC01F80
1F800F80
1E000300
3C000000
7C000000
78000000
78000000
70000000
F0000000
F0000000
F0000000
F0000000
F0000000
70000000
78000000
78000000
3C000000
3E000200
1F000700
1F800F80
0FE03F00
03FFFE00
01FFFC00
007FF000
00020000
ENDCHAR
STARTCHAR 010A
ENCODING 266
SWIDTH 668 0
DWIDTH 26 0
BBX 25 37 1 -1
BITMAP
00030000
000F8000
000FC000
000FC000
000F8000
00070000
00000000
00000000
000FC000
00FFF800
01FFFC00
07FFFF00
0FC01F80
1F800F80
1E000300
3C000000
7C000000
78000000
78000000
70000000
F0000000
F0000000
F0000000
F0000000
F0000000
70000000
78000000
78000000
3C000000
3E000200
1F000700
1F800F80
0FE03F00
03FFFE00
01FFFC00
007FF000
00020000
ENDCHAR
STARTCHAR 010B
ENCODING 267
SWIDTH 668 0
DWIDTH 26 0
BBX 25 37 1 -1
BITMAP
00030000
000F8000
000FC000
000FC000
000F8000
00070000
00000000
00000000
000FC000
00FFF800
01FFFC00
07FFFF00
0FC01F80
1F800F80
1E000300
3C000000
7C000000
78000000
78000000
70000000
F0000000
F0000000
F0000000
F0000000
F0000000
70000000
78000000
78000000
3C000000
3E000200
1F000700
1F800F80
0FE03F00
03FFFE00
01FFFC00
007FF000
00020000
ENDCHAR
STARTCHAR 010C
ENCODING 268
SWIDTH 668 0
DWIDTH 26 0
BBX 25 36 1 -1
BITMAP
00707000
0038E000
001DC000
001FC000
000F8000
00000000
00000000
000FC000
00FFF800
01FFFC00
07FFFF00
0FC01F80
1F800F80
1E000300
3C000000
7C000000
78000000
78000000
70000000
F0000000
F0000000
F0000000
F0000000
F0000000
70000000
78000000
78000000
3C000000
3E000200
1F000700
1F800F80
0FE03F00
03FFFE00
01FFFC00
007FF000
00020000
ENDCHAR
STARTCHAR 010D
ENCODING 269
SWIDTH 668 0
DWIDTH 26 0
BBX 25 36 1 -1
BITMAP
00707000
0038E000
001DC000
001FC000
000F8000
00000000
00000000
000FC000
00FFF800
01FFFC00
07FFFF00
0FC01F80
1F800F80
1E000300
3C000000
7C000000
78000000
78000000
70000000
F0000000
F0000000
F0000000
F0000000
F0000000
70000000
78000000
78000000
3C000000
3E000200
1F000700
1F800F80
0FE03F00
03FFFE00
01FFFC00
007FF000
00020000
ENDCHAR
STARTCHAR 010E
ENCODING 270
SWIDTH 642 0
DWIDTH 25 0
BBX 22 35 2 0
BITMAP
1C1C00
0E3800
077800
07F000
03E000
000000
000000
000000
FFF800
FFFE00
FFFF80
F03FC0
F007E0
F001F0
F000F0
F00078
F00078
F0003C
F0003C
F0003C
F0003C
F0003C
F0003C
F0003C
F0003C
F00038
F00078
F00078
F000F0
F001F0
F007E0
F0FFC0
FFFF80
FFFE00
FFF000
ENDCHAR
STARTCHAR 010F
ENCODING 271
SWIDTH 642 0
DWIDTH 25 0
BBX 22 35 2 0
BITMAP
1C1C00
0E3800
077800
07F000
03E000
000000
000000
000000
FFF800
FFFE00
FFFF80
F03FC0
F007E0
F001F0
F000F0
F00078
F00078
F0003C
F0003C
F0003C
F0003C
F0003C
F0003C
F0003C
F0003C
F00038
F00078
F00078
F000F0
F001F0
F007E0
F0FFC0
FFFF80
FFFE00
FFF000
ENDCHAR
STARTCHAR 0110
ENCODING 272
SWIDTH 668 0
DWIDTH 26 0
BBX 24 27 1 0
BITMAP
3FFE00
3FFFC0
3FFFE0
3C07F0
3C00F8
3C007C
3C003E
3C001E
3C000F
3C000F
3C000F
FFF807
FFF807
FFF807
FFF807
3C0007
3C000F
3C000F
3C000F
3C001E
3C003E
3C007C
3C01F8
3C3FF0
3FFFE0
3FFF80
3FFC00
ENDCHAR
STARTCHAR 0111
ENCODING 273
SWIDTH 668 0
DWIDTH 26 0
BBX 24 27 1 0
BITMAP
3FFE00
3FFFC0
3FFFE0
3C07F0
3C00F8
3C007C
3C003E
3C001E
3C000F
3C000F
3C000F
FFF807
FFF807
FFF807
FFF807
3C0007
3C000F
3C000F
3C000F
3C001E
3C003E
3C007C
3C01F8
3C3FF0
3FFFE0
3FFF80
3FFC00
ENDCHAR
STARTCHAR 0112
ENCODING 274
SWIDTH 488 0
DWIDTH 19 0
BBX 18 34 1 0
BITMAP
1FFC00
1FFC00
1FFC00
000000
000000
000000
000000
1FFC00
1FFC00
1FFC00
1C0000
1C0000
1C0000
1C0000
1C0000
1C0000
1C0000
1C0000
1C0000
FFFE00
FFFE00
FFFE00
1C0000
1C0000
1C0000
1C0000
1C0000
1C0000
1C0000
1C0000
1C0000
1FFFC0
1FFFC0
1FFFC0
ENDCHAR
STARTCHAR 0113
ENCODING 275
SWIDTH 488 0
DWIDTH 19 0
BBX 18 34 1 0
BITMAP
1FFC00
1FFC00
1FFC00
000000
000000
000000
000000
1FFC00
1FFC00
1FFC00
1C0000
1C0000
1C0000
1C0000
1C0000
1C0000
1C0000
1C0000
1C0000
FFFE00
FFFE00
FFFE00
1C0000
1C0000
1C0000
1C0000
1C0000
1C0000
1C0000
1C0000
1C0000
1FFFC0
1FFFC0
1FFFC0
ENDCHAR
STARTCHAR 0116
ENCODING 278
SWIDTH 488 0
DWIDTH 19 0
BBX 18 36 1 0
BITMAP
018000
03E000
07E000
07E000
03E000
01C000
000000
000000
000000
1FFC00
1FFC00
1FFC00
1C0000
1C0000
1C0000
1C0000
1C0000
1C0000
1C0000
1C0000
1C0000
FFFE00
FFFE00
FFFE00
1C0000
1C0000
1C0000
1C0000
1C0000
1C0000
1C0000
1C0000
1C0000
1FFFC0
1FFFC0
1FFFC0
ENDCHAR
STARTCHAR 0117
ENCODING 279
SWIDTH 488 0
DWIDTH 19 0
BBX 18 36 1 0
BITMAP
018000
03E000
07E000
07E000
03E000
01C000
000000
000000
000000
1FFC00
1FFC00
1FFC00
1C0000
1C0000
1C0000
1C0000
1C0000
1C0000
1C0000
1C0000
1C0000
FFFE00
FFFE00
FFFE00
1C0000
1C0000
1C0000
1C0000
1C0000
1C0000
1C0000
1C0000
1C0000
1FFFC0
1FFFC0
1FFFC0
ENDCHAR
STARTCHAR 0118
ENCODING 280
SWIDTH 488 0
DWIDTH 19 0
BBX 20 34 1 -7
BITMAP
1FFC00
1FFC00
1FFC00
1C0000
1C0000
1C0000
1C0000
1C0000
1C0000
1C0000
1C0000
1C0000
FFFE00
FFFE00
FFFE00
1C0000
1C0000
1C0000
1C0000
1C0000
1C0000
1C0000
1C0000
1C0000
1FFFC0
1FFFC0
1FFFC0
000380
000600
000C00
000C00
000C20
0007F0
0003E0
ENDCHAR
STARTCHAR 0119
ENCODING 281
SWIDTH 488 0
DWIDTH 19 0
BBX 20 34 1 -7
BITMAP
1FFC00
1FFC00
1FFC00
1C0000
1C0000
1C0000
1C0000
1C0000
1C0000
1C0000
1C0000
1C0000
FFFE00
FFFE00
FFFE00
1C0000
1C0000
1C0000
1C0000
1C0000
1C0000
1C0000
1C0000
1C0000
1FFFC0
1FFFC0
1FFFC0
000380
000600
000C00
000C00
000C20
0007F0
0003E0
ENDCHAR
STARTCHAR 011A
ENCODING 282
SWIDTH 488 0
DWIDTH 19 0
BBX 18 35 1 0
BITMAP
1C3C00
1E3800
0E7000
07E000
03C000
000000
000000
000000
1FFC00
1FFC00
1FFC00
1C0000
1C0000
1C0000
1C0000
1C0000
1C0000
1C0000
1C0000
1C0000
FFFE00
FFFE00
FFFE00
1C0000
1C0000
1C0000
1C0000
1C0000
1C0000
1C0000
1C0000
1C0000
1FFFC0
1FFFC0
1FFFC0
ENDCHAR
STARTCHAR 011B
ENCODING 283
SWIDTH 488 0
DWIDTH 19 0
BBX 18 35 1 0
BITMAP
1C3C00
1E3800
0E7000
07E000
03C000
000000
000000
000000
1FFC00
1FFC00
1FFC00
1C0000
1C0000
1C0000
1C0000
1C0000
1C0000
1C0000
1C0000
1C0000
FFFE00
FFFE00
FFFE00
1C0000
1C0000
1C0000
1C0000
1C0000
1C0000
1C0000
1C0000
1C0000
1FFFC0
1FFFC0
1FFFC0
ENDCHAR
STARTCHAR 011E
ENCODING 286
SWIDTH 822 0
DWIDTH 32 0
BBX 31 36 1 -1
BITMAP
00707000
00707000
00386000
003FE000
001FC000
00000000
00000000
000FC000
00FFF800
01FFFE00
07FFFF00
0FC01F80
1F800780
1E000300
3C000000
7C000000
78000000
78000000
70000000
F0000000
F003FFFE
F003FFFE
F003FFFE
F0000078
70000070
780000F0
780000F0
3C0001F0
3E0001E0
1F0003C0
0F800FC0
0FE03F80
03FFFF00
01FFFC00
007FF000
00030000
ENDCHAR
STARTCHAR 011F
ENCODING 287
SWIDTH 822 0
DWIDTH 32 0
BBX 31 36 1 -1
BITMAP
00707000
00707000
00386000
003FE000
001FC000
00000000
00000000
000FC000
00FFF800
01FFFE00
07FFFF00
0FC01F80
1F800780
1E000300
3C000000
7C000000
78000000
78000000
70000000
F0000000
F003FFFE
F003FFFE
F003FFFE
F0000078
70000070
780000F0
780000F0
3C0001F0
3E0001E0
1F0003C0
0F800FC0
0FE03F80
03FFFF00
01FFFC00
007FF000
00030000
ENDCHAR
STARTCHAR 0120
ENCODING 288
SWIDTH 822 0
DWIDTH 32 0
BBX 31 37 1 -1
BITMAP
00030000
000F8000
000FC000
000FC000
000F8000
00070000
00000000
00000000
000FC000
00FFF800
01FFFE00
07FFFF00
0FC01F80
1F800780
1E000300
3C000000
7C000000
78000000
78000000
70000000
F0000000
F003FFFE
F003FFFE
F003FFFE
F0000078
70000070
780000F0
780000F0
3C0001F0
3E0001E0
1F0003C0
0F800FC0
0FE03F80
03FFFF00
01FFFC00
007FF000
00030000
ENDCHAR
STARTCHAR 0121
ENCODING 289
SWIDTH 822 0
DWIDTH 32 0
BBX 31 37 1 -1
BITMAP
00030000
000F8000
000FC000
000FC000
000F8000
00070000
00000000
00000000
000FC000
00FFF800
01FFFE00
07FFFF00
0FC01F80
1F800780
1E000300
3C000000
7C000000
78000000
78000000
70000000
F0000000
F003FFFE
F003FFFE
F003FFFE
F0000078
70000070
780000F0
780000F0
3C0001F0
3E0001E0
1F0003C0
0F800FC0
0FE03F80
03FFFF00
01FFFC00
007FF000
00030000
ENDCHAR
STARTCHAR 0124
ENCODING 292
SWIDTH 540 0
DWIDTH 21 0
BBX 19 35 1 0
BITMAP
007800
00FC00
01DC00
038E00
078700
000000
000000
000000
1C01E0
1C01E0
1C01E0
1C01E0
1C01E0
1C01E0
1C01E0
1C01E0
1C01E0
1C01E0
1C01E0
FFFFE0
FFFFE0
FFFFE0
1C01E0
1C01E0
1C01E0
1C01E0
1C01E0
1C01E0
1C01E0
1C01E0
1C01E0
1C01E0
1C01E0
1C01E0
1C01E0
ENDCHAR
STARTCHAR 0125
ENCODING 293
SWIDTH 540 0
DWIDTH 21 0
BBX 19 35 1 0
BITMAP
007800
00FC00
01DC00
038E00
078700
000000
000000
000000
1C01E0
1C01E0
1C01E0
1C01E0
1C01E0
1C01E0
1C01E0
1C01E0
1C01E0
1C01E0
1C01E0
FFFFE0
FFFFE0
FFFFE0
1C01E0
1C01E0
1C01E0
1C01E0
1C01E0
1C01E0
1C01E0
1C01E0
1C01E0
1C01E0
1C01E0
1C01E0
1C01E0
ENDCHAR
STARTCHAR 0128
ENCODING 296
SWIDTH 180 0
DWIDTH 7 0
BBX 9 24 -1 0
BITMAP
F000
FF80
FF80
0000
0000
0000
0000
1E00
1E00
1E00
1E00
1E00
1E00
1E00
1E00
1E00
1E00
1E00
1E00
1E00
1E00
1E00
1E00
1E00
ENDCHAR
STARTCHAR 0129
ENCODING 297
SWIDTH 180 0
DWIDTH 7 0
BBX 9 24 -1 0
BITMAP
F000
FF80
FF80
0000
0000
0000
0000
1E00
1E00
1E00
1E00
1E00
1E00
1E00
1E00
1E00
1E00
1E00
1E00
1E00
1E00
1E00
1E00
1E00
ENDCHAR
STARTCHAR 012A
ENCODING 298
SWIDTH 180 0
DWIDTH 7 0
BBX 11 23 -2 0
BITMAP
FFE0
FFE0
FFE0
0000
0000
0000
0F00
0F00
0F00
0F00
0F00
0F00
0F00
0F00
0F00
0F00
0F00
0F00
0F00
0F00
0F00
0F00
0F00
ENDCHAR
STARTCHAR 012B
ENCODING 299
SWIDTH 180 0
DWIDTH 7 0
BBX 11 23 -2 0
BITMAP
FFE0
FFE0
FFE0
0000
0000
0000
0F00
0F00
0F00
0F00
0F00
0F00
0F00
0F00
0F00
0F00
0F00
0F00
0F00
0F00
0F00
0F00
0F00
ENDCHAR
STARTCHAR 012E
ENCODING 302
SWIDTH 180 0
DWIDTH 7 0
BBX 9 37 -1 -6
BITMAP
0800
0C00
0C00
FF80
3F00
1E00
3E00
2200
0100
0000
0000
0000
0000
1E00
1E00
1E00
1E00
1E00
1E00
1E00
1E00
1E00
1E00
1E00
1E00
1E00
1E00
1E00
1E00
1E00
3800
6000
6000
E000
6200
7F00
3E00
ENDCHAR
STARTCHAR 012F
ENCODING 303
SWIDTH 180 0
DWIDTH 7 0
BBX 9 37 -1 -6
BITMAP
0800
0C00
0C00
FF80
3F00
1E00
3E00
2200
0100
0000
0000
0000
0000
1E00
1E00
1E00
1E00
1E00
1E00
1E00
1E00
1E00
1E00
1E00
1E00
1E00
1E00
1E00
1E00
1E00
3800
6000
6000
E000
6200
7F00
3E00
ENDCHAR
STARTCHAR 0130
ENCODING 304
SWIDTH 180 0
DWIDTH 7 0
BBX 6 25 1 0
BITMAP
78
FC
FC
FC
78
00
00
00
78
78
78
78
78
78
78
78
78
78
78
78
78
78
78
78
78
ENDCHAR
STARTCHAR 0139
ENCODING 313
SWIDTH 437 0
DWIDTH 17 0
BBX 14 35 2 0
BITMAP
1C00
3800
3800
7000
6000
C000
0000
0000
F000
F000
F000
F000
F000
F000
F000
F000
F000
F000
F000
F000
F000
F000
F000
F000
F000
F000
F000
F000
F000
F000
F000
F000
FFFC
FFFC
FFFC
ENDCHAR
STARTCHAR 013A
ENCODING 314
SWIDTH 437 0
DWIDTH 17 0
BBX 14 35 2 0
BITMAP
1C00
3800
3800
7000
6000
C000
0000
0000
F000
F000
F000
F000
F000
F000
F000
F000
F000
F000
F000
F000
F000
F000
F000
F000
F000
F000
F000
F000
F000
F000
F000
F000
FFFC
FFFC
FFFC
ENDCHAR
STARTCHAR 013D
ENCODING 317
SWIDTH 437 0
DWIDTH 17 0
BBX 18 35 -2 0
BITMAP
F0E000
71E000
39C000
1F8000
0F0000
000000
000000
000000
0F0000
0F0000
0F0000
0F0000
0F0000
0F0000
0F0000
0F0000
0F0000
0F0000
0F0000
0F0000
0F0000
0F0000
0F0000
0F0000
0F0000
0F0000
0F0000
0F0000
0F0000
0F0000
0F0000
0F0000
0FFFC0
0FFFC0
0FFFC0
ENDCHAR
STARTCHAR 013E
ENCODING 318
SWIDTH 437 0
DWIDTH 17 0
BBX 18 35 -2 0
BITMAP
F0E000
71E000
39C000
1F8000
0F0000
000000
000000
000000
0F0000
0F0000
0F0000
0F0000
0F0000
0F0000
0F0000
0F0000
0F0000
0F0000
0F0000
0F0000
0F0000
0F0000
0F0000
0F0000
0F0000
0F0000
0F0000
0F0000
0F0000
0F0000
0F0000
0F0000
0FFFC0
0FFFC0
0FFFC0
ENDCHAR
STARTCHAR 0141
ENCODING 321
SWIDTH 462 0
DWIDTH 18 0
BBX 17 27 1 0
BITMAP
1E0000
1E0000
1E0000
1E0000
1E0000
1E0000
1E0000
1E0000
1E0000
1E2000
1EF000
1FE000
1F8000
3E0000
FE0000
FE0000
DE0000
1E0000
1E0000
1E0000
1E0000
1E0000
1E0000
1E0000
1FFF80
1FFF80
1FFF80
ENDCHAR
STARTCHAR 0142
ENCODING 322
SWIDTH 462 0
DWIDTH 18 0
BBX 17 27 1 0
BITMAP
1E0000
1E0000
1E0000
1E0000
1E0000
1E0000
1E0000
1E0000
1E0000
1E2000
1EF000
1FE000
1F8000
3E0000
FE0000
FE0000
DE0000
1E0000
1E0000
1E0000
1E0000
1E0000
1E0000
1E0000
1FFF80
1FFF80
1FFF80
ENDCHAR
STARTCHAR 0143
ENCODING 323
SWIDTH 514 0
DWIDTH 20 0
BBX 17 35 1 0
BITMAP
003800
003800
007000
00E000
00C000
01C000
000000
400000
700380
F80380
FC0380
7F0380
7F8380
7FC380
7BE380
79FB80
78FF80
787F80
781F80
780F80
780780
780380
780380
780380
780380
780380
780380
780380
780380
780380
780380
780380
780380
780380
780380
ENDCHAR
STARTCHAR 0144
ENCODING 324
SWIDTH 514 0
DWIDTH 20 0
BBX 17 35 1 0
BITMAP
003800
003800
007000
00E000
00C000
01C000
000000
400000
700380
F80380
FC0380
7F0380
7F8380
7FC380
7BE380
79FB80
78FF80
787F80
781F80
780F80
780780
780380
780380
780380
780380
780380
780380
780380
780380
780380
780380
780380
780380
780380
780380
ENDCHAR
STARTCHAR 0147
ENCODING 327
SWIDTH 514 0
DWIDTH 20 0
BBX 17 35 1 0
BITMAP
0E0E00
071C00
07B800
03F000
01F000
000000
000000
400000
700380
F80380
FC0380
7F0380
7F8380
7FC380
7BE380
79FB80
78FF80
787F80
781F80
780F80
780780
780380
780380
780380
780380
780380
780380
780380
780380
780380
780380
780380
780380
780380
780380
ENDCHAR
STARTCHAR 0148
ENCODING 328
SWIDTH 514 0
DWIDTH 20 0
BBX 17 35 1 0
BITMAP
0E0E00
071C00
07B800
03F000
01F000
000000
000000
400000
700380
F80380
FC0380
7F0380
7F8380
7FC380
7BE380
79FB80
78FF80
787F80
781F80
780F80
780780
780380
780380
780380
780380
780380
780380
780380
780380
780380
780380
780380
780380
780380
780380
ENDCHAR
STARTCHAR 014C
ENCODING 332
SWIDTH 797 0
DWIDTH 31 0
BBX 29 35 1 -1
BITMAP
007FF000
007FF000
007FF000
00000000
00000000
00000000
000FC000
00FFF800
01FFFE00
07FFFF00
0FC01F80
1F8007C0
1E0003E0
3C0001F0
7C0000F0
78000078
78000078
70000078
F0000038
F0000038
F0000038
F0000038
F0000038
70000078
78000078
78000078
3C0000F0
3E0001F0
1F0003E0
0F8007C0
0FE01F80
03FFFF00
01FFFE00
007FF800
00030000
ENDCHAR
STARTCHAR 014D
ENCODING 333
SWIDTH 797 0
DWIDTH 31 0
BBX 29 35 1 -1
BITMAP
007FF000
007FF000
007FF000
00000000
00000000
00000000
000FC000
00FFF800
01FFFE00
07FFFF00
0FC01F80
1F8007C0
1E0003E0
3C0001F0
7C0000F0
78000078
78000078
70000078
F0000038
F0000038
F0000038
F0000038
F0000038
70000078
78000078
78000078
3C0000F0
3E0001F0
1F0003E0
0F8007C0
0FE01F80
03FFFF00
01FFFE00
007FF800
00030000
ENDCHAR
STARTCHAR 0150
ENCODING 336
SWIDTH 797 0
DWIDTH 31 0
BBX 29 36 1 -1
BITMAP
00071C00
000E1C00
000C3800
001C3000
00386000
0030E000
00000000
000FC000
00FFF800
01FFFE00
07FFFF00
0FC01F80
1F8007C0
1E0003E0
3C0001F0
7C0000F0
78000078
78000078
70000078
F0000038
F0000038
F0000038
F0000038
F0000038
70000078
78000078
78000078
3C0000F0
3E0001F0
1F0003E0
0F8007C0
0FE01F80
03FFFF00
01FFFE00
007FF800
00030000
ENDCHAR
STARTCHAR 0151
ENCODING 337
SWIDTH 797 0
DWIDTH 31 0
BBX 29 36 1 -1
BITMAP
00071C00
000E1C00
000C3800
001C3000
00386000
0030E000
00000000
000FC000
00FFF800
01FFFE00
07FFFF00
0FC01F80
1F8007C0
1E0003E0
3C0001F0
7C0000F0
78000078
78000078
70000078
F0000038
F0000038
F0000038
F0000038
F0000038
70000078
78000078
78000078
3C0000F0
3E0001F0
1F0003E0
0F8007C0
0FE01F80
03FFFF00
01FFFE00
007FF800
00030000
ENDCHAR
STARTCHAR 0154
ENCODING 340
SWIDTH 565 0
DWIDTH 22 0
BBX 21 35 1 0
BITMAP
001C00
001C00
003800
007000
006000
00E000
000000
000000
1FFE00
1FFF80
1FFFE0
1C07E0
1C01F0
1C00F0
1C0070
1C0078
1C0070
1C0070
1C00F0
1C01F0
1C07E0
FFFFC0
FFFF80
FFFF80
1C0F80
1C03C0
1C01E0
1C01E0
1C01E0
1C00E0
1C00E0
1C00E0
1C00E0
1C00E0
1C00E0
ENDCHAR
STARTCHAR 0155
ENCODING 341
SWIDTH 565 0
DWIDTH 22 0
BBX 21 35 1 0
BITMAP
001C00
001C00
003800
007000
006000
00E000
000000
000000
1FFE00
1FFF80
1FFFE0
1C07E0
1C01F0
1C00F0
1C0070
1C0078
1C0070
1C0070
1C00F0
1C01F0
1C07E0
FFFFC0
FFFF80
FFFF80
1C0F80
1C03C0
1C01E0
1C01E0
1C01E0
1C00E0
1C00E0
1C00E0
1C00E0
1C00E0
1C00E0
ENDCHAR
STARTCHAR 0158
ENCODING 344
SWIDTH 565 0
DWIDTH 22 0
BBX 21 35 1 0
BITMAP
070700
038E00
03DC00
01F800
00F800
000000
000000
000000
1FFE00
1FFF80
1FFFE0
1C07E0
1C01F0
1C00F0
1C0070
1C0078
1C0070
1C0070
1C00F0
1C01F0
1C07E0
FFFFC0
FFFF80
FFFF80
1C0F80
1C03C0
1C01E0
1C01E0
1C01E0
1C00E0
1C00E0
1C00E0
1C00E0
1C00E0
1C00E0
ENDCHAR
STARTCHAR 0159
ENCODING 345
SWIDTH 565 0
DWIDTH 22 0
BBX 21 35 1 0
BITMAP
070700
038E00
03DC00
01F800
00F800
000000
000000
000000
1FFE00
1FFF80
1FFFE0
1C07E0
1C01F0
1C00F0
1C0070
1C0078
1C0070
1C0070
1C00F0
1C01F0
1C07E0
FFFFC0
FFFF80
FFFF80
1C0F80
1C03C0
1C01E0
1C01E0
1C01E0
1C00E0
1C00E0
1C00E0
1C00E0
1C00E0
1C00E0
ENDCHAR
STARTCHAR 015A
ENCODING 346
SWIDTH 488 0
DWIDTH 19 0
BBX 17 36 1 -1
BITMAP
003800
007000
00E000
00C000
01C000
018000
000000
03E000
0FF800
1FFC00
3FFE00
3C1F00
780F00
780700
780600
780000
3C0000
3E0000
1F8000
0FE000
03F000
01FC00
007E00
003F00
000F00
000780
000780
100780
F00780
F00780
780780
7C1F00
3FFF00
1FFE00
0FF800
00C000
ENDCHAR
STARTCHAR 015B
ENCODING 347
SWIDTH 488 0
DWIDTH 19 0
BBX 17 36 1 -1
BITMAP
003800
007000
00E000
00C000
01C000
018000
000000
03E000
0FF800
1FFC00
3FFE00
3C1F00
780F00
780700
780600
780000
3C0000
3E0000
1F8000
0FE000
03F000
01FC00
007E00
003F00
000F00
000780
000780
100780
F00780
F00780
780780
7C1F00
3FFF00
1FFE00
0FF800
00C000
ENDCHAR
STARTCHAR 015E
ENCODING 350
SWIDTH 488 0
DWIDTH 19 0
BBX 17 36 1 -8
BITMAP
03E000
0FF800
1FFC00
3FFE00
3C1F00
780F00
780700
780600
780000
3C0000
3E0000
1F8000
0FE000
03F000
01FC00
007E00
003F00
000F00
000780
000780
100780
F00780
F00780
780780
7C1F00
3FFF00
1FFE00
0FF800
00C000
01C000
01E000
003000
003000
0C3000
0FF000
07E000
ENDCHAR
STARTCHAR 015F
ENCODING 351
SWIDTH 488 0
DWIDTH 19 0
BBX 17 36 1 -8
BITMAP
03E000
0FF800
1FFC00
3FFE00
3C1F00
780F00
780700
780600
780000
3C0000
3E0000
1F8000
0FE000
03F000
01FC00
007E00
003F00
000F00
000780
000780
100780
F00780
F00780
780780
7C1F00
3FFF00
1FFE00
0FF800
00C000
01C000
01E000
003000
003000
0C3000
0FF000
07E000
ENDCHAR
STARTCHAR 0160
ENCODING 352
SWIDTH 488 0
DWIDTH 19 0
BBX 17 36 1 -1
BITMAP
1C1C00
0E3800
077000
07F000
03E000
000000
000000
03E000
0FF800
1FFC00
3FFE00
3C1F00
780F00
780700
780600
780000
3C0000
3E0000
1F8000
0FE000
03F000
01FC00
007E00
003F00
000F00
000780
000780
100780
F00780
F00780
780780
7C1F00
3FFF00
1FFE00
0FF800
00C000
ENDCHAR
STARTCHAR 0161
ENCODING 353
SWIDTH 488 0
DWIDTH 19 0
BBX 17 36 1 -1
BITMAP
1C1C00
0E3800
077000
07F000
03E000
000000
000000
03E000
0FF800
1FFC00
3FFE00
3C1F00
780F00
780700
780600
780000
3C0000
3E0000
1F8000
0FE000
03F000
01FC00
007E00
003F00
000F00
000780
000780
100780
F00780
F00780
780780
7C1F00
3FFF00
1FFE00
0FF800
00C000
ENDCHAR
STARTCHAR 0162
ENCODING 354
SWIDTH 488 0
DWIDTH 19 0
BBX 18 35 1 -8
BITMAP
FFFFC0
FFFFC0
FFFFC0
01E000
01E000
01E000
01E000
01E000
01E000
01E000
01E000
01E000
01E000
01E000
01E000
01E000
01E000
01E000
01E000
01E000
01E000
01E000
01E000
01E000
01E000
01E000
01E000
00C000
01C000
01E000
003000
003000
0C3000
0FF000
07E000
ENDCHAR
STARTCHAR 0163
ENCODING 355
SWIDTH 488 0
DWIDTH 19 0
BBX 18 35 1 -8
BITMAP
FFFFC0
FFFFC0
FFFFC0
01E000
01E000
01E000
01E000
01E000
01E000
01E000
01E000
01E000
01E000
01E000
01E000
01E000
01E000
01E000
01E000
01E000
01E000
01E000
01E000
01E000
01E000
01E000
01E000
00C000
01C000
01E000
003000
003000
0C3000
0FF000
07E000
ENDCHAR
STARTCHAR 0164
ENCODING 356
SWIDTH 488 0
DWIDTH 19 0
BBX 18 35 1 0
BITMAP
1C1C00
0E3800
073800
03F000
03E000
000000
000000
000000
FFFFC0
FFFFC0
FFFFC0
01E000
01E000
01E000
01E000
01E000
01E000
01E000
01E000
01E000
01E000
01E000
01E000
01E000
01E000
01E000
01E000
01E000
01E000
01E000
01E000
01E000
01E000
01E000
01E000
ENDCHAR
STARTCHAR 0165
ENCODING 357
SWIDTH 488 0
DWIDTH 19 0
BBX 18 35 1 0
BITMAP
1C1C00
0E3800
073800
03F000
03E000
000000
000000
000000
FFFFC0
FFFFC0
FFFFC0
01E000
01E000
01E000
01E000
01E000
01E000
01E000
01E000
01E000
01E000
01E000
01E000
01E000
01E000
01E000
01E000
01E000
01E000
01E000
01E000
01E000
01E000
01E000
01E000
ENDCHAR
STARTCHAR 0168
ENCODING 360
SWIDTH 488 0
DWIDTH 19 0
BBX 16 35 2 -1
BITMAP
1FB0
1FF0
00F0
0000
0000
0000
0000
E00F
E00F
E00F
E00F
E00F
E00F
E00F
E00F
E00F
E00F
E00F
E00F
E00F
E00F
E00F
E00F
E00F
E00F
E00F
E00F
F00F
F00F
F01E
7C3E
7FFC
3FF8
0FF0
0180
ENDCHAR
STARTCHAR 0169
ENCODING 361
SWIDTH 488 0
DWIDTH 19 0
BBX 16 35 2 -1
BITMAP
1FB0
1FF0
00F0
0000
0000
0000
0000
E00F
E00F
E00F
E00F
E00F
E00F
E00F
E00F
E00F
E00F
E00F
E00F
E00F
E00F
E00F
E00F
E00F
E00F
E00F
E00F
F00F
F00F
F01E
7C3E
7FFC
3FF8
0FF0
0180
ENDCHAR
STARTCHAR 016A
ENCODING 362
SWIDTH 488 0
DWIDTH 19 0
BBX 16 35 2 -1
BITMAP
3FF8
3FF8
3FF8
0000
0000
0000
0000
E00F
E00F
E00F
E00F
E00F
E00F
E00F
E00F
E00F
E00F
E00F
E00F
E00F
E00F
E00F
E00F
E00F
E00F
E00F
E00F
F00F
F00F
F01E
7C3E
7FFC
3FF8
0FF0
0180
ENDCHAR
STARTCHAR 016B
ENCODING 363
SWIDTH 488 0
DWIDTH 19 0
BBX 16 35 2 -1
BITMAP
3FF8
3FF8
3FF8
0000
0000
0000
0000
E00F
E00F
E00F
E00F
E00F
E00F
E00F
E00F
E00F
E00F
E00F
E00F
E00F
E00F
E00F
E00F
E00F
E00F
E00F
E00F
F00F
F00F
F01E
7C3E
7FFC
3FF8
0FF0
0180
ENDCHAR
STARTCHAR 016E
ENCODING 366
SWIDTH 488 0
DWIDTH 19 0
BBX 16 38 2 -1
BITMAP
07C0
07E0
0C30
0C30
0C30
0EE0
07E0
0000
0000
0000
E00F
E00F
E00F
E00F
E00F
E00F
E00F
E00F
E00F
E00F
E00F
E00F
E00F
E00F
E00F
E00F
E00F
E00F
E00F
E00F
F00F
F00F
F01E
7C3E
7FFC
3FF8
0FF0
0180
ENDCHAR
STARTCHAR 016F
ENCODING 367
SWIDTH 488 0
DWIDTH 19 0
BBX 16 38 2 -1
BITMAP
07C0
07E0
0C30
0C30
0C30
0EE0
07E0
0000
0000
0000
E00F
E00F
E00F
E00F
E00F
E00F
E00F
E00F
E00F
E00F
E00F
E00F
E00F
E00F
E00F
E00F
E00F
E00F
E00F
E00F
F00F
F00F
F01E
7C3E
7FFC
3FF8
0FF0
0180
ENDCHAR
STARTCHAR 0170
ENCODING 368
SWIDTH 488 0
DWIDTH 19 0
BBX 16 36 2 -1
BITMAP
038E
070E
061C
0E18
1C30
1870
0000
0000
E00F
E00F
E00F
E00F
E00F
E00F
E00F
E00F
E00F
E00F
E00F
E00F
E00F
E00F
E00F
E00F
E00F
E00F
E00F
E00F
F00F
F00F
F01E
7C3E
7FFC
3FF8
0FF0
0180
ENDCHAR
STARTCHAR 0171
ENCODING 369
SWIDTH 488 0
DWIDTH 19 0
BBX 16 36 2 -1
BITMAP
038E
070E
061C
0E18
1C30
1870
0000
0000
E00F
E00F
E00F
E00F
E00F
E00F
E00F
E00F
E00F
E00F
E00F
E00F
E00F
E00F
E00F
E00F
E00F
E00F
E00F
E00F
F00F
F00F
F01E
7C3E
7FFC
3FF8
0FF0
0180
ENDCHAR
STARTCHAR 0172
ENCODING 370
SWIDTH 488 0
DWIDTH 19 0
BBX 16 34 2 -7
BITMAP
E00F
E00F
E00F
E00F
E00F
E00F
E00F
E00F
E00F
E00F
E00F
E00F
E00F
E00F
E00F
E00F
E00F
E00F
E00F
E00F
F00F
F00F
F01E
7C3E
7FFC
3FF8
0FF0
0380
0700
0600
0600
0620
07F0
03E0
ENDCHAR
STARTCHAR 0173
ENCODING 371
SWIDTH 488 0
DWIDTH 19 0
BBX 16 34 2 -7
BITMAP
E00F
E00F
E00F
E00F
E00F
E00F
E00F
E00F
E00F
E00F
E00F
E00F
E00F
E00F
E00F
E00F
E00F
E00F
E00F
E00F
F00F
F00F
F01E
7C3E
7FFC
3FF8
0FF0
0380
0700
0600
0600
0620
07F0
03E0
ENDCHAR
STARTCHAR 0176
ENCODING 374
SWIDTH 488 0
DWIDTH 19 0
BBX 17 35 1 0
BITMAP
01E000
03F000
077000
0E3800
0E1C00
100000
000000
000000
F00780
F00780
F00780
F00780
F00780
F00780
F00780
F00780
F00780
F00780
F00780
F00780
700780
700780
780780
780F00
3C1F00
3FFE00
1FFC00
0FF800
01E000
01E000
01E000
01E000
01E000
01E000
01E000
ENDCHAR
STARTCHAR 0177
ENCODING 375
SWIDTH 488 0
DWIDTH 19 0
BBX 17 35 1 0
BITMAP
01E000
03F000
077000
0E3800
0E1C00
100000
000000
000000
F00780
F00780
F00780
F00780
F00780
F00780
F00780
F00780
F00780
F00780
F00780
F00780
700780
700780
780780
780F00
3C1F00
3FFE00
1FFC00
0FF800
01E000
01E000
01E000
01E000
01E000
01E000
01E000
ENDCHAR
STARTCHAR 0178
ENCODING 376
SWIDTH 488 0
DWIDTH 19 0
BBX 17 35 1 0
BITMAP
1C0C00
3E1F00
3E3F00
3E3F00
3E1F00
1C0E00
000000
000000
F00780
F00780
F00780
F00780
F00780
F00780
F00780
F00780
F00780
F00780
F00780
F00780
700780
700780
780780
780F00
3C1F00
3FFE00
1FFC00
0FF800
01E000
01E000
01E000
01E000
01E000
01E000
01E000
ENDCHAR
STARTCHAR 0179
ENCODING 377
SWIDTH 488 0
DWIDTH 19 0
BBX 18 35 1 0
BITMAP
003800
007000
007000
00E000
00C000
018000
000000
000000
FFFFC0
FFFFC0
FFFF80
000780
000F00
001E00
001E00
003C00
003C00
007800
00F800
00F000
01E000
01E000
03C000
07C000
078000
0F0000
0F0000
1E0000
3E0000
3C0000
780000
780000
FFFF80
FFFF80
FFFF80
ENDCHAR
STARTCHAR 017A
ENCODING 378
SWIDTH 488 0
DWIDTH 19 0
BBX 18 35 1 0
BITMAP
003800
007000
007000
00E000
00C000
018000
000000
000000
FFFFC0
FFFFC0
FFFF80
000780
000F00
001E00
001E00
003C00
003C00
007800
00F800
00F000
01E000
01E000
03C000
07C000
078000
0F0000
0F0000
1E0000
3E0000
3C0000
780000
780000
FFFF80
FFFF80
FFFF80
ENDCHAR
STARTCHAR 017B
ENCODING 379
SWIDTH 488 0
DWIDTH 19 0
BBX 18 36 1 0
BITMAP
00C000
01E000
03F000
03F000
01F000
01E000
000000
000000
000000
FFFFC0
FFFFC0
FFFF80
000780
000F00
001E00
001E00
003C00
003C00
007800
00F800
00F000
01E000
01E000
03C000
07C000
078000
0F0000
0F0000
1E0000
3E0000
3C0000
780000
780000
FFFF80
FFFF80
FFFF80
ENDCHAR
STARTCHAR 017C
ENCODING 380
SWIDTH 488 0
DWIDTH 19 0
BBX 18 36 1 0
BITMAP
00C000
01E000
03F000
03F000
01F000
01E000
000000
000000
000000
FFFFC0
FFFFC0
FFFF80
000780
000F00
001E00
001E00
003C00
003C00
007800
00F800
00F000
01E000
01E000
03C000
07C000
078000
0F0000
0F0000
1E0000
3E0000
3C0000
780000
780000
FFFF80
FFFF80
FFFF80
ENDCHAR
STARTCHAR 017D
ENCODING 381
SWIDTH 488 0
DWIDTH 19 0
BBX 18 35 1 0
BITMAP
0E1C00
0F3C00
073800
03F000
01E000
000000
000000
000000
FFFFC0
FFFFC0
FFFF80
000780
000F00
001E00
001E00
003C00
003C00
007800
00F800
00F000
01E000
01E000
03C000
07C000
078000
0F0000
0F0000
1E0000
3E0000
3C0000
780000
780000
FFFF80
FFFF80
FFFF80
ENDCHAR
STARTCHAR 017E
ENCODING 382
SWIDTH 488 0
DWIDTH 19 0
BBX 18 35 1 0
BITMAP
0E1C00
0F3C00
073800
03F000
01E000
000000
000000
000000
FFFFC0
FFFFC0
FFFF80
000780
000F00
001E00
001E00
003C00
003C00
007800
00F800
00F000
01E000
01E000
03C000
07C000
078000
0F0000
0F0000
1E0000
3E0000
3C0000
780000
780000
FFFF80
FFFF80
FFFF80
ENDCHAR
STARTCHAR 01A0
ENCODING 416
SWIDTH 797 0
DWIDTH 31 0
BBX 29 32 1 -1
BITMAP
000000C0
000000C0
000001C0
000FC1C0
00FFFF80
01FFFE00
07FFFF00
0FC01F80
1F8007C0
1E0003E0
3C0001F0
7C0000F0
78000078
78000078
70000078
F0000038
F0000038
F0000038
F0000038
F0000038
70000078
78000078
78000078
3C0000F0
3E0001F0
1F0003E0
0F8007C0
0FE01F80
03FFFF00
01FFFE00
007FF800
00030000
ENDCHAR
STARTCHAR 01A1
ENCODING 417
SWIDTH 797 0
DWIDTH 31 0
BBX 29 32 1 -1
BITMAP
000000C0
000000C0
000001C0
000FC1C0
00FFFF80
01FFFE00
07FFFF00
0FC01F80
1F8007C0
1E0003E0
3C0001F0
7C0000F0
78000078
78000078
70000078
F0000038
F0000038
F0000038
F0000038
F0000038
70000078
78000078
78000078
3C0000F0
3E0001F0
1F0003E0
0F8007C0
0FE01F80
03FFFF00
01FFFE00
007FF800
00030000
ENDCHAR
STARTCHAR 01AF
ENCODING 431
SWIDTH 488 0
DWIDTH 19 0
BBX 19 32 2 -1
BITMAP
000060
0000E0
0000E0
0000C0
E00F80
E00F00
E00F00
E00F00
E00F00
E00F00
E00F00
E00F00
E00F00
E00F00
E00F00
E00F00
E00F00
E00F00
E00F00
E00F00
E00F00
E00F00
E00F00
E00F00
F00F00
F00F00
F01E00
7C3E00
7FFC00
3FF800
0FF000
018000
ENDCHAR
STARTCHAR 01B0
ENCODING 432
SWIDTH 488 0
DWIDTH 19 0
BBX 19 32 2 -1
BITMAP
000060
0000E0
0000E0
0000C0
E00F80
E00F00
E00F00
E00F00
E00F00
E00F00
E00F00
E00F00
E00F00
E00F00
E00F00
E00F00
E00F00
E00F00
E00F00
E00F00
E00F00
E00F00
E00F00
E00F00
F00F00
F00F00
F01E00
7C3E00
7FFC00
3FF800
0FF000
018000
ENDCHAR
STARTCHAR 01CD
ENCODING 461
SWIDTH 540 0
DWIDTH 21 0
BBX 19 35 2 0
BITMAP
1C1C00
0E3800
0F7000
07E000
03E000
000000
000000
03C000
0FF800
3FFC00
3FFE00
7C1E00
780F00
F00F00
F00F00
F00700
F00700
F00700
F00700
F00700
F00700
F00700
F00700
F00700
F00700
F00700
F00700
F00700
F00700
F00700
F00700
F00700
FFFFE0
FFFFE0
FFFFE0
ENDCHAR
STARTCHAR 01CE
ENCODING 462
SWIDTH 540 0
DWIDTH 21 0
BBX 19 35 2 0
BITMAP
1C1C00
0E3800
0F7000
07E000
03E000
000000
000000
03C000
0FF800
3FFC00
3FFE00
7C1E00
780F00
F00F00
F00F00
F00700
F00700
F00700
F00700
F00700
F00700
F00700
F00700
F00700
F00700
F00700
F00700
F00700
F00700
F00700
F00700
F00700
FFFFE0
FFFFE0
FFFFE0
ENDCHAR
STARTCHAR 01CF
ENCODING 463
SWIDTH 180 0
DWIDTH 7 0
BBX 12 25 -2 0
BITMAP
E070
70E0
39C0
3F80
1F80
0000
0000
0000
0F00
0F00
0F00
0F00
0F00
0F00
0F00
0F00
0F00
0F00
0F00
0F00
0F00
0F00
0F00
0F00
0F00
ENDCHAR
STARTCHAR 01D0
ENCODING 464
SWIDTH 180 0
DWIDTH 7 0
BBX 12 25 -2 0
BITMAP
E070
70E0
39C0
3F80
1F80
0000
0000
0000
0F00
0F00
0F00
0F00
0F00
0F00
0F00
0F00
0F00
0F00
0F00
0F00
0F00
0F00
0F00
0F00
0F00
ENDCHAR
STARTCHAR 01D1
ENCODING 465
SWIDTH 797 0
DWIDTH 31 0
BBX 29 36 1 -1
BITMAP
00787000
0038F000
001CE000
000FC000
00078000
00000000
00000000
000FC000
00FFF800
01FFFE00
07FFFF00
0FC01F80
1F8007C0
1E0003E0
3C0001F0
7C0000F0
78000078
78000078
70000078
F0000038
F0000038
F0000038
F0000038
F0000038
70000078
78000078
78000078
3C0000F0
3E0001F0
1F0003E0
0F8007C0
0FE01F80
03FFFF00
01FFFE00
007FF800
00030000
ENDCHAR
STARTCHAR 01D2
ENCODING 466
SWIDTH 797 0
DWIDTH 31 0
BBX 29 36 1 -1
BITMAP
00787000
0038F000
001CE000
000FC000
00078000
00000000
00000000
000FC000
00FFF800
01FFFE00
07FFFF00
0FC01F80
1F8007C0
1E0003E0
3C0001F0
7C0000F0
78000078
78000078
70000078
F0000038
F0000038
F0000038
F0000038
F0000038
70000078
78000078
78000078
3C0000F0
3E0001F0
1F0003E0
0F8007C0
0FE01F80
03FFFF00
01FFFE00
007FF800
00030000
ENDCHAR
STARTCHAR 01D3
ENCODING 467
SWIDTH 488 0
DWIDTH 19 0
BBX 16 36 2 -1
BITMAP
3C38
1C78
0E70
07E0
03C0
0000
0000
0000
E00F
E00F
E00F
E00F
E00F
E00F
E00F
E00F
E00F
E00F
E00F
E00F
E00F
E00F
E00F
E00F
E00F
E00F
E00F
E00F
F00F
F00F
F01E
7C3E
7FFC
3FF8
0FF0
0180
ENDCHAR
STARTCHAR 01D4
ENCODING 468
SWIDTH 488 0
DWIDTH 19 0
BBX 16 36 2 -1
BITMAP
3C38
1C78
0E70
07E0
03C0
0000
0000
0000
E00F
E00F
E00F
E00F
E00F
E00F
E00F
E00F
E00F
E00F
E00F
E00F
E00F
E00F
E00F
E00F
E00F
E00F
E00F
E00F
F00F
F00F
F01E
7C3E
7FFC
3FF8
0FF0
0180
ENDCHAR
STARTCHAR 02C6
ENCODING 710
SWIDTH 282 0
DWIDTH 11 0
BBX 11 5 0 30
BITMAP
0F00
1F80
3FC0
39C0
F0E0
ENDCHAR
STARTCHAR 02C7
ENCODING 711
SWIDTH 282 0
DWIDTH 11 0
BBX 11 5 0 30
BITMAP
F0E0
71E0
39C0
1F80
0F00
ENDCHAR
STARTCHAR 02D8
ENCODING 728
SWIDTH 257 0
DWIDTH 10 0
BBX 11 5 0 30
BITMAP
C0E0
E0E0
E1C0
7FC0
3F00
ENDCHAR
STARTCHAR 02D9
ENCODING 729
SWIDTH 128 0
DWIDTH 5 0
BBX 6 6 0 30
BITMAP
78
7C
FC
FC
78
30
ENDCHAR
STARTCHAR 02DA
ENCODING 730
SWIDTH 180 0
DWIDTH 7 0
BBX 8 7 0 30
BITMAP
3C
7E
C3
C3
C3
EE
7E
ENDCHAR
STARTCHAR 02DB
ENCODING 731
SWIDTH 180 0
DWIDTH 7 0
BBX 7 7 0 -7
BITMAP
3C
60
C0
C0
C2
FE
7C
ENDCHAR
STARTCHAR 02DC
ENCODING 732
SWIDTH 231 0
DWIDTH 9 0
BBX 9 3 0 31
BITMAP
FF80
FF80
0780
ENDCHAR
STARTCHAR 02DD
ENCODING 733
SWIDTH 308 0
DWIDTH 12 0
BBX 13 6 0 29
BITMAP
1C78
3870
30E0
70C0
61C0
C180
ENDCHAR
STARTCHAR 0300
ENCODING 768
SWIDTH 0 0
DWIDTH 0 0
BBX 6 6 -6 29
BITMAP
E0
70
70
38
18
0C
ENDCHAR
STARTCHAR 0301
ENCODING 769
SWIDTH 0 0
DWIDTH 0 0
BBX 6 6 -6 29
BITMAP
1C
38
30
70
60
C0
ENDCHAR
STARTCHAR 0302
ENCODING 770
SWIDTH 0 0
DWIDTH 0 0
BBX 11 5 -11 30
BITMAP
1E00
3F00
7F80
73C0
E1E0
ENDCHAR
STARTCHAR 0303
ENCODING 771
SWIDTH 0 0
DWIDTH 0 0
BBX 9 3 -9 31
BITMAP
FD80
FF80
0780
ENDCHAR
STARTCHAR 0304
ENCODING 772
SWIDTH 0 0
DWIDTH 0 0
BBX 11 3 -11 31
BITMAP
FFE0
FFE0
FFE0
ENDCHAR
STARTCHAR 0306
ENCODING 774
SWIDTH 0 0
DWIDTH 0 0
BBX 11 5 -11 30
BITMAP
E060
E0E0
70C0
7FC0
1F80
ENDCHAR
STARTCHAR 0307
ENCODING 775
SWIDTH 0 0
DWIDTH 0 0
BBX 6 6 -6 30
BITMAP
38
7C
FC
FC
7C
30
ENDCHAR
STARTCHAR 0308
ENCODING 776
SWIDTH 0 0
DWIDTH 0 0
BBX 14 6 -14 29
BITMAP
3030
F87C
FCFC
FCFC
F87C
7038
ENDCHAR
STARTCHAR 0309
ENCODING 777
SWIDTH 0 0
DWIDTH 0 0
BBX 3 7 -3 30
BITMAP
E0
60
60
E0
C0
C0
C0
ENDCHAR
STARTCHAR 030A
ENCODING 778
SWIDTH 0 0
DWIDTH 0 0
BBX 8 7 -8 30
BITMAP
3C
7E
C3
C3
C3
67
7E
ENDCHAR
STARTCHAR 030B
ENCODING 779
SWIDTH 0 0
DWIDTH 0 0
BBX 13 6 -13 29
BITMAP
1C38
1C70
3860
30E0
60C0
E180
ENDCHAR
STARTCHAR 030C
ENCODING 780
SWIDTH 0 0
DWIDTH 0 0
BBX 10 5 -11 30
BITMAP
E1C0
F1C0
7380
3F00
1E00
ENDCHAR
STARTCHAR 031B
ENCODING 795
SWIDTH 0 0
DWIDTH 0 0
BBX 5 5 -5 26
BITMAP
38
38
38
30
F0
ENDCHAR
STARTCHAR 0323
ENCODING 803
SWIDTH 0 0
DWIDTH 0 0
BBX 6 5 -6 -10
BITMAP
78
FC
FC
FC
78
ENDCHAR
STARTCHAR 0326
ENCODING 806
SWIDTH 0 0
DWIDTH 0 0
BBX 6 7 -6 -9
BITMAP
1C
38
38
30
70
70
E0
ENDCHAR
STARTCHAR 0327
ENCODING 807
SWIDTH 0 0
DWIDTH 0 0
BBX 8 8 -8 -8
BITMAP
0C
1C
1E
03
03
C3
FF
7E
ENDCHAR
STARTCHAR 0328
ENCODING 808
SWIDTH 0 0
DWIDTH 0 0
BBX 8 7 -8 -7
BITMAP
3C
60
60
C0
E2
7F
3E
ENDCHAR
STARTCHAR 0335
ENCODING 821
SWIDTH 0 0
DWIDTH 0 0
BBX 13 3 -13 7
BITMAP
FFF8
FFF8
FFF8
ENDCHAR
STARTCHAR 1EA0
ENCODING 7840
SWIDTH 540 0
DWIDTH 21 0
BBX 19 38 2 -10
BITMAP
03C000
0FF800
3FFC00
3FFE00
7C1E00
780F00
F00F00
F00F00
F00700
F00700
F00700
F00700
F00700
F00700
F00700
F00700
F00700
F00700
F00700
F00700
F00700
F00700
F00700
F00700
F00700
FFFFE0
FFFFE0
FFFFE0
000000
000000
000000
000000
000000
03C000
03E000
07E000
07E000
03C000
ENDCHAR
STARTCHAR 1EA1
ENCODING 7841
SWIDTH 540 0
DWIDTH 21 0
BBX 19 38 2 -10
BITMAP
03C000
0FF800
3FFC00
3FFE00
7C1E00
780F00
F00F00
F00F00
F00700
F00700
F00700
F00700
F00700
F00700
F00700
F00700
F00700
F00700
F00700
F00700
F00700
F00700
F00700
F00700
F00700
FFFFE0
FFFFE0
FFFFE0
000000
000000
000000
000000
000000
03C000
03E000
07E000
07E000
03C000
ENDCHAR
STARTCHAR 1EA2
ENCODING 7842
SWIDTH 540 0
DWIDTH 21 0
BBX 19 37 2 0
BITMAP
018000
01C000
01C000
018000
018000
038000
018000
000000
000000
03C000
0FF800
3FFC00
3FFE00
7C1E00
780F00
F00F00
F00F00
F00700
F00700
F00700
F00700
F00700
F00700
F00700
F00700
F00700
F00700
F00700
F00700
F00700
F00700
F00700
F00700
F00700
FFFFE0
FFFFE0
FFFFE0
ENDCHAR
STARTCHAR 1EA3
ENCODING 7843
SWIDTH 540 0
DWIDTH 21 0
BBX 19 37 2 0
BITMAP
018000
01C000
01C000
018000
018000
038000
018000
000000
000000
03C000
0FF800
3FFC00
3FFE00
7C1E00
780F00
F00F00
F00F00
F00700
F00700
F00700
F00700
F00700
F00700
F00700
F00700
F00700
F00700
F00700
F00700
F00700
F00700
F00700
F00700
F00700
FFFFE0
FFFFE0
FFFFE0
ENDCHAR
STARTCHAR 1EA4
ENCODING 7844
SWIDTH 540 0
DWIDTH 21 0
BBX 19 38 2 0
BITMAP
0001C0
0001C0
000380
03C300
07E600
077000
0E7800
1C3800
000400
000000
03C000
0FF800
3FFC00
3FFE00
7C1E00
780F00
F00F00
F00F00
F00700
F00700
F00700
F00700
F00700
F00700
F00700
F00700
F00700
F00700
F00700
F00700
F00700
F00700
F00700
F00700
F00700
FFFFE0
FFFFE0
FFFFE0
ENDCHAR
STARTCHAR 1EA5
ENCODING 7845
SWIDTH 540 0
DWIDTH 21 0
BBX 19 38 2 0
BITMAP
0001C0
0001C0
000380
03C300
07E600
077000
0E7800
1C3800
000400
000000
03C000
0FF800
3FFC00
3FFE00
7C1E00
780F00
F00F00
F00F00
F00700
F00700
F00700
F00700
F00700
F00700
F00700
F00700
F00700
F00700
F00700
F00700
F00700
F00700
F00700
F00700
F00700
FFFFE0
FFFFE0
FFFFE0
ENDCHAR
STARTCHAR 1EA6
ENCODING 7846
SWIDTH 540 0
DWIDTH 21 0
BBX 22 38 -1 0
BITMAP
E00000
700000
300000
387800
18FC00
00EE00
01CF00
038700
000080
000000
007800
01FF00
07FF80
07FFC0
0F83C0
0F01E0
1E01E0
1E01E0
1E00E0
1E00E0
1E00E0
1E00E0
1E00E0
1E00E0
1E00E0
1E00E0
1E00E0
1E00E0
1E00E0
1E00E0
1E00E0
1E00E0
1E00E0
1E00E0
1E00E0
1FFFFC
1FFFFC
1FFFFC
ENDCHAR
STARTCHAR 1EA7
ENCODING 7847
SWIDTH 540 0
DWIDTH 21 0
BBX 22 38 -1 0
BITMAP
E00000
700000
300000
387800
18FC00
00EE00
01CF00
038700
000080
000000
007800
01FF00
07FF80
07FFC0
0F83C0
0F01E0
1E01E0
1E01E0
1E00E0
1E00E0
1E00E0
1E00E0
1E00E0
1E00E0
1E00E0
1E00E0
1E00E0
1E00E0
1E00E0
1E00E0
1E00E0
1E00E0
1E00E0
1E00E0
1E00E0
1FFFFC
1FFFFC
1FFFFC
ENDCHAR
STARTCHAR 1EA8
ENCODING 7848
SWIDTH 540 0
DWIDTH 21 0
BBX 19 40 2 0
BITMAP
000300
000300
000300
000700
000600
03C600
07E600
077000
0E7800
1C3800
000400
000000
03C000
0FF800
3FFC00
3FFE00
7C1E00
780F00
F00F00
F00F00
F00700
F00700
F00700
F00700
F00700
F00700
F00700
F00700
F00700
F00700
F00700
F00700
F00700
F00700
F00700
F00700
F00700
FFFFE0
FFFFE0
FFFFE0
ENDCHAR
STARTCHAR 1EA9
ENCODING 7849
SWIDTH 540 0
DWIDTH 21 0
BBX 19 40 2 0
BITMAP
000300
000300
000300
000700
000600
03C600
07E600
077000
0E7800
1C3800
000400
000000
03C000
0FF800
3FFC00
3FFE00
7C1E00
780F00
F00F00
F00F00
F00700
F00700
F00700
F00700
F00700
F00700
F00700
F00700
F00700
F00700
F00700
F00700
F00700
F00700
F00700
F00700
F00700
FFFFE0
FFFFE0
FFFFE0
ENDCHAR
STARTCHAR 1EAA
ENCODING 7850
SWIDTH 540 0
DWIDTH 21 0
BBX 19 39 2 0
BITMAP
007000
00FF80
00FF80
000000
03C000
07E000
077000
0E7800
1C3800
000400
000000
03C000
0FF800
3FFC00
3FFE00
7C1E00
780F00
F00F00
F00F00
F00700
F00700
F00700
F00700
F00700
F00700
F00700
F00700
F00700
F00700
F00700
F00700
F00700
F00700
F00700
F00700
F00700
FFFFE0
FFFFE0
FFFFE0
ENDCHAR
STARTCHAR 1EAB
ENCODING 7851
SWIDTH 540 0
DWIDTH 21 0
BBX 19 39 2 0
BITMAP
007000
00FF80
00FF80
000000
03C000
07E000
077000
0E7800
1C3800
000400
000000
03C000
0FF800
3FFC00
3FFE00
7C1E00
780F00
F00F00
F00F00
F00700
F00700
F00700
F00700
F00700
F00700
F00700
F00700
F00700
F00700
F00700
F00700
F00700
F00700
F00700
F00700
F00700
FFFFE0
FFFFE0
FFFFE0
ENDCHAR
STARTCHAR 1EAC
ENCODING 7852
SWIDTH 540 0
DWIDTH 21 0
BBX 19 45 2 -10
BITMAP
03C000
07E000
077000
0E7800
1C3800
000400
000000
03C000
0FF800
3FFC00
3FFE00
7C1E00
780F00
F00F00
F00F00
F00700
F00700
F00700
F00700
F00700
F00700
F00700
F00700
F00700
F00700
F00700
F00700
F00700
F00700
F00700
F00700
F00700
FFFFE0
FFFFE0
FFFFE0
000000
000000
000000
000000
000000
03C000
03E000
07E000
07E000
03C000
ENDCHAR
STARTCHAR 1EAD
ENCODING 7853
SWIDTH 540 0
DWIDTH 21 0
BBX 19 45 2 -10
BITMAP
03C000
07E000
077000
0E7800
1C3800
000400
000000
03C000
0FF800
3FFC00
3FFE00
7C1E00
780F00
F00F00
F00F00
F00700
F00700
F00700
F00700
F00700
F00700
F00700
F00700
F00700
F00700
F00700
F00700
F00700
F00700
F00700
F00700
F00700
FFFFE0
FFFFE0
FFFFE0
000000
000000
000000
000000
000000
03C000
03E000
07E000
07E000
03C000
ENDCHAR
STARTCHAR 1EAE
ENCODING 7854
SWIDTH 540 0
DWIDTH 21 0
BBX 19 40 2 0
BITMAP
003800
007000
006000
00E000
01C000
181C00
1C1800
1C3800
0FF000
07E000
000000
000000
03C000
0FF800
3FFC00
3FFE00
7C1E00
780F00
F00F00
F00F00
F00700
F00700
F00700
F00700
F00700
F00700
F00700
F00700
F00700
F00700
F00700
F00700
F00700
F00700
F00700
F00700
F00700
FFFFE0
FFFFE0
FFFFE0
ENDCHAR
STARTCHAR 1EAF
ENCODING 7855
SWIDTH 540 0
DWIDTH 21 0
BBX 19 40 2 0
BITMAP
003800
007000
006000
00E000
01C000
181C00
1C1800
1C3800
0FF000
07E000
000000
000000
03C000
0FF800
3FFC00
3FFE00
7C1E00
780F00
F00F00
F00F00
F00700
F00700
F00700
F00700
F00700
F00700
F00700
F00700
F00700
F00700
F00700
F00700
F00700
F00700
F00700
F00700
F00700
FFFFE0
FFFFE0
FFFFE0
ENDCHAR
STARTCHAR 1EB0
ENCODING 7856
SWIDTH 540 0
DWIDTH 21 0
BBX 19 40 2 0
BITMAP
1C0000
0E0000
0E0000
070000
030000
199C00
181800
1C3800
0FF000
07E000
000000
000000
03C000
0FF800
3FFC00
3FFE00
7C1E00
780F00
F00F00
F00F00
F00700
F00700
F00700
F00700
F00700
F00700
F00700
F00700
F00700
F00700
F00700
F00700
F00700
F00700
F00700
F00700
F00700
FFFFE0
FFFFE0
FFFFE0
ENDCHAR
STARTCHAR 1EB1
ENCODING 7857
SWIDTH 540 0
DWIDTH 21 0
BBX 19 40 2 0
BITMAP
1C0000
0E0000
0E0000
070000
030000
199C00
181800
1C3800
0FF000
07E000
000000
000000
03C000
0FF800
3FFC00
3FFE00
7C1E00
780F00
F00F00
F00F00
F00700
F00700
F00700
F00700
F00700
F00700
F00700
F00700
F00700
F00700
F00700
F00700
F00700
F00700
F00700
F00700
F00700
FFFFE0
FFFFE0
FFFFE0
ENDCHAR
STARTCHAR 1EB2
ENCODING 7858
SWIDTH 540 0
DWIDTH 21 0
BBX 19 41 2 0
BITMAP
00C000
00C000
00C000
01C000
018000
018000
199C00
1DD800
1C3800
0FF000
07E000
000000
000000
03C000
0FF800
3FFC00
3FFE00
7C1E00
780F00
F00F00
F00F00
F00700
F00700
F00700
F00700
F00700
F00700
F00700
F00700
F00700
F00700
F00700
F00700
F00700
F00700
F00700
F00700
F00700
FFFFE0
FFFFE0
FFFFE0
ENDCHAR
STARTCHAR 1EB3
ENCODING 7859
SWIDTH 540 0
DWIDTH 21 0
BBX 19 41 2 0
BITMAP
00C000
00C000
00C000
01C000
018000
018000
199C00
1DD800
1C3800
0FF000
07E000
000000
000000
03C000
0FF800
3FFC00
3FFE00
7C1E00
780F00
F00F00
F00F00
F00700
F00700
F00700
F00700
F00700
F00700
F00700
F00700
F00700
F00700
F00700
F00700
F00700
F00700
F00700
F00700
F00700
FFFFE0
FFFFE0
FFFFE0
ENDCHAR
STARTCHAR 1EB4
ENCODING 7860
SWIDTH 540 0
DWIDTH 21 0
BBX 19 39 2 0
BITMAP
0F8800
0FF800
09F800
000000
181C00
1C1800
1C3800
0FF000
07E000
000000
000000
03C000
0FF800
3FFC00
3FFE00
7C1E00
780F00
F00F00
F00F00
F00700
F00700
F00700
F00700
F00700
F00700
F00700
F00700
F00700
F00700
F00700
F00700
F00700
F00700
F00700
F00700
F00700
FFFFE0
FFFFE0
FFFFE0
ENDCHAR
STARTCHAR 1EB5
ENCODING 7861
SWIDTH 540 0
DWIDTH 21 0
BBX 19 39 2 0
BITMAP
0F8800
0FF800
09F800
000000
181C00
1C1800
1C3800
0FF000
07E000
000000
000000
03C000
0FF800
3FFC00
3FFE00
7C1E00
780F00
F00F00
F00F00
F00700
F00700
F00700
F00700
F00700
F00700
F00700
F00700
F00700
F00700
F00700
F00700
F00700
F00700
F00700
F00700
F00700
FFFFE0
FFFFE0
FFFFE0
ENDCHAR
STARTCHAR 1EB6
ENCODING 7862
SWIDTH 540 0
DWIDTH 21 0
BBX 19 45 2 -10
BITMAP
181C00
1C1800
1C3800
0FF000
07E000
000000
000000
03C000
0FF800
3FFC00
3FFE00
7C1E00
780F00
F00F00
F00F00
F00700
F00700
F00700
F00700
F00700
F00700
F00700
F00700
F00700
F00700
F00700
F00700
F00700
F00700
F00700
F00700
F00700
FFFFE0
FFFFE0
FFFFE0
000000
000000
000000
000000
000000
03C000
03E000
07E000
07E000
03C000
ENDCHAR
STARTCHAR 1EB7
ENCODING 7863
SWIDTH 540 0
DWIDTH 21 0
BBX 19 45 2 -10
BITMAP
181C00
1C1800
1C3800
0FF000
07E000
000000
000000
03C000
0FF800
3FFC00
3FFE00
7C1E00
780F00
F00F00
F00F00
F00700
F00700
F00700
F00700
F00700
F00700
F00700
F00700
F00700
F00700
F00700
F00700
F00700
F00700
F00700
F00700
F00700
FFFFE0
FFFFE0
FFFFE0
000000
000000
000000
000000
000000
03C000
03E000
07E000
07E000
03C000
ENDCHAR
STARTCHAR 1EB8
ENCODING 7864
SWIDTH 488 0
DWIDTH 19 0
BBX 18 37 1 -10
BITMAP
1FFC00
1FFC00
1FFC00
1C0000
1C0000
1C0000
1C0000
1C0000
1C0000
1C0000
1C0000
1C0000
FFFE00
FFFE00
FFFE00
1C0000
1C0000
1C0000
1C0000
1C0000
1C0000
1C0000
1C0000
1C0000
1FFFC0
1FFFC0
1FFFC0
000000
000000
000000
000000
000000
007800
00F800
00FC00
00FC00
007800
ENDCHAR
STARTCHAR 1EB9
ENCODING 7865
SWIDTH 488 0
DWIDTH 19 0
BBX 18 37 1 -10
BITMAP
1FFC00
1FFC00
1FFC00
1C0000
1C0000
1C0000
1C0000
1C0000
1C0000
1C0000
1C0000
1C0000
FFFE00
FFFE00
FFFE00
1C0000
1C0000
1C0000
1C0000
1C0000
1C0000
1C0000
1C0000
1C0000
1FFFC0
1FFFC0
1FFFC0
000000
000000
000000
000000
000000
007800
00F800
00FC00
00FC00
007800
ENDCHAR
STARTCHAR 1EBA
ENCODING 7866
SWIDTH 488 0
DWIDTH 19 0
BBX 18 37 1 0
BITMAP
018000
01C000
01C000
018000
038000
038000
038000
000000
000000
000000
1FFC00
1FFC00
1FFC00
1C0000
1C0000
1C0000
1C0000
1C0000
1C0000
1C0000
1C0000
1C0000
FFFE00
FFFE00
FFFE00
1C0000
1C0000
1C0000
1C0000
1C0000
1C0000
1C0000
1C0000
1C0000
1FFFC0
1FFFC0
1FFFC0
ENDCHAR
STARTCHAR 1EBB
ENCODING 7867
SWIDTH 488 0
DWIDTH 19 0
BBX 18 37 1 0
BITMAP
018000
01C000
01C000
018000
038000
038000
038000
000000
000000
000000
1FFC00
1FFC00
1FFC00
1C0000
1C0000
1C0000
1C0000
1C0000
1C0000
1C0000
1C0000
1C0000
FFFE00
FFFE00
FFFE00
1C0000
1C0000
1C0000
1C0000
1C0000
1C0000
1C0000
1C0000
1C0000
1FFFC0
1FFFC0
1FFFC0
ENDCHAR
STARTCHAR 1EBC
ENCODING 7868
SWIDTH 488 0
DWIDTH 19 0
BBX 18 34 1 0
BITMAP
1FB000
1FF000
00F000
000000
000000
000000
000000
1FFC00
1FFC00
1FFC00
1C0000
1C0000
1C0000
1C0000
1C0000
1C0000
1C0000
1C0000
1C0000
FFFE00
FFFE00
FFFE00
1C0000
1C0000
1C0000
1C0000
1C0000
1C0000
1C0000
1C0000
1C0000
1FFFC0
1FFFC0
1FFFC0
ENDCHAR
STARTCHAR 1EBD
ENCODING 7869
SWIDTH 488 0
DWIDTH 19 0
BBX 18 34 1 0
BITMAP
1FB000
1FF000
00F000
000000
000000
000000
000000
1FFC00
1FFC00
1FFC00
1C0000
1C0000
1C0000
1C0000
1C0000
1C0000
1C0000
1C0000
1C0000
FFFE00
FFFE00
FFFE00
1C0000
1C0000
1C0000
1C0000
1C0000
1C0000
1C0000
1C0000
1C0000
1FFFC0
1FFFC0
1FFFC0
ENDCHAR
STARTCHAR 1EBE
ENCODING 7870
SWIDTH 488 0
DWIDTH 19 0
BBX 18 38 1 0
BITMAP
0001C0
0001C0
000380
03C300
07E600
0FF000
0E7800
1C3800
000400
000000
000000
1FFC00
1FFC00
1FFC00
1C0000
1C0000
1C0000
1C0000
1C0000
1C0000
1C0000
1C0000
1C0000
FFFE00
FFFE00
FFFE00
1C0000
1C0000
1C0000
1C0000
1C0000
1C0000
1C0000
1C0000
1C0000
1FFFC0
1FFFC0
1FFFC0
ENDCHAR
STARTCHAR 1EBF
ENCODING 7871
SWIDTH 488 0
DWIDTH 19 0
BBX 18 38 1 0
BITMAP
0001C0
0001C0
000380
03C300
07E600
0FF000
0E7800
1C3800
000400
000000
000000
1FFC00
1FFC00
1FFC00
1C0000
1C0000
1C0000
1C0000
1C0000
1C0000
1C0000
1C0000
1C0000
FFFE00
FFFE00
FFFE00
1C0000
1C0000
1C0000
1C0000
1C0000
1C0000
1C0000
1C0000
1C0000
1FFFC0
1FFFC0
1FFFC0
ENDCHAR
STARTCHAR 1EC0
ENCODING 7872
SWIDTH 488 0
DWIDTH 19 0
BBX 21 38 -2 0
BITMAP
E00000
700000
300000
387800
18FC00
01FE00
01CF00
038700
000080
000000
000000
03FF80
03FF80
03FF80
038000
038000
038000
038000
038000
038000
038000
038000
038000
1FFFC0
1FFFC0
1FFFC0
038000
038000
038000
038000
038000
038000
038000
038000
038000
03FFF8
03FFF8
03FFF8
ENDCHAR
STARTCHAR 1EC1
ENCODING 7873
SWIDTH 488 0
DWIDTH 19 0
BBX 21 38 -2 0
BITMAP
E00000
700000
300000
387800
18FC00
01FE00
01CF00
038700
000080
000000
000000
03FF80
03FF80
03FF80
038000
038000
038000
038000
038000
038000
038000
038000
038000
1FFFC0
1FFFC0
1FFFC0
038000
038000
038000
038000
038000
038000
038000
038000
038000
03FFF8
03FFF8
03FFF8
ENDCHAR
STARTCHAR 1EC2
ENCODING 7874
SWIDTH 488 0
DWIDTH 19 0
BBX 18 40 1 0
BITMAP
000700
000300
000300
000700
000600
03C600
07E600
0FF000
0E7800
1C3800
000400
000000
000000
1FFC00
1FFC00
1FFC00
1C0000
1C0000
1C0000
1C0000
1C0000
1C0000
1C0000
1C0000
1C0000
FFFE00
FFFE00
FFFE00
1C0000
1C0000
1C0000
1C0000
1C0000
1C0000
1C0000
1C0000
1C0000
1FFFC0
1FFFC0
1FFFC0
ENDCHAR
STARTCHAR 1EC3
ENCODING 7875
SWIDTH 488 0
DWIDTH 19 0
BBX 18 40 1 0
BITMAP
000700
000300
000300
000700
000600
03C600
07E600
0FF000
0E7800
1C3800
000400
000000
000000
1FFC00
1FFC00
1FFC00
1C0000
1C0000
1C0000
1C0000
1C0000
1C0000
1C0000
1C0000
1C0000
FFFE00
FFFE00
FFFE00
1C0000
1C0000
1C0000
1C0000
1C0000
1C0000
1C0000
1C0000
1C0000
1FFFC0
1FFFC0
1FFFC0
ENDCHAR
STARTCHAR 1EC4
ENCODING 7876
SWIDTH 488 0
DWIDTH 19 0
BBX 18 39 1 0
BITMAP
00F000
00FF80
00FF80
000000
03C000
07E000
0FF000
0E7800
1C3800
000400
000000
000000
1FFC00
1FFC00
1FFC00
1C0000
1C0000
1C0000
1C0000
1C0000
1C0000
1C0000
1C0000
1C0000
FFFE00
FFFE00
FFFE00
1C0000
1C0000
1C0000
1C0000
1C0000
1C0000
1C0000
1C0000
1C0000
1FFFC0
1FFFC0
1FFFC0
ENDCHAR
STARTCHAR 1EC5
ENCODING 7877
SWIDTH 488 0
DWIDTH 19 0
BBX 18 39 1 0
BITMAP
00F000
00FF80
00FF80
000000
03C000
07E000
0FF000
0E7800
1C3800
000400
000000
000000
1FFC00
1FFC00
1FFC00
1C0000
1C0000
1C0000
1C0000
1C0000
1C0000
1C0000
1C0000
1C0000
FFFE00
FFFE00
FFFE00
1C0000
1C0000
1C0000
1C0000
1C0000
1C0000
1C0000
1C0000
1C0000
1FFFC0
1FFFC0
1FFFC0
ENDCHAR
STARTCHAR 1EC6
ENCODING 7878
SWIDTH 488 0
DWIDTH 19 0
BBX 18 45 1 -10
BITMAP
03C000
07E000
0FF000
0E7800
1C3800
000400
000000
000000
1FFC00
1FFC00
1FFC00
1C0000
1C0000
1C0000
1C0000
1C0000
1C0000
1C0000
1C0000
1C0000
FFFE00
FFFE00
FFFE00
1C0000
1C0000
1C0000
1C0000
1C0000
1C0000
1C0000
1C0000
1C0000
1FFFC0
1FFFC0
1FFFC0
000000
000000
000000
000000
000000
007800
00F800
00FC00
00FC00
007800
ENDCHAR
STARTCHAR 1EC7
ENCODING 7879
SWIDTH 488 0
DWIDTH 19 0
BBX 18 45 1 -10
BITMAP
03C000
07E000
0FF000
0E7800
1C3800
000400
000000
000000
1FFC00
1FFC00
1FFC00
1C0000
1C0000
1C0000
1C0000
1C0000
1C0000
1C0000
1C0000
1C0000
FFFE00
FFFE00
FFFE00
1C0000
1C0000
1C0000
1C0000
1C0000
1C0000
1C0000
1C0000
1C0000
1FFFC0
1FFFC0
1FFFC0
000000
000000
000000
000000
000000
007800
00F800
00FC00
00FC00
007800
ENDCHAR
STARTCHAR 1EC8
ENCODING 7880
SWIDTH 180 0
DWIDTH 7 0
BBX 4 26 2 0
BITMAP
60
60
60
E0
E0
E0
E0
00
00
F0
F0
F0
F0
F0
F0
F0
F0
F0
F0
F0
F0
F0
F0
F0
F0
F0
ENDCHAR
STARTCHAR 1EC9
ENCODING 7881
SWIDTH 180 0
DWIDTH 7 0
BBX 4 26 2 0
BITMAP
60
60
60
E0
E0
E0
E0
00
00
F0
F0
F0
F0
F0
F0
F0
F0
F0
F0
F0
F0
F0
F0
F0
F0
F0
ENDCHAR
STARTCHAR 1ECA
ENCODING 7882
SWIDTH 180 0
DWIDTH 7 0
BBX 9 40 -1 -9
BITMAP
0800
0C00
0C00
FF80
3F00
1E00
3E00
2200
0100
0000
0000
0000
0000
1E00
1E00
1E00
1E00
1E00
1E00
1E00
1E00
1E00
1E00
1E00
1E00
1E00
1E00
1E00
1E00
1E00
0000
0000
0000
0000
0000
1E00
3E00
3F00
3E00
1E00
ENDCHAR
STARTCHAR 1ECB
ENCODING 7883
SWIDTH 180 0
DWIDTH 7 0
BBX 9 40 -1 -9
BITMAP
0800
0C00
0C00
FF80
3F00
1E00
3E00
2200
0100
0000
0000
0000
0000
1E00
1E00
1E00
1E00
1E00
1E00
1E00
1E00
1E00
1E00
1E00
1E00
1E00
1E00
1E00
1E00
1E00
0000
0000
0000
0000
0000
1E00
3E00
3F00
3E00
1E00
ENDCHAR
STARTCHAR 1ECC
ENCODING 7884
SWIDTH 797 0
DWIDTH 31 0
BBX 29 38 1 -10
BITMAP
000FC000
00FFF800
01FFFE00
07FFFF00
0FC01F80
1F8007C0
1E0003E0
3C0001F0
7C0000F0
78000078
78000078
70000078
F0000038
F0000038
F0000038
F0000038
F0000038
70000078
78000078
78000078
3C0000F0
3E0001F0
1F0003E0
0F8007C0
0FE01F80
03FFFF00
01FFFE00
007FF800
00030000
00000000
00000000
00000000
00000000
00078000
000FC000
000FC000
000FC000
00078000
ENDCHAR
STARTCHAR 1ECD
ENCODING 7885
SWIDTH 797 0
DWIDTH 31 0
BBX 29 38 1 -10
BITMAP
000FC000
00FFF800
01FFFE00
07FFFF00
0FC01F80
1F8007C0
1E0003E0
3C0001F0
7C0000F0
78000078
78000078
70000078
F0000038
F0000038
F0000038
F0000038
F0000038
70000078
78000078
78000078
3C0000F0
3E0001F0
1F0003E0
0F8007C0
0FE01F80
03FFFF00
01FFFE00
007FF800
00030000
00000000
00000000
00000000
00000000
00078000
000FC000
000FC000
000FC000
00078000
ENDCHAR
STARTCHAR 1ECE
ENCODING 7886
SWIDTH 797 0
DWIDTH 31 0
BBX 29 38 1 -1
BITMAP
00030000
00030000
00030000
00030000
00070000
00060000
00070000
00000000
00000000
000FC000
00FFF800
01FFFE00
07FFFF00
0FC01F80
1F8007C0
1E0003E0
3C0001F0
7C0000F0
78000078
78000078
70000078
F0000038
F0000038
F0000038
F0000038
F0000038
70000078
78000078
78000078
3C0000F0
3E0001F0
1F0003E0
0F8007C0
0FE01F80
03FFFF00
01FFFE00
007FF800
00030000
ENDCHAR
STARTCHAR 1ECF
ENCODING 7887
SWIDTH 797 0
DWIDTH 31 0
BBX 29 38 1 -1
BITMAP
00030000
00030000
00030000
00030000
00070000
00060000
00070000
00000000
00000000
000FC000
00FFF800
01FFFE00
07FFFF00
0FC01F80
1F8007C0
1E0003E0
3C0001F0
7C0000F0
78000078
78000078
70000078
F0000038
F0000038
F0000038
F0000038
F0000038
70000078
78000078
78000078
3C0000F0
3E0001F0
1F0003E0
0F8007C0
0FE01F80
03FFFF00
01FFFE00
007FF800
00030000
ENDCHAR
STARTCHAR 1ED0
ENCODING 7888
SWIDTH 797 0
DWIDTH 31 0
BBX 29 39 1 -1
BITMAP
00000380
00000300
00000700
00078E00
000FCC00
001DE000
003CE000
00387000
00400000
00000000
000FC000
00FFF800
01FFFE00
07FFFF00
0FC01F80
1F8007C0
1E0003E0
3C0001F0
7C0000F0
78000078
78000078
70000078
F0000038
F0000038
F0000038
F0000038
F0000038
70000078
78000078
78000078
3C0000F0
3E0001F0
1F0003E0
0F8007C0
0FE01F80
03FFFF00
01FFFE00
007FF800
00030000
ENDCHAR
STARTCHAR 1ED1
ENCODING 7889
SWIDTH 797 0
DWIDTH 31 0
BBX 29 39 1 -1
BITMAP
00000380
00000300
00000700
00078E00
000FCC00
001DE000
003CE000
00387000
00400000
00000000
000FC000
00FFF800
01FFFE00
07FFFF00
0FC01F80
1F8007C0
1E0003E0
3C0001F0
7C0000F0
78000078
78000078
70000078
F0000038
F0000038
F0000038
F0000038
F0000038
70000078
78000078
78000078
3C0000F0
3E0001F0
1F0003E0
0F8007C0
0FE01F80
03FFFF00
01FFFE00
007FF800
00030000
ENDCHAR
STARTCHAR 1ED2
ENCODING 7890
SWIDTH 797 0
DWIDTH 31 0
BBX 29 39 1 -1
BITMAP
0E000000
06000000
07000000
03878000
018FC000
001DE000
003CE000
00387000
00400000
00000000
000FC000
00FFF800
01FFFE00
07FFFF00
0FC01F80
1F8007C0
1E0003E0
3C0001F0
7C0000F0
78000078
78000078
70000078
F0000038
F0000038
F0000038
F0000038
F0000038
70000078
78000078
78000078
3C0000F0
3E0001F0
1F0003E0
0F8007C0
0FE01F80
03FFFF00
01FFFE00
007FF800
00030000
ENDCHAR
STARTCHAR 1ED3
ENCODING 7891
SWIDTH 797 0
DWIDTH 31 0
BBX 29 39 1 -1
BITMAP
0E000000
06000000
07000000
03878000
018FC000
001DE000
003CE000
00387000
00400000
00000000
000FC000
00FFF800
01FFFE00
07FFFF00
0FC01F80
1F8007C0
1E0003E0
3C0001F0
7C0000F0
78000078
78000078
70000078
F0000038
F0000038
F0000038
F0000038
F0000038
70000078
78000078
78000078
3C0000F0
3E0001F0
1F0003E0
0F8007C0
0FE01F80
03FFFF00
01FFFE00
007FF800
00030000
ENDCHAR
STARTCHAR 1ED4
ENCODING 7892
SWIDTH 797 0
DWIDTH 31 0
BBX 29 41 1 -1
BITMAP
00000E00
00000E00
00000E00
00000C00
00000C00
00079C00
000FCC00
001DE000
003CE000
00387000
00400000
00000000
000FC000
00FFF800
01FFFE00
07FFFF00
0FC01F80
1F8007C0
1E0003E0
3C0001F0
7C0000F0
78000078
78000078
70000078
F0000038
F0000038
F0000038
F0000038
F0000038
70000078
78000078
78000078
3C0000F0
3E0001F0
1F0003E0
0F8007C0
0FE01F80
03FFFF00
01FFFE00
007FF800
00030000
ENDCHAR
STARTCHAR 1ED5
ENCODING 7893
SWIDTH 797 0
DWIDTH 31 0
BBX 29 41 1 -1
BITMAP
00000E00
00000E00
00000E00
00000C00
00000C00
00079C00
000FCC00
001DE000
003CE000
00387000
00400000
00000000
000FC000
00FFF800
01FFFE00
07FFFF00
0FC01F80
1F8007C0
1E0003E0
3C0001F0
7C0000F0
78000078
78000078
70000078
F0000038
F0000038
F0000038
F0000038
F0000038
70000078
78000078
78000078
3C0000F0
3E0001F0
1F0003E0
0F8007C0
0FE01F80
03FFFF00
01FFFE00
007FF800
00030000
ENDCHAR
STARTCHAR 1ED6
ENCODING 7894
SWIDTH 797 0
DWIDTH 31 0
BBX 29 40 1 -1
BITMAP
0001E000
0001FF00
0001FF00
00000000
00078000
000FC000
001DE000
003CE000
00387000
00400000
00000000
000FC000
00FFF800
01FFFE00
07FFFF00
0FC01F80
1F8007C0
1E0003E0
3C0001F0
7C0000F0
78000078
78000078
70000078
F0000038
F0000038
F0000038
F0000038
F0000038
70000078
78000078
78000078
3C0000F0
3E0001F0
1F0003E0
0F8007C0
0FE01F80
03FFFF00
01FFFE00
007FF800
00030000
ENDCHAR
STARTCHAR 1ED7
ENCODING 7895
SWIDTH 797 0
DWIDTH 31 0
BBX 29 40 1 -1
BITMAP
0001E000
0001FF00
0001FF00
00000000
00078000
000FC000
001DE000
003CE000
00387000
00400000
00000000
000FC000
00FFF800
01FFFE00
07FFFF00
0FC01F80
1F8007C0
1E0003E0
3C0001F0
7C0000F0
78000078
78000078
70000078
F0000038
F0000038
F0000038
F0000038
F0000038
70000078
78000078
78000078
3C0000F0
3E0001F0
1F0003E0
0F8007C0
0FE01F80
03FFFF00
01FFFE00
007FF800
00030000
ENDCHAR
STARTCHAR 1ED8
ENCODING 7896
SWIDTH 797 0
DWIDTH 31 0
BBX 29 45 1 -10
BITMAP
00078000
000FC000
001DE000
003CE000
00387000
00400000
00000000
000FC000
00FFF800
01FFFE00
07FFFF00
0FC01F80
1F8007C0
1E0003E0
3C0001F0
7C0000F0
78000078
78000078
70000078
F0000038
F0000038
F0000038
F0000038
F0000038
70000078
78000078
78000078
3C0000F0
3E0001F0
1F0003E0
0F8007C0
0FE01F80
03FFFF00
01FFFE00
007FF800
00030000
00000000
00000000
00000000
00000000
00078000
000FC000
000FC000
000FC000
00078000
ENDCHAR
STARTCHAR 1ED9
ENCODING 7897
SWIDTH 797 0
DWIDTH 31 0
BBX 29 45 1 -10
BITMAP
00078000
000FC000
001DE000
003CE000
00387000
00400000
00000000
000FC000
00FFF800
01FFFE00
07FFFF00
0FC01F80
1F8007C0
1E0003E0
3C0001F0
7C0000F0
78000078
78000078
70000078
F0000038
F0000038
F0000038
F0000038
F0000038
70000078
78000078
78000078
3C0000F0
3E0001F0
1F0003E0
0F8007C0
0FE01F80
03FFFF00
01FFFE00
007FF800
00030000
00000000
00000000
00000000
00000000
00078000
000FC000
000FC000
000FC000
00078000
ENDCHAR
STARTCHAR 1EDA
ENCODING 7898
SWIDTH 797 0
DWIDTH 31 0
BBX 29 36 1 -1
BITMAP
0000E000
0001C000
00018000
00038000
000300C0
000600C0
000001C0
000FC1C0
00FFFF80
01FFFE00
07FFFF00
0FC01F80
1F8007C0
1E0003E0
3C0001F0
7C0000F0
78000078
78000078
70000078
F0000038
F0000038
F0000038
F0000038
F0000038
70000078
78000078
78000078
3C0000F0
3E0001F0
1F0003E0
0F8007C0
0FE01F80
03FFFF00
01FFFE00
007FF800
00030000
ENDCHAR
STARTCHAR 1EDB
ENCODING 7899
SWIDTH 797 0
DWIDTH 31 0
BBX 29 36 1 -1
BITMAP
0000E000
0001C000
00018000
00038000
000300C0
000600C0
000001C0
000FC1C0
00FFFF80
01FFFE00
07FFFF00
0FC01F80
1F8007C0
1E0003E0
3C0001F0
7C0000F0
78000078
78000078
70000078
F0000038
F0000038
F0000038
F0000038
F0000038
70000078
78000078
78000078
3C0000F0
3E0001F0
1F0003E0
0F8007C0
0FE01F80
03FFFF00
01FFFE00
007FF800
00030000
ENDCHAR
STARTCHAR 1EDC
ENCODING 7900
SWIDTH 797 0
DWIDTH 31 0
BBX 29 36 1 -1
BITMAP
001C0000
001C0000
000E0000
00070000
000300C0
000380C0
000001C0
000FC1C0
00FFFF80
01FFFE00
07FFFF00
0FC01F80
1F8007C0
1E0003E0
3C0001F0
7C0000F0
78000078
78000078
70000078
F0000038
F0000038
F0000038
F0000038
F0000038
70000078
78000078
78000078
3C0000F0
3E0001F0
1F0003E0
0F8007C0
0FE01F80
03FFFF00
01FFFE00
007FF800
00030000
ENDCHAR
STARTCHAR 1EDD
ENCODING 7901
SWIDTH 797 0
DWIDTH 31 0
BBX 29 36 1 -1
BITMAP
001C0000
001C0000
000E0000
00070000
000300C0
000380C0
000001C0
000FC1C0
00FFFF80
01FFFE00
07FFFF00
0FC01F80
1F8007C0
1E0003E0
3C0001F0
7C0000F0
78000078
78000078
70000078
F0000038
F0000038
F0000038
F0000038
F0000038
70000078
78000078
78000078
3C0000F0
3E0001F0
1F0003E0
0F8007C0
0FE01F80
03FFFF00
01FFFE00
007FF800
00030000
ENDCHAR
STARTCHAR 1EDE
ENCODING 7902
SWIDTH 797 0
DWIDTH 31 0
BBX 29 38 1 -1
BITMAP
00030000
00030000
00030000
00030000
00070000
00060000
000700C0
000000C0
000001C0
000FC1C0
00FFFF80
01FFFE00
07FFFF00
0FC01F80
1F8007C0
1E0003E0
3C0001F0
7C0000F0
78000078
78000078
70000078
F0000038
F0000038
F0000038
F0000038
F0000038
70000078
78000078
78000078
3C0000F0
3E0001F0
1F0003E0
0F8007C0
0FE01F80
03FFFF00
01FFFE00
007FF800
00030000
ENDCHAR
STARTCHAR 1EDF
ENCODING 7903
SWIDTH 797 0
DWIDTH 31 0
BBX 29 38 1 -1
BITMAP
00030000
00030000
00030000
00030000
00070000
00060000
000700C0
000000C0
000001C0
000FC1C0
00FFFF80
01FFFE00
07FFFF00
0FC01F80
1F8007C0
1E0003E0
3C0001F0
7C0000F0
78000078
78000078
70000078
F0000038
F0000038
F0000038
F0000038
F0000038
70000078
78000078
78000078
3C0000F0
3E0001F0
1F0003E0
0F8007C0
0FE01F80
03FFFF00
01FFFE00
007FF800
00030000
ENDCHAR
STARTCHAR 1EE0
ENCODING 7904
SWIDTH 797 0
DWIDTH 31 0
BBX 29 35 1 -1
BITMAP
003F6000
003FE000
0001C000
000000C0
000000C0
000001C0
000FC1C0
00FFFF80
01FFFE00
07FFFF00
0FC01F80
1F8007C0
1E0003E0
3C0001F0
7C0000F0
78000078
78000078
70000078
F0000038
F0000038
F0000038
F0000038
F0000038
70000078
78000078
78000078
3C0000F0
3E0001F0
1F0003E0
0F8007C0
0FE01F80
03FFFF00
01FFFE00
007FF800
00030000
ENDCHAR
STARTCHAR 1EE1
ENCODING 7905
SWIDTH 797 0
DWIDTH 31 0
BBX 29 35 1 -1
BITMAP
003F6000
003FE000
0001C000
000000C0
000000C0
000001C0
000FC1C0
00FFFF80
01FFFE00
07FFFF00
0FC01F80
1F8007C0
1E0003E0
3C0001F0
7C0000F0
78000078
78000078
70000078
F0000038
F0000038
F0000038
F0000038
F0000038
70000078
78000078
78000078
3C0000F0
3E0001F0
1F0003E0
0F8007C0
0FE01F80
03FFFF00
01FFFE00
007FF800
00030000
ENDCHAR
STARTCHAR 1EE2
ENCODING 7906
SWIDTH 797 0
DWIDTH 31 0
BBX 29 41 1 -10
BITMAP
000000C0
000000C0
000001C0
000FC1C0
00FFFF80
01FFFE00
07FFFF00
0FC01F80
1F8007C0
1E0003E0
3C0001F0
7C0000F0
78000078
78000078
70000078
F0000038
F0000038
F0000038
F0000038
F0000038
70000078
78000078
78000078
3C0000F0
3E0001F0
1F0003E0
0F8007C0
0FE01F80
03FFFF00
01FFFE00
007FF800
00030000
00000000
00000000
00000000
00000000
00078000
000FC000
000FC000
000FC000
00078000
ENDCHAR
STARTCHAR 1EE3
ENCODING 7907
SWIDTH 797 0
DWIDTH 31 0
BBX 29 41 1 -10
BITMAP
000000C0
000000C0
000001C0
000FC1C0
00FFFF80
01FFFE00
07FFFF00
0FC01F80
1F8007C0
1E0003E0
3C0001F0
7C0000F0
78000078
78000078
70000078
F0000038
F0000038
F0000038
F0000038
F0000038
70000078
78000078
78000078
3C0000F0
3E0001F0
1F0003E0
0F8007C0
0FE01F80
03FFFF00
01FFFE00
007FF800
00030000
00000000
00000000
00000000
00000000
00078000
000FC000
000FC000
000FC000
00078000
ENDCHAR
STARTCHAR 1EE4
ENCODING 7908
SWIDTH 488 0
DWIDTH 19 0
BBX 16 37 2 -10
BITMAP
E00F
E00F
E00F
E00F
E00F
E00F
E00F
E00F
E00F
E00F
E00F
E00F
E00F
E00F
E00F
E00F
E00F
E00F
E00F
E00F
F00F
F00F
F01E
7C3E
7FFC
3FF8
0FF0
0180
0000
0000
0000
0000
03C0
07E0
07E0
07E0
03C0
ENDCHAR
STARTCHAR 1EE5
ENCODING 7909
SWIDTH 488 0
DWIDTH 19 0
BBX 16 37 2 -10
BITMAP
E00F
E00F
E00F
E00F
E00F
E00F
E00F
E00F
E00F
E00F
E00F
E00F
E00F
E00F
E00F
E00F
E00F
E00F
E00F
E00F
F00F
F00F
F01E
7C3E
7FFC
3FF8
0FF0
0180
0000
0000
0000
0000
03C0
07E0
07E0
07E0
03C0
ENDCHAR
STARTCHAR 1EE6
ENCODING 7910
SWIDTH 488 0
DWIDTH 19 0
BBX 16 38 2 -1
BITMAP
0180
0180
0180
0180
0380
0380
0380
0000
0000
0000
E00F
E00F
E00F
E00F
E00F
E00F
E00F
E00F
E00F
E00F
E00F
E00F
E00F
E00F
E00F
E00F
E00F
E00F
E00F
E00F
F00F
F00F
F01E
7C3E
7FFC
3FF8
0FF0
0180
ENDCHAR
STARTCHAR 1EE7
ENCODING 7911
SWIDTH 488 0
DWIDTH 19 0
BBX 16 38 2 -1
BITMAP
0180
0180
0180
0180
0380
0380
0380
0000
0000
0000
E00F
E00F
E00F
E00F
E00F
E00F
E00F
E00F
E00F
E00F
E00F
E00F
E00F
E00F
E00F
E00F
E00F
E00F
E00F
E00F
F00F
F00F
F01E
7C3E
7FFC
3FF8
0FF0
0180
ENDCHAR
STARTCHAR 1EE8
ENCODING 7912
SWIDTH 488 0
DWIDTH 19 0
BBX 19 36 2 -1
BITMAP
007000
00E000
00E000
01C000
018060
0300E0
0000E0
0000C0
E00F80
E00F00
E00F00
E00F00
E00F00
E00F00
E00F00
E00F00
E00F00
E00F00
E00F00
E00F00
E00F00
E00F00
E00F00
E00F00
E00F00
E00F00
E00F00
E00F00
F00F00
F00F00
F01E00
7C3E00
7FFC00
3FF800
0FF000
018000
ENDCHAR
STARTCHAR 1EE9
ENCODING 7913
SWIDTH 488 0
DWIDTH 19 0
BBX 19 36 2 -1
BITMAP
007000
00E000
00E000
01C000
018060
0300E0
0000E0
0000C0
E00F80
E00F00
E00F00
E00F00
E00F00
E00F00
E00F00
E00F00
E00F00
E00F00
E00F00
E00F00
E00F00
E00F00
E00F00
E00F00
E00F00
E00F00
E00F00
E00F00
F00F00
F00F00
F01E00
7C3E00
7FFC00
3FF800
0FF000
018000
ENDCHAR
STARTCHAR 1EEA
ENCODING 7914
SWIDTH 488 0
DWIDTH 19 0
BBX 19 36 2 -1
BITMAP
0E0000
0E0000
070000
038000
018060
01C0E0
0000E0
0000C0
E00F80
E00F00
E00F00
E00F00
E00F00
E00F00
E00F00
E00F00
E00F00
E00F00
E00F00
E00F00
E00F00
E00F00
E00F00
E00F00
E00F00
E00F00
E00F00
E00F00
F00F00
F00F00
F01E00
7C3E00
7FFC00
3FF800
0FF000
018000
ENDCHAR
STARTCHAR 1EEB
ENCODING 7915
SWIDTH 488 0
DWIDTH 19 0
BBX 19 36 2 -1
BITMAP
0E0000
0E0000
070000
038000
018060
01C0E0
0000E0
0000C0
E00F80
E00F00
E00F00
E00F00
E00F00
E00F00
E00F00
E00F00
E00F00
E00F00
E00F00
E00F00
E00F00
E00F00
E00F00
E00F00
E00F00
E00F00
E00F00
E00F00
F00F00
F00F00
F01E00
7C3E00
7FFC00
3FF800
0FF000
018000
ENDCHAR
STARTCHAR 1EEC
ENCODING 7916
SWIDTH 488 0
DWIDTH 19 0
BBX 19 38 2 -1
BITMAP
018000
018000
018000
018000
038000
038000
038060
0000E0
0000E0
0000C0
E00F80
E00F00
E00F00
E00F00
E00F00
E00F00
E00F00
E00F00
E00F00
E00F00
E00F00
E00F00
E00F00
E00F00
E00F00
E00F00
E00F00
E00F00
E00F00
E00F00
F00F00
F00F00
F01E00
7C3E00
7FFC00
3FF800
0FF000
018000
ENDCHAR
STARTCHAR 1EED
ENCODING 7917
SWIDTH 488 0
DWIDTH 19 0
BBX 19 38 2 -1
BITMAP
018000
018000
018000
018000
038000
038000
038060
0000E0
0000E0
0000C0
E00F80
E00F00
E00F00
E00F00
E00F00
E00F00
E00F00
E00F00
E00F00
E00F00
E00F00
E00F00
E00F00
E00F00
E00F00
E00F00
E00F00
E00F00
E00F00
E00F00
F00F00
F00F00
F01E00
7C3E00
7FFC00
3FF800
0FF000
018000
ENDCHAR
STARTCHAR 1EEE
ENCODING 7918
SWIDTH 488 0
DWIDTH 19 0
BBX 19 35 2 -1
BITMAP
1FB000
1FF000
00F000
000060
0000E0
0000E0
0000C0
E00F80
E00F00
E00F00
E00F00
E00F00
E00F00
E00F00
E00F00
E00F00
E00F00
E00F00
E00F00
E00F00
E00F00
E00F00
E00F00
E00F00
E00F00
E00F00
E00F00
F00F00
F00F00
F01E00
7C3E00
7FFC00
3FF800
0FF000
018000
ENDCHAR
STARTCHAR 1EEF
ENCODING 7919
SWIDTH 488 0
DWIDTH 19 0
BBX 19 35 2 -1
BITMAP
1FB000
1FF000
00F000
000060
0000E0
0000E0
0000C0
E00F80
E00F00
E00F00
E00F00
E00F00
E00F00
E00F00
E00F00
E00F00
E00F00
E00F00
E00F00
E00F00
E00F00
E00F00
E00F00
E00F00
E00F00
E00F00
E00F00
F00F00
F00F00
F01E00
7C3E00
7FFC00
3FF800
0FF000
018000
ENDCHAR
STARTCHAR 1EF0
ENCODING 7920
SWIDTH 488 0
DWIDTH 19 0
BBX 19 41 2 -10
BITMAP
000060
0000E0
0000E0
0000C0
E00F80
E00F00
E00F00
E00F00
E00F00
E00F00
E00F00
E00F00
E00F00
E00F00
E00F00
E00F00
E00F00
E00F00
E00F00
E00F00
E00F00
E00F00
E00F00
E00F00
F00F00
F00F00
F01E00
7C3E00
7FFC00
3FF800
0FF000
018000
000000
000000
000000
000000
03C000
07E000
07E000
07E000
03C000
ENDCHAR
STARTCHAR 1EF1
ENCODING 7921
SWIDTH 488 0
DWIDTH 19 0
BBX 19 41 2 -10
BITMAP
000060
0000E0
0000E0
0000C0
E00F80
E00F00
E00F00
E00F00
E00F00
E00F00
E00F00
E00F00
E00F00
E00F00
E00F00
E00F00
E00F00
E00F00
E00F00
E00F00
E00F00
E00F00
E00F00
E00F00
F00F00
F00F00
F01E00
7C3E00
7FFC00
3FF800
0FF000
018000
000000
000000
000000
000000
03C000
07E000
07E000
07E000
03C000
ENDCHAR
STARTCHAR 1EF2
ENCODING 7922
SWIDTH 488 0
DWIDTH 19 0
BBX 17 35 1 0
BITMAP
070000
070000
038000
018000
00C000
00E000
000000
000000
F00780
F00780
F00780
F00780
F00780
F00780
F00780
F00780
F00780
F00780
F00780
F00780
700780
700780
780780
780F00
3C1F00
3FFE00
1FFC00
0FF800
01E000
01E000
01E000
01E000
01E000
01E000
01E000
ENDCHAR
STARTCHAR 1EF3
ENCODING 7923
SWIDTH 488 0
DWIDTH 19 0
BBX 17 35 1 0
BITMAP
070000
070000
038000
018000
00C000
00E000
000000
000000
F00780
F00780
F00780
F00780
F00780
F00780
F00780
F00780
F00780
F00780
F00780
F00780
700780
700780
780780
780F00
3C1F00
3FFE00
1FFC00
0FF800
01E000
01E000
01E000
01E000
01E000
01E000
01E000
ENDCHAR
STARTCHAR 1EF4
ENCODING 7924
SWIDTH 488 0
DWIDTH 19 0
BBX 17 37 1 -10
BITMAP
F00780
F00780
F00780
F00780
F00780
F00780
F00780
F00780
F00780
F00780
F00780
F00780
700780
700780
780780
780F00
3C1F00
3FFE00
1FFC00
0FF800
01E000
01E000
01E000
01E000
01E000
01E000
01E000
000000
000000
000000
000000
000000
01E000
03E000
03F000
03E000
01E000
ENDCHAR
STARTCHAR 1EF5
ENCODING 7925
SWIDTH 488 0
DWIDTH 19 0
BBX 17 37 1 -10
BITMAP
F00780
F00780
F00780
F00780
F00780
F00780
F00780
F00780
F00780
F00780
F00780
F00780
700780
700780
780780
780F00
3C1F00
3FFE00
1FFC00
0FF800
01E000
01E000
01E000
01E000
01E000
01E000
01E000
000000
000000
000000
000000
000000
01E000
03E000
03F000
03E000
01E000
ENDCHAR
STARTCHAR 1EF6
ENCODING 7926
SWIDTH 488 0
DWIDTH 19 0
BBX 17 37 1 0
BITMAP
00C000
00C000
00C000
01C000
018000
018000
01C000
000000
000000
000000
F00780
F00780
F00780
F00780
F00780
F00780
F00780
F00780
F00780
F00780
F00780
F00780
700780
700780
780780
780F00
3C1F00
3FFE00
1FFC00
0FF800
01E000
01E000
01E000
01E000
01E000
01E000
01E000
ENDCHAR
STARTCHAR 1EF7
ENCODING 7927
SWIDTH 488 0
DWIDTH 19 0
BBX 17 37 1 0
BITMAP
00C000
00C000
00C000
01C000
018000
018000
01C000
000000
000000
000000
F00780
F00780
F00780
F00780
F00780
F00780
F00780
F00780
F00780
F00780
F00780
F00780
700780
700780
780780
780F00
3C1F00
3FFE00
1FFC00
0FF800
01E000
01E000
01E000
01E000
01E000
01E000
01E000
ENDCHAR
STARTCHAR 1EF8
ENCODING 7928
SWIDTH 488 0
DWIDTH 19 0
BBX 17 34 1 0
BITMAP
0FD800
0FF800
00F000
000000
000000
000000
000000
F00780
F00780
F00780
F00780
F00780
F00780
F00780
F00780
F00780
F00780
F00780
F00780
700780
700780
780780
780F00
3C1F00
3FFE00
1FFC00
0FF800
01E000
01E000
01E000
01E000
01E000
01E000
01E000
ENDCHAR
STARTCHAR 1EF9
ENCODING 7929
SWIDTH 488 0
DWIDTH 19 0
BBX 17 34 1 0
BITMAP
0FD800
0FF800
00F000
000000
000000
000000
000000
F00780
F00780
F00780
F00780
F00780
F00780
F00780
F00780
F00780
F00780
F00780
F00780
700780
700780
780780
780F00
3C1F00
3FFE00
1FFC00
0FF800
01E000
01E000
01E000
01E000
01E000
01E000
01E000
ENDCHAR
STARTCHAR 2013
ENCODING 8211
SWIDTH 565 0
DWIDTH 22 0
BBX 18 3 2 9
BITMAP
FFFFC0
FFFFC0
FFFFC0
ENDCHAR
STARTCHAR 2014
ENCODING 8212
SWIDTH 797 0
DWIDTH 31 0
BBX 27 3 2 9
BITMAP
FFFFFFE0
FFFFFFE0
FFFFFFE0
ENDCHAR
STARTCHAR 2018
ENCODING 8216
SWIDTH 231 0
DWIDTH 9 0
BBX 5 7 2 20
BITMAP
18
38
38
70
70
70
F0
ENDCHAR
STARTCHAR 2019
ENCODING 8217
SWIDTH 231 0
DWIDTH 9 0
BBX 5 7 2 20
BITMAP
78
70
70
70
60
E0
E0
ENDCHAR
STARTCHAR 201A
ENCODING 8218
SWIDTH 231 0
DWIDTH 9 0
BBX 5 8 2 -5
BITMAP
78
78
70
70
60
E0
E0
C0
ENDCHAR
STARTCHAR 201C
ENCODING 8220
SWIDTH 385 0
DWIDTH 15 0
BBX 11 7 3 20
BITMAP
30E0
70C0
70C0
71C0
E1C0
E3C0
E380
ENDCHAR
STARTCHAR 201D
ENCODING 8221
SWIDTH 385 0
DWIDTH 15 0
BBX 11 7 2 20
BITMAP
78E0
70E0
71E0
71C0
61C0
E180
E180
ENDCHAR
STARTCHAR 201E
ENCODING 8222
SWIDTH 411 0
DWIDTH 16 0
BBX 12 8 2 -5
BITMAP
7870
78F0
70E0
70E0
60E0
E0C0
E1C0
C1C0
ENDCHAR
STARTCHAR 2020
ENCODING 8224
SWIDTH 411 0
DWIDTH 16 0
BBX 12 19 2 9
BITMAP
0700
0700
0700
0700
FFF0
FFF0
FFF0
0700
0700
0700
0700
0700
0700
0700
0700
0700
0700
0700
0700
ENDCHAR
STARTCHAR 2021
ENCODING 8225
SWIDTH 411 0
DWIDTH 16 0
BBX 12 19 2 9
BITMAP
0700
0700
0700
0700
FFF0
FFF0
FFF0
0700
0700
0700
0700
0700
FFF0
FFF0
FFF0
0700
0700
0700
0700
ENDCHAR
STARTCHAR 2022
ENCODING 8226
SWIDTH 308 0
DWIDTH 12 0
BBX 8 8 2 7
BITMAP
3C
7E
FF
FF
FF
FF
7F
3E
ENDCHAR
STARTCHAR 2026
ENCODING 8230
SWIDTH 668 0
DWIDTH 26 0
BBX 22 5 2 0
BITMAP
787878
FCFC7C
FCFCFC
FCFCFC
787878
ENDCHAR
STARTCHAR 2030
ENCODING 8240
SWIDTH 1260 0
DWIDTH 49 0
BBX 46 28 2 0
BITMAP
078000000000
1FE003C00000
3FF003800000
78F807000000
F0380F000000
E0380E000000
E03C1C000000
E03C38000000
F03838000000
707870000000
7CF8E0000000
3FF1E0000000
1FC1C0000000
000380000000
000780000000
000707800780
000E1FE01FE0
001C3FF03FF0
001C78787878
0038703C7038
0070701CF01C
00F0701CE01C
00E0701CF01C
01C0701C703C
03C078387838
03803EF87EF8
07003FF03FF0
0E000FE00FE0
ENDCHAR
STARTCHAR 2039
ENCODING 8249
SWIDTH 360 0
DWIDTH 14 0
BBX 10 17 2 3
BITMAP
03C0
0780
0F00
0E00
1C00
3C00
7800
7000
F000
7800
3C00
1C00
1E00
0F00
0780
0380
03C0
ENDCHAR
STARTCHAR 203A
ENCODING 8250
SWIDTH 360 0
DWIDTH 14 0
BBX 10 17 2 3
BITMAP
7000
3800
3C00
1E00
0E00
0700
0780
03C0
03C0
0380
0700
0F00
1E00
3C00
3800
7000
F000
ENDCHAR
STARTCHAR 2044
ENCODING 8260
SWIDTH 668 0
DWIDTH 26 0
BBX 22 27 2 0
BITMAP
00001C
000038
000070
0000F0
0000E0
0001C0
000380
000380
000700
000E00
001E00
001C00
003800
007800
007000
00E000
01C000
01C000
038000
070000
0F0000
0E0000
1C0000
3C0000
380000
700000
E00000
ENDCHAR
STARTCHAR 20AC
ENCODING 8364
SWIDTH 642 0
DWIDTH 25 0
BBX 21 28 2 0
BITMAP
0000E0
000FF8
003FF8
007FF8
01FC00
01F000
03C000
07C000
078000
0F0000
0F0000
FFFFC0
FFFFC0
1E0000
1E0000
1E0000
FFFFC0
FFFFC0
0F0000
0F0000
078000
07C000
03E000
01F000
00FE08
007FF8
003FF8
0007F8
ENDCHAR
STARTCHAR 2122
ENCODING 8482
SWIDTH 797 0
DWIDTH 31 0
BBX 27 15 2 13
BITMAP
FFC04000
FFF070E0
FFF878E0
1C3E7EE0
1C1F7FE0
1C1FF7E0
1C19F1E0
1C18F0E0
1C1870E0
1C1870E0
1C1870E0
1C1870E0
1C1870E0
1C1870E0
1C1870E0
ENDCHAR
STARTCHAR 2190
ENCODING 8592
SWIDTH 822 0
DWIDTH 32 0
BBX 27 18 3 5
BITMAP
00800000
01C00000
03C00000
07800000
0F000000
1E000000
3C000000
7FFFFFE0
FFFFFFE0
FFFFFFE0
7FFFFFE0
3C000000
1E000000
0F000000
07800000
03C00000
01C00000
00800000
ENDCHAR
STARTCHAR 2191
ENCODING 8593
SWIDTH 565 0
DWIDTH 22 0
BBX 18 28 2 0
BITMAP
004000
00E000
01F000
03F800
07FC00
0FFE00
1EEF00
3CE780
78E3C0
F0E1C0
60E080
00E000
00E000
00E000
00E000
00E000
00E000
00E000
00E000
00E000
00E000
00E000
00E000
00E000
00E000
00E000
00E000
00E000
ENDCHAR
STARTCHAR 2192
ENCODING 8594
SWIDTH 822 0
DWIDTH 32 0
BBX 28 18 2 5
BITMAP
00003000
00007800
00003C00
00001E00
00000F00
00000780
000003C0
FFFFFFE0
FFFFFFF0
FFFFFFF0
FFFFFFE0
000003C0
00000780
00000F00
00001E00
00003C00
00007800
00003000
ENDCHAR
STARTCHAR 2193
ENCODING 8595
SWIDTH 565 0
DWIDTH 22 0
BBX 19 28 2 -1
BITMAP
00E000
00E000
00E000
00E000
00E000
00E000
00E000
00E000
00E000
00E000
00E000
00E000
00E000
00E000
00E000
00E000
00E000
60E0C0
F0E1E0
78E3C0
3CE780
1EEF00
0FFE00
07FC00
03F800
01F000
00E000
004000
ENDCHAR
STARTCHAR 2194
ENCODING 8596
SWIDTH 874 0
DWIDTH 34 0
BBX 29 18 3 5
BITMAP
00800800
01C01C00
03C01E00
07800F00
0F000780
1E0003C0
3C0001E0
7FFFFFF0
FFFFFFF8
FFFFFFF8
7FFFFFF0
3C0001E0
1E0003C0
0F000780
07800F00
03C01E00
01C01C00
00800800
ENDCHAR
STARTCHAR 2195
ENCODING 8597
SWIDTH 617 0
DWIDTH 24 0
BBX 20 29 2 -1
BITMAP
002000
00F000
01F800
03FC00
07FF00
0F7F80
3E73C0
7C71E0
F070F0
607060
007020
007000
007000
007000
007000
007000
007000
007000
007020
607070
F870F0
7C71E0
1E77C0
0F7F80
07FE00
03FC00
01F800
007000
002000
ENDCHAR
STARTCHAR 2196
ENCODING 8598
SWIDTH 642 0
DWIDTH 25 0
BBX 21 21 2 3
BITMAP
FFF800
FFF800
FFF800
FC0000
FE0000
FF0000
EF8000
E7C000
E3E000
E1F000
E0F800
E07C00
E03E00
001F00
000F80
0007C0
0003E0
0001F0
0000F8
000070
000020
ENDCHAR
STARTCHAR 2197
ENCODING 8599
SWIDTH 642 0
DWIDTH 25 0
BBX 21 21 2 3
BITMAP
00FFF8
00FFF8
00FFF8
0001F8
0003F8
0007F8
000FB8
001F38
003E38
007C38
00F838
01F038
03E038
07C000
0F8000
1F0000
3E0000
7C0000
F80000
700000
200000
ENDCHAR
STARTCHAR 2198
ENCODING 8600
SWIDTH 642 0
DWIDTH 25 0
BBX 21 21 2 3
BITMAP
200000
700000
F80000
7C0000
3E0000
1F0000
0F8000
07C000
03E038
01F038
00F838
007C38
003E38
001F38
000FB8
0007F8
0003F8
0001F8
00FFF8
00FFF8
00FFF8
ENDCHAR
STARTCHAR 2199
ENCODING 8601
SWIDTH 642 0
DWIDTH 25 0
BBX 21 21 2 3
BITMAP
000020
000070
0000F8
0001F0
0003E0
0007C0
000F80
001F00
E03E00
E07C00
E0F800
E1F000
E3E000
E7C000
EF8000
FF0000
FE0000
FC0000
FFF800
FFF800
FFF800
ENDCHAR
STARTCHAR 2202
ENCODING 8706
SWIDTH 565 0
DWIDTH 22 0
BBX 18 29 2 0
BITMAP
070000
07C000
0FE000
03F000
00F800
007C00
003E00
001F00
000F00
000780
000780
07F3C0
1FFBC0
3FFFC0
3F1FC0
7C07C0
7803C0
F003C0
F003C0
F003C0
F003C0
F00780
F00780
780F80
7C1F00
3FFE00
1FFC00
0FF800
008000
ENDCHAR
STARTCHAR 2205
ENCODING 8709
SWIDTH 720 0
DWIDTH 28 0
BBX 24 24 2 2
BITMAP
003C02
01FF87
07E3EE
0F007C
1C0038
38007C
3000EE
6001C6
600386
E00707
E00E03
C01C03
C03803
E07003
E0E007
61C006
738006
37000E
3E001C
1C0038
3F0070
77C3E0
E1FFC0
403C00
ENDCHAR
STARTCHAR 220F
ENCODING 8719
SWIDTH 591 0
DWIDTH 23 0
BBX 20 32 2 -4
BITMAP
FFFFF0
FFFFF0
FFFFF0
1C0380
1C0380
1C0380
1C0380
1C0380
1C0380
1C0380
1C0380
1C0380
1C0380
1C0380
1C0380
1C0380
1C0380
1C0380
1C0380
1C0380
1C0380
1C0380
1C0380
1C0380
1C0380
1C0380
1C0380
1C0380
1C0380
1C0380
1C0380
1C0380
ENDCHAR
STARTCHAR 2211
ENCODING 8721
SWIDTH 488 0
DWIDTH 19 0
BBX 15 32 2 -4
BITMAP
FFFE
FFFE
FFFE
F000
7800
7800
3C00
1C00
1E00
0E00
0F00
0780
0780
03C0
01C0
01E0
01E0
01C0
03C0
0780
0700
0F00
0E00
1E00
1C00
3C00
7800
7800
F000
FFFE
FFFE
FFFE
ENDCHAR
STARTCHAR 2212
ENCODING 8722
SWIDTH 540 0
DWIDTH 21 0
BBX 18 3 2 11
BITMAP
FFFFC0
FFFFC0
FFFFC0
ENDCHAR
STARTCHAR 221A
ENCODING 8730
SWIDTH 668 0
DWIDTH 26 0
BBX 22 32 2 -4
BITMAP
0003FC
0003FC
0003FC
000780
000700
000700
000F00
000F00
000E00
000E00
001E00
001E00
001C00
001C00
003C00
003800
F03800
707800
707800
787000
787000
38F000
3CE000
3CE000
1CE000
1DE000
1FC000
0FC000
0FC000
0F8000
078000
078000
ENDCHAR
STARTCHAR 221E
ENCODING 8734
SWIDTH 797 0
DWIDTH 31 0
BBX 27 13 2 7
BITMAP
1FC03F00
3FE0FF80
79F1F3C0
703BC0E0
E01F80E0
E00F0060
E00F0060
E01F00E0
E03F80E0
70F9E1C0
3FF0FFC0
1FC07F00
02000000
ENDCHAR
STARTCHAR 222B
ENCODING 8747
SWIDTH 488 0
DWIDTH 19 0
BBX 15 32 2 -4
BITMAP
000E
003E
007E
0078
00F0
00E0
00E0
00E0
01E0
01E0
01C0
01C0
01C0
01C0
03C0
0380
0380
0380
0380
0380
0780
0700
0700
0700
0700
0F00
0F00
0E00
1E00
3E00
FC00
F800
ENDCHAR
STARTCHAR 2248
ENCODING 8776
SWIDTH 540 0
DWIDTH 21 0
BBX 17 13 2 6
BITMAP
7C0000
FFF380
FFFF80
81FF80
001C00
000000
000000
000000
7E0000
FFFB80
FFFF80
81FF80
000800
ENDCHAR
STARTCHAR 2260
ENCODING 8800
SWIDTH 540 0
DWIDTH 21 0
BBX 18 19 2 3
BITMAP
003800
003800
007000
007000
FFFFC0
FFFFC0
FFFFC0
01E000
01C000
01C000
03C000
038000
FFFFC0
FFFFC0
FFFFC0
070000
0E0000
0E0000
0E0000
ENDCHAR
STARTCHAR 2264
ENCODING 8804
SWIDTH 540 0
DWIDTH 21 0
BBX 18 16 2 4
BITMAP
0003C0
003FC0
03FFC0
3FF800
FF8000
F00000
FF0000
7FF800
07FF80
003FC0
0003C0
000000
000000
FFFFC0
FFFFC0
FFFFC0
ENDCHAR
STARTCHAR 2265
ENCODING 8805
SWIDTH 540 0
DWIDTH 21 0
BBX 18 16 2 4
BITMAP
E00000
FE0000
FFF000
0FFF00
007FC0
0007C0
003FC0
07FF00
7FF000
FF0000
F00000
000000
000000
FFFFC0
FFFFC0
FFFFC0
ENDCHAR
STARTCHAR 25CA
ENCODING 9674
SWIDTH 488 0
DWIDTH 19 0
BBX 15 22 2 3
BITMAP
07C0
07C0
0FE0
0EE0
1CF0
1C70
3878
3838
783C
701C
F01E
F01E
701C
783C
3838
3C78
1C70
1EF0
0EE0
0FE0
07C0
07C0
ENDCHAR
ENDFONT
